SplineFontDB: 3.2
FontName: Cascacico-Italic
FullName: Cascacico Italic
FamilyName: Cascacico
Weight: Regular
Copyright: Copyright 2011 The Pacifico Project Authors (https://github.com/Fonthausen/Pacifico)
Version: 2.100
ItalicAngle: 0
UnderlinePosition: -100
UnderlineWidth: 50
Ascent: 800
Descent: 200
InvalidEm: 0
sfntRevision: 0x00021999
LayerCount: 2
Layer: 0 1 "Back" 1
Layer: 1 1 "Fore" 0
XUID: [1021 434 867087545 7653583]
StyleMap: 0x0040
FSType: 0
OS2Version: 4
OS2_WeightWidthSlopeOnly: 0
OS2_UseTypoMetrics: 1
CreationTime: 1299709184
ModificationTime: 1591468116
PfmFamily: 81
TTFWeight: 400
TTFWidth: 5
LineGap: 0
VLineGap: 0
Panose: 0 0 5 0 0 0 0 0 0 0
OS2TypoAscent: 1303
OS2TypoAOffset: 0
OS2TypoDescent: -453
OS2TypoDOffset: 0
OS2TypoLinegap: 0
OS2WinAscent: 1478
OS2WinAOffset: 0
OS2WinDescent: 457
OS2WinDOffset: 0
HheadAscent: 1303
HheadAOffset: 0
HheadDescent: -453
HheadDOffset: 0
OS2SubXSize: 650
OS2SubYSize: 600
OS2SubXOff: 0
OS2SubYOff: 75
OS2SupXSize: 650
OS2SupYSize: 600
OS2SupXOff: 0
OS2SupYOff: 350
OS2StrikeYSize: 50
OS2StrikeYPos: 276
OS2CapHeight: 840
OS2XHeight: 460
OS2Vendor: 'newt'
OS2CodePages: 20000197.00000000
OS2UnicodeRanges: 20000207.00000000.00000000.00000000
Lookup: 1 0 0 "'aalt' Access All Alternates in Latin lookup 0" { "'aalt' Access All Alternates in Latin lookup 0 subtable"  } ['aalt' ('DFLT' <'dflt' > 'latn' <'AZE ' 'CAT ' 'CRT ' 'KAZ ' 'MOL ' 'NLD ' 'ROM ' 'TAT ' 'TRK ' 'dflt' > ) ]
Lookup: 3 0 0 "'aalt' Access All Alternates in Latin lookup 1" { "'aalt' Access All Alternates in Latin lookup 1 subtable"  } ['aalt' ('DFLT' <'dflt' > 'latn' <'AZE ' 'CAT ' 'CRT ' 'KAZ ' 'MOL ' 'NLD ' 'ROM ' 'TAT ' 'TRK ' 'dflt' > ) ]

StartChar: A
Encoding: 65 65 4
Width: 786
GlyphClass: 2
Flags: W
AnchorPoint: "Anchor-9" 0 0 basechar 0
AnchorPoint: "Anchor-8" 592 840 basechar 0
AnchorPoint: "Anchor-7" 722 10 basechar 0
AnchorPoint: "Anchor-6" 384 0 basechar 0
LayerCount: 2
Fore
SplineSet
175.5 29 m 128,-1,1
 120 63 120 63 88 127.5 c 128,-1,2
 56 192 56 192 56 280 c 0,3,4
 56 432 56 432 121 561.5 c 128,-1,5
 186 691 186 691 313 769.5 c 128,-1,6
 440 848 440 848 618 848 c 0,7,8
 664 848 664 848 716.5 841 c 128,-1,9
 769 834 769 834 812 820 c 0,10,11
 840 812 840 812 840 780 c 0,12,13
 840 754 840 754 820.5 731 c 128,-1,14
 801 708 801 708 775 708 c 0,15,16
 767 708 767 708 763 709 c 0,17,18
 711 721 711 721 674 726.5 c 128,-1,19
 637 732 637 732 596 732 c 0,20,21
 469 732 469 732 380 670.5 c 128,-1,22
 291 609 291 609 247 508 c 128,-1,23
 203 407 203 407 203 290 c 0,24,25
 203 205 203 205 236.5 158.5 c 128,-1,26
 270 112 270 112 324 112 c 0,27,28
 385 112 385 112 431 162 c 128,-1,29
 477 212 477 212 515 324 c 128,-1,30
 553 436 553 436 590 628 c 0,31,32
 596 656 596 656 614 666 c 128,-1,33
 632 676 632 676 662 676 c 0,34,35
 733 676 733 676 733 630 c 0,36,37
 733 622 733 622 730 610 c 0,38,39
 704 513 704 513 682.5 395.5 c 128,-1,40
 661 278 661 278 661 217 c 0,41,42
 661 163 661 163 677 138.5 c 128,-1,43
 693 114 693 114 726 114 c 0,44,45
 758 114 758 114 787 135.5 c 128,-1,46
 816 157 816 157 860 209 c 0,47,48
 872 223 872 223 887 223 c 0,49,50
 900 223 900 223 907.5 211 c 128,-1,51
 915 199 915 199 915 178 c 0,52,53
 915 139 915 139 896 116 c 0,54,55
 847 57 847 57 800 26 c 128,-1,56
 753 -5 753 -5 685 -5 c 0,57,58
 615 -5 615 -5 572 35.5 c 128,-1,59
 529 76 529 76 518 150 c 1,60,61
 444 -5 444 -5 300 -5 c 0,62,0
 231 -5 231 -5 175.5 29 c 128,-1,1
EndSplineSet
Substitution2: "Single Substitution lookup 30 subtable" ordfeminine
Substitution2: "'ss02' Style Set 2 in Latin lookup 25 subtable" A.ss01
Substitution2: "'ss01' Style Set 1 in Latin lookup 24 subtable" A.ss01
Substitution2: "'salt' Stylistic Alternatives in Latin lookup 23 subtable" A.ss01
Substitution2: "'case' Case-Sensitive Forms in Latin lookup 21 subtable" A.ss01
AlternateSubs2: "'aalt' Access All Alternates in Latin lookup 1 subtable" ordfeminine A.ss01
EndChar

StartChar: Aogonek
Encoding: 260 260 25
Width: 786
GlyphClass: 2
Flags: W
AnchorPoint: "Anchor-9" 0 0 basechar 0
AnchorPoint: "Anchor-8" 592 840 basechar 0
AnchorPoint: "Anchor-7" 722 10 basechar 0
AnchorPoint: "Anchor-6" 384 0 basechar 0
LayerCount: 2
Fore
SplineSet
604.5 -216.5 m 128,-1,1
 562 -179 562 -179 562 -118 c 0,2,3
 562 -45 562 -45 622 5 c 1,4,5
 579 21 579 21 552.5 58 c 128,-1,6
 526 95 526 95 518 150 c 1,7,8
 444 -5 444 -5 300 -5 c 0,9,10
 231 -5 231 -5 175.5 29 c 128,-1,11
 120 63 120 63 88 127.5 c 128,-1,12
 56 192 56 192 56 280 c 0,13,14
 56 432 56 432 121 561.5 c 128,-1,15
 186 691 186 691 313 769.5 c 128,-1,16
 440 848 440 848 618 848 c 0,17,18
 664 848 664 848 716.5 841 c 128,-1,19
 769 834 769 834 812 820 c 0,20,21
 840 812 840 812 840 780 c 0,22,23
 840 754 840 754 820.5 731 c 128,-1,24
 801 708 801 708 775 708 c 0,25,26
 767 708 767 708 763 709 c 0,27,28
 711 721 711 721 674 726.5 c 128,-1,29
 637 732 637 732 596 732 c 0,30,31
 469 732 469 732 380 670.5 c 128,-1,32
 291 609 291 609 247 508 c 128,-1,33
 203 407 203 407 203 290 c 0,34,35
 203 205 203 205 236.5 158.5 c 128,-1,36
 270 112 270 112 324 112 c 0,37,38
 385 112 385 112 431 162 c 128,-1,39
 477 212 477 212 515 324 c 128,-1,40
 553 436 553 436 590 628 c 0,41,42
 596 656 596 656 614 666 c 128,-1,43
 632 676 632 676 662 676 c 0,44,45
 733 676 733 676 733 630 c 0,46,47
 733 622 733 622 730 610 c 0,48,49
 704 513 704 513 682.5 395.5 c 128,-1,50
 661 278 661 278 661 217 c 0,51,52
 661 163 661 163 677 138.5 c 128,-1,53
 693 114 693 114 726 114 c 0,54,55
 758 114 758 114 787 135.5 c 128,-1,56
 816 157 816 157 860 209 c 0,57,58
 872 223 872 223 887 223 c 0,59,60
 900 223 900 223 907.5 211 c 128,-1,61
 915 199 915 199 915 178 c 0,62,63
 915 159 915 159 911.5 144 c 128,-1,64
 908 129 908 129 896 116 c 0,65,66
 837 47 837 47 755 0 c 0,67,68
 709 -26 709 -26 688.5 -50 c 128,-1,69
 668 -74 668 -74 668 -101 c 0,70,71
 668 -130 668 -130 686 -145 c 128,-1,72
 704 -160 704 -160 730 -160 c 256,73,74
 756 -160 756 -160 777 -153 c 0,75,76
 794 -147 794 -147 804 -147 c 0,77,78
 818 -147 818 -147 824 -156.5 c 128,-1,79
 830 -166 830 -166 830 -185 c 0,80,81
 830 -206 830 -206 819 -220.5 c 128,-1,82
 808 -235 808 -235 783 -244 c 0,83,84
 771 -248 771 -248 751.5 -251 c 128,-1,85
 732 -254 732 -254 716 -254 c 0,86,0
 647 -254 647 -254 604.5 -216.5 c 128,-1,1
EndSplineSet
Substitution2: "'ss02' Style Set 2 in Latin lookup 25 subtable" Aogonek.ss01
Substitution2: "'ss01' Style Set 1 in Latin lookup 24 subtable" Aogonek.ss01
Substitution2: "'salt' Stylistic Alternatives in Latin lookup 23 subtable" Aogonek.ss01
Substitution2: "'case' Case-Sensitive Forms in Latin lookup 21 subtable" Aogonek.ss01
Substitution2: "'aalt' Access All Alternates in Latin lookup 0 subtable" Aogonek.ss01
EndChar

StartChar: Aringacute
Encoding: 506 506 27
Width: 786
GlyphClass: 2
Flags: W
AnchorPoint: "Anchor-9" 0 0 basechar 0
AnchorPoint: "Anchor-8" 592 840 basechar 0
AnchorPoint: "Anchor-7" 722 10 basechar 0
AnchorPoint: "Anchor-6" 384 0 basechar 0
LayerCount: 2
Fore
SplineSet
771 1136 m 128,-1,1
 762 1145 762 1145 762 1158 c 0,2,3
 762 1173 762 1173 778 1188 c 2,4,-1
 882 1282 l 2,5,6
 898 1297 898 1297 919 1297 c 0,7,8
 941 1297 941 1297 957.5 1281 c 128,-1,9
 974 1265 974 1265 974 1243 c 0,10,11
 974 1226 974 1226 963 1209.5 c 128,-1,12
 952 1193 952 1193 929 1183 c 2,13,-1
 812 1131 l 2,14,15
 804 1127 804 1127 794 1127 c 0,16,0
 780 1127 780 1127 771 1136 c 128,-1,1
520 947.5 m 128,-1,18
 482 983 482 983 482 1044 c 0,19,20
 482 1089 482 1089 501.5 1122.5 c 128,-1,21
 521 1156 521 1156 553.5 1174 c 128,-1,22
 586 1192 586 1192 623 1192 c 0,23,24
 676 1192 676 1192 714 1156.5 c 128,-1,25
 752 1121 752 1121 752 1060 c 0,26,27
 752 1015 752 1015 732.5 981.5 c 128,-1,28
 713 948 713 948 680.5 930 c 128,-1,29
 648 912 648 912 611 912 c 0,30,17
 558 912 558 912 520 947.5 c 128,-1,18
649 1015 m 128,-1,32
 663 1030 663 1030 663 1055 c 0,33,34
 663 1077 663 1077 650 1090.5 c 128,-1,35
 637 1104 637 1104 619 1104 c 0,36,37
 599 1104 599 1104 585 1089 c 128,-1,38
 571 1074 571 1074 571 1049 c 0,39,40
 571 1027 571 1027 584 1013.5 c 128,-1,41
 597 1000 597 1000 615 1000 c 0,42,31
 635 1000 635 1000 649 1015 c 128,-1,32
175.5 29 m 128,-1,44
 120 63 120 63 88 127.5 c 128,-1,45
 56 192 56 192 56 280 c 0,46,47
 56 432 56 432 121 561.5 c 128,-1,48
 186 691 186 691 313 769.5 c 128,-1,49
 440 848 440 848 618 848 c 0,50,51
 664 848 664 848 716.5 841 c 128,-1,52
 769 834 769 834 812 820 c 0,53,54
 840 812 840 812 840 780 c 0,55,56
 840 754 840 754 820.5 731 c 128,-1,57
 801 708 801 708 775 708 c 0,58,59
 767 708 767 708 763 709 c 0,60,61
 711 721 711 721 674 726.5 c 128,-1,62
 637 732 637 732 596 732 c 0,63,64
 469 732 469 732 380 670.5 c 128,-1,65
 291 609 291 609 247 508 c 128,-1,66
 203 407 203 407 203 290 c 0,67,68
 203 205 203 205 236.5 158.5 c 128,-1,69
 270 112 270 112 324 112 c 0,70,71
 385 112 385 112 431 162 c 128,-1,72
 477 212 477 212 515 324 c 128,-1,73
 553 436 553 436 590 628 c 0,74,75
 596 656 596 656 614 666 c 128,-1,76
 632 676 632 676 662 676 c 0,77,78
 733 676 733 676 733 630 c 0,79,80
 733 622 733 622 730 610 c 0,81,82
 704 513 704 513 682.5 395.5 c 128,-1,83
 661 278 661 278 661 217 c 0,84,85
 661 163 661 163 677 138.5 c 128,-1,86
 693 114 693 114 726 114 c 0,87,88
 758 114 758 114 787 135.5 c 128,-1,89
 816 157 816 157 860 209 c 0,90,91
 872 223 872 223 887 223 c 0,92,93
 900 223 900 223 907.5 211 c 128,-1,94
 915 199 915 199 915 178 c 0,95,96
 915 139 915 139 896 116 c 0,97,98
 847 57 847 57 800 26 c 128,-1,99
 753 -5 753 -5 685 -5 c 0,100,101
 615 -5 615 -5 572 35.5 c 128,-1,102
 529 76 529 76 518 150 c 1,103,104
 444 -5 444 -5 300 -5 c 0,105,43
 231 -5 231 -5 175.5 29 c 128,-1,44
EndSplineSet
Substitution2: "'ss02' Style Set 2 in Latin lookup 25 subtable" Aringacute.ss01
Substitution2: "'ss01' Style Set 1 in Latin lookup 24 subtable" Aringacute.ss01
Substitution2: "'salt' Stylistic Alternatives in Latin lookup 23 subtable" Aringacute.ss01
Substitution2: "'case' Case-Sensitive Forms in Latin lookup 21 subtable" Aringacute.ss01
Substitution2: "'aalt' Access All Alternates in Latin lookup 0 subtable" Aringacute.ss01
EndChar

StartChar: AE
Encoding: 198 198 29
Width: 1015
GlyphClass: 2
Flags: W
AnchorPoint: "Anchor-9" 0 0 basechar 0
AnchorPoint: "Anchor-8" 703 840 basechar 0
AnchorPoint: "Anchor-7" 0 0 basechar 0
AnchorPoint: "Anchor-6" 576 0 basechar 0
LayerCount: 2
Fore
SplineSet
1111 187 m 0,1,2
 1125 187 1125 187 1133 175.5 c 128,-1,3
 1141 164 1141 164 1141 146 c 0,4,5
 1141 123 1141 123 1131.5 104.5 c 128,-1,6
 1122 86 1122 86 1099 69 c 0,7,8
 1054 37 1054 37 980.5 16 c 128,-1,9
 907 -5 907 -5 839 -5 c 0,10,11
 716 -5 716 -5 644 43.5 c 128,-1,12
 572 92 572 92 550 173 c 1,13,14
 471 -5 471 -5 312 -5 c 0,15,16
 237 -5 237 -5 179 29 c 128,-1,17
 121 63 121 63 88.5 127.5 c 128,-1,18
 56 192 56 192 56 280 c 0,19,20
 56 426 56 426 114.5 548.5 c 128,-1,21
 173 671 173 671 277 748.5 c 128,-1,22
 381 826 381 826 511 842 c 0,23,24
 519 843 519 843 532 843 c 0,25,26
 597 843 597 843 597 780 c 0,27,28
 597 759 597 759 587.5 745.5 c 128,-1,29
 578 732 578 732 559 730 c 0,30,31
 445 717 445 717 364.5 656 c 128,-1,32
 284 595 284 595 243.5 499.5 c 128,-1,33
 203 404 203 404 203 290 c 0,34,35
 203 205 203 205 236.5 158.5 c 128,-1,36
 270 112 270 112 324 112 c 0,37,38
 407 112 407 112 457.5 194.5 c 128,-1,39
 508 277 508 277 550 431 c 2,40,-1
 631 727 l 2,41,42
 646 782 646 782 680.5 810 c 128,-1,43
 715 838 715 838 766 840 c 2,44,-1
 818 843 l 2,45,46
 944 849 944 849 1016 849 c 0,47,48
 1052 849 1052 849 1066 836.5 c 128,-1,49
 1080 824 1080 824 1080 795 c 0,50,51
 1080 764 1080 764 1062 742 c 128,-1,52
 1044 720 1044 720 1008 720 c 0,53,54
 941 720 941 720 870.5 717 c 128,-1,55
 800 714 800 714 768 710 c 1,56,57
 744 638 744 638 710 483 c 1,58,59
 756 485 756 485 776 485 c 0,60,61
 883 490 883 490 957 490 c 0,62,63
 987 490 987 490 998.5 477.5 c 128,-1,64
 1010 465 1010 465 1010 441 c 0,65,66
 1010 410 1010 410 992.5 389.5 c 128,-1,67
 975 369 975 369 944 368 c 2,68,-1
 831 365 l 2,69,70
 779 363 779 363 686 361 c 1,71,72
 675 312 675 312 675 274 c 0,73,74
 675 115 675 115 862 115 c 0,75,76
 914 115 914 115 968 131.5 c 128,-1,77
 1022 148 1022 148 1091 182 c 0,78,0
 1100 187 1100 187 1111 187 c 0,1,2
EndSplineSet
Substitution2: "'ss02' Style Set 2 in Latin lookup 25 subtable" AE.ss01
Substitution2: "'ss01' Style Set 1 in Latin lookup 24 subtable" AE.ss01
Substitution2: "'salt' Stylistic Alternatives in Latin lookup 23 subtable" AE.ss01
Substitution2: "'case' Case-Sensitive Forms in Latin lookup 21 subtable" AE.ss01
Substitution2: "'aalt' Access All Alternates in Latin lookup 0 subtable" AE.ss01
EndChar

StartChar: B
Encoding: 66 66 31
Width: 827
Flags: W
LayerCount: 2
Fore
SplineSet
808 493.5 m 128,-1,1
 748 432 748 432 633 405 c 1,2,3
 695 388 695 388 727 349.5 c 128,-1,4
 759 311 759 311 759 261 c 0,5,6
 759 182 759 182 709.5 124 c 128,-1,7
 660 66 660 66 565 34.5 c 128,-1,8
 470 3 470 3 336 3 c 0,9,10
 286 3 286 3 256 6 c 1,11,12
 255 -22 255 -22 232 -36 c 128,-1,13
 209 -50 209 -50 173 -50 c 256,14,15
 137 -50 137 -50 123.5 -34 c 128,-1,16
 110 -18 110 -18 112 13 c 0,17,18
 121 153 121 153 147 306.5 c 128,-1,19
 173 460 173 460 213 603 c 0,20,21
 220 628 220 628 241 638 c 128,-1,22
 262 648 262 648 296 648 c 0,23,24
 357 648 357 648 357 614 c 0,25,26
 357 600 357 600 351 582 c 0,27,28
 325 504 325 504 299 370.5 c 128,-1,29
 273 237 273 237 262 116 c 1,30,31
 310 112 310 112 340 112 c 0,32,33
 480 112 480 112 545.5 152.5 c 128,-1,34
 611 193 611 193 611 256 c 0,35,36
 611 300 611 300 573.5 330 c 128,-1,37
 536 360 536 360 448 363 c 0,38,39
 428 364 428 364 420 373 c 128,-1,40
 412 382 412 382 412 402 c 0,41,42
 412 431 412 431 424 449 c 128,-1,43
 436 467 436 467 468 468 c 0,44,45
 539 470 539 470 596.5 489 c 128,-1,46
 654 508 654 508 687 542.5 c 128,-1,47
 720 577 720 577 720 623 c 0,48,49
 720 681 720 681 663 714.5 c 128,-1,50
 606 748 606 748 488 748 c 0,51,52
 381 748 381 748 281 720.5 c 128,-1,53
 181 693 181 693 111 651 c 0,54,55
 79 632 79 632 57 632 c 0,56,57
 39 632 39 632 29.5 644.5 c 128,-1,58
 20 657 20 657 20 676 c 0,59,60
 20 701 20 701 30.5 719 c 128,-1,61
 41 737 41 737 81 760 c 0,62,63
 165 808 165 808 278 835 c 128,-1,64
 391 862 391 862 509 862 c 0,65,66
 690 862 690 862 779 801 c 128,-1,67
 868 740 868 740 868 640 c 0,68,0
 868 555 868 555 808 493.5 c 128,-1,1
EndSplineSet
Substitution2: "'ss02' Style Set 2 in Latin lookup 25 subtable" B.ss01
Substitution2: "'ss01' Style Set 1 in Latin lookup 24 subtable" B.ss01
Substitution2: "'salt' Stylistic Alternatives in Latin lookup 23 subtable" B.ss01
Substitution2: "'case' Case-Sensitive Forms in Latin lookup 21 subtable" B.ss01
Substitution2: "'aalt' Access All Alternates in Latin lookup 0 subtable" B.ss01
EndChar

StartChar: C
Encoding: 67 67 32
Width: 686
GlyphClass: 2
Flags: W
AnchorPoint: "Anchor-9" 0 0 basechar 0
AnchorPoint: "Anchor-8" 480 840 basechar 0
AnchorPoint: "Anchor-7" 0 0 basechar 0
AnchorPoint: "Anchor-6" 384 0 basechar 0
LayerCount: 2
Fore
SplineSet
246 38.5 m 128,-1,1
 158 82 158 82 111 162 c 128,-1,2
 64 242 64 242 64 348 c 0,3,4
 64 495 64 495 119.5 609 c 128,-1,5
 175 723 175 723 270 785.5 c 128,-1,6
 365 848 365 848 481 848 c 0,7,8
 589 848 589 848 645 792.5 c 128,-1,9
 701 737 701 737 701 646 c 0,10,11
 701 585 701 585 679.5 548 c 128,-1,12
 658 511 658 511 618 511 c 0,13,14
 590 511 590 511 574 524 c 128,-1,15
 558 537 558 537 558 562 c 0,16,17
 558 571 558 571 562 595 c 0,18,19
 568 625 568 625 568 643 c 0,20,21
 568 734 568 734 471 734 c 0,22,23
 405 734 405 734 345 691 c 128,-1,24
 285 648 285 648 248 564.5 c 128,-1,25
 211 481 211 481 211 366 c 0,26,27
 211 246 211 246 278 180.5 c 128,-1,28
 345 115 345 115 476 115 c 0,29,30
 541 115 541 115 607.5 131.5 c 128,-1,31
 674 148 674 148 755 182 c 0,32,33
 770 188 770 188 780 188 c 0,34,35
 796 188 796 188 804 176 c 128,-1,36
 812 164 812 164 812 145 c 0,37,38
 812 84 812 84 746 55 c 0,39,40
 675 24 675 24 598.5 9.5 c 128,-1,41
 522 -5 522 -5 453 -5 c 0,42,0
 334 -5 334 -5 246 38.5 c 128,-1,1
EndSplineSet
Substitution2: "'ss02' Style Set 2 in Latin lookup 25 subtable" C.ss01
Substitution2: "'ss01' Style Set 1 in Latin lookup 24 subtable" C.ss01
Substitution2: "'salt' Stylistic Alternatives in Latin lookup 23 subtable" C.ss01
Substitution2: "'case' Case-Sensitive Forms in Latin lookup 21 subtable" C.ss01
Substitution2: "'aalt' Access All Alternates in Latin lookup 0 subtable" C.ss01
EndChar

StartChar: D
Encoding: 68 68 38
Width: 836
GlyphClass: 2
Flags: W
AnchorPoint: "Anchor-9" 0 0 basechar 0
AnchorPoint: "Anchor-8" 442 840 basechar 0
AnchorPoint: "Anchor-7" 0 0 basechar 0
AnchorPoint: "Anchor-6" 332 0 basechar 0
LayerCount: 2
Fore
SplineSet
177 5 m 0,1,2
 137 10 137 10 122 26 c 128,-1,3
 107 42 107 42 109 78 c 0,4,5
 116 177 116 177 142 322.5 c 128,-1,6
 168 468 168 468 205 603 c 0,7,8
 212 628 212 628 233 638 c 128,-1,9
 254 648 254 648 288 648 c 0,10,11
 349 648 349 648 349 614 c 0,12,13
 349 600 349 600 343 582 c 0,14,15
 317 502 317 502 291 367.5 c 128,-1,16
 265 233 265 233 254 111 c 1,17,18
 284 108 284 108 322 108 c 0,19,20
 497 108 497 108 583.5 214 c 128,-1,21
 670 320 670 320 670 497 c 0,22,23
 670 616 670 616 602 681 c 128,-1,24
 534 746 534 746 410 746 c 0,25,26
 330 746 330 746 251.5 721 c 128,-1,27
 173 696 173 696 110 655 c 0,28,29
 97 646 97 646 82 646 c 0,30,31
 65 646 65 646 55 660.5 c 128,-1,32
 45 675 45 675 45 696 c 0,33,34
 45 720 45 720 53 735.5 c 128,-1,35
 61 751 61 751 80 764 c 0,36,37
 149 811 149 811 242 835.5 c 128,-1,38
 335 860 335 860 421 860 c 0,39,40
 543 860 543 860 632 817.5 c 128,-1,41
 721 775 721 775 769 693 c 128,-1,42
 817 611 817 611 817 495 c 0,43,44
 817 344 817 344 757 231.5 c 128,-1,45
 697 119 697 119 582 57 c 128,-1,46
 467 -5 467 -5 308 -5 c 0,47,0
 250 -5 250 -5 177 5 c 0,1,2
EndSplineSet
Substitution2: "'ss02' Style Set 2 in Latin lookup 25 subtable" D.ss01
Substitution2: "'ss01' Style Set 1 in Latin lookup 24 subtable" D.ss01
Substitution2: "'salt' Stylistic Alternatives in Latin lookup 23 subtable" D.ss01
Substitution2: "'case' Case-Sensitive Forms in Latin lookup 21 subtable" D.ss01
Substitution2: "'aalt' Access All Alternates in Latin lookup 0 subtable" D.ss01
EndChar

StartChar: Eth
Encoding: 208 208 40
Width: 821
Flags: W
LayerCount: 2
Fore
SplineSet
628.5 814.5 m 128,-1,1
 714 769 714 769 758.5 686.5 c 128,-1,2
 803 604 803 604 803 494 c 0,3,4
 803 351 803 351 742.5 237.5 c 128,-1,5
 682 124 682 124 567 59.5 c 128,-1,6
 452 -5 452 -5 294 -5 c 0,7,8
 228 -5 228 -5 155 5 c 0,9,10
 116 10 116 10 101 26 c 128,-1,11
 86 42 86 42 89 78 c 0,12,13
 102 216 102 216 134 383 c 1,14,-1
 65 383 l 2,15,16
 15 383 15 383 15 429 c 0,17,18
 15 470 15 470 44.5 487.5 c 128,-1,19
 74 505 74 505 138 505 c 2,20,-1
 161 505 l 1,21,22
 197 660 197 660 243 798 c 0,23,24
 250 818 250 818 260.5 830.5 c 128,-1,25
 271 843 271 843 291 848 c 0,26,27
 340 860 340 860 424 860 c 0,28,0
 543 860 543 860 628.5 814.5 c 128,-1,1
502.5 159.5 m 128,-1,30
 581 211 581 211 618.5 297 c 128,-1,31
 656 383 656 383 656 489 c 0,32,33
 656 618 656 618 589 683 c 128,-1,34
 522 748 522 748 411 748 c 0,35,36
 378 748 378 748 367 747 c 1,37,38
 334 647 334 647 300 504 c 1,39,40
 329 503 329 503 391 503 c 0,41,42
 455 503 455 503 477.5 490 c 128,-1,43
 500 477 500 477 500 448 c 0,44,45
 500 417 500 417 487 399 c 128,-1,46
 474 381 474 381 437 381 c 0,47,48
 405 381 405 381 327 383 c 2,49,-1
 275 384 l 1,50,51
 245 234 245 234 234 111 c 1,52,53
 265 108 265 108 307 108 c 0,54,29
 424 108 424 108 502.5 159.5 c 128,-1,30
EndSplineSet
Substitution2: "'ss02' Style Set 2 in Latin lookup 25 subtable" Eth.ss01
Substitution2: "'ss01' Style Set 1 in Latin lookup 24 subtable" Eth.ss01
Substitution2: "'salt' Stylistic Alternatives in Latin lookup 23 subtable" Eth.ss01
Substitution2: "'case' Case-Sensitive Forms in Latin lookup 21 subtable" Eth.ss01
Substitution2: "'aalt' Access All Alternates in Latin lookup 0 subtable" Eth.ss01
EndChar

StartChar: E
Encoding: 69 69 44
Width: 686
GlyphClass: 2
Flags: W
AnchorPoint: "Anchor-9" 0 0 basechar 0
AnchorPoint: "Anchor-8" 466 840 basechar 0
AnchorPoint: "Anchor-7" 506 10 basechar 0
AnchorPoint: "Anchor-6" 372 0 basechar 0
LayerCount: 2
Fore
SplineSet
780 188 m 0,1,2
 796 188 796 188 804 176 c 128,-1,3
 812 164 812 164 812 145 c 0,4,5
 812 115 812 115 797.5 94 c 128,-1,6
 783 73 783 73 748 56 c 0,7,8
 689 28 689 28 595 11.5 c 128,-1,9
 501 -5 501 -5 410 -5 c 0,10,11
 284 -5 284 -5 199 23.5 c 128,-1,12
 114 52 114 52 72.5 102 c 128,-1,13
 31 152 31 152 31 215 c 0,14,15
 31 301 31 301 86.5 361.5 c 128,-1,16
 142 422 142 422 250 449 c 1,17,18
 191 466 191 466 159.5 509 c 128,-1,19
 128 552 128 552 128 605 c 0,20,21
 128 677 128 677 173.5 732.5 c 128,-1,22
 219 788 219 788 296 818 c 128,-1,23
 373 848 373 848 465 848 c 0,24,25
 589 848 589 848 651 794.5 c 128,-1,26
 713 741 713 741 713 656 c 0,27,28
 713 597 713 597 691.5 560.5 c 128,-1,29
 670 524 670 524 630 524 c 0,30,31
 602 524 602 524 586 536.5 c 128,-1,32
 570 549 570 549 570 574 c 0,33,34
 570 591 570 591 575 611 c 0,35,36
 580 644 580 644 580 656 c 0,37,38
 580 692 580 692 553 714.5 c 128,-1,39
 526 737 526 737 463 737 c 0,40,41
 378 737 378 737 327 701 c 128,-1,42
 276 665 276 665 276 604 c 0,43,44
 276 557 276 557 314.5 526.5 c 128,-1,45
 353 496 353 496 440 493 c 0,46,47
 462 492 462 492 471 483 c 128,-1,48
 480 474 480 474 480 453 c 0,49,50
 480 387 480 387 420 386 c 0,51,52
 337 384 337 384 282.5 363 c 128,-1,53
 228 342 228 342 203.5 309.5 c 128,-1,54
 179 277 179 277 179 240 c 0,55,56
 179 178 179 178 237 146.5 c 128,-1,57
 295 115 295 115 421 115 c 0,58,59
 504 115 504 115 596.5 134.5 c 128,-1,60
 689 154 689 154 755 182 c 0,61,0
 770 188 770 188 780 188 c 0,1,2
EndSplineSet
Substitution2: "'ss02' Style Set 2 in Latin lookup 25 subtable" E.ss01
Substitution2: "'ss01' Style Set 1 in Latin lookup 24 subtable" E.ss01
Substitution2: "'salt' Stylistic Alternatives in Latin lookup 23 subtable" E.ss01
Substitution2: "'case' Case-Sensitive Forms in Latin lookup 21 subtable" E.ss01
Substitution2: "'aalt' Access All Alternates in Latin lookup 0 subtable" E.ss01
EndChar

StartChar: F
Encoding: 70 70 64
Width: 712
Flags: W
LayerCount: 2
Fore
SplineSet
925.5 812 m 128,-1,1
 936 799 936 799 936 778 c 0,2,3
 936 709 936 709 862 714 c 2,4,-1
 827 717 l 2,5,6
 768 722 768 722 709.5 725 c 128,-1,7
 651 728 651 728 587 728 c 2,8,-1
 542 728 l 1,9,10
 530 580 530 580 517 458 c 1,11,-1
 689 461 l 2,12,13
 726 461 726 461 738.5 448 c 128,-1,14
 751 435 751 435 751 413 c 0,15,16
 751 379 751 379 731 359.5 c 128,-1,17
 711 340 711 340 674 340 c 2,18,-1
 503 340 l 1,19,-1
 497 297 l 2,20,21
 476 132 476 132 407.5 62 c 128,-1,22
 339 -8 339 -8 219 -8 c 0,23,24
 151 -8 151 -8 94 21.5 c 128,-1,25
 37 51 37 51 10 93 c 0,26,27
 -1 110 -1 110 -1 134 c 256,28,29
 -1 158 -1 158 10.5 176 c 128,-1,30
 22 194 22 194 39 194 c 0,31,32
 51 194 51 194 62.5 186 c 128,-1,33
 74 178 74 178 92 155 c 0,34,35
 140 92 140 92 211 92 c 0,36,37
 268 92 268 92 306.5 138.5 c 128,-1,38
 345 185 345 185 356 285 c 2,39,-1
 362 340 l 1,40,-1
 314 340 l 2,41,42
 291 340 291 340 274.5 353 c 128,-1,43
 258 366 258 366 258 390 c 0,44,45
 258 421 258 421 274 437.5 c 128,-1,46
 290 454 290 454 321 454 c 0,47,48
 349 454 349 454 376 455 c 1,49,50
 388 565 388 565 402 722 c 1,51,52
 294 712 294 712 250 687 c 128,-1,53
 206 662 206 662 206 613 c 0,54,55
 206 579 206 579 226 548 c 0,56,57
 232 539 232 539 232 530 c 0,58,59
 232 512 232 512 212 498.5 c 128,-1,60
 192 485 192 485 167 485 c 0,61,62
 140 485 140 485 121 501 c 0,63,64
 109 511 109 511 98 542 c 128,-1,65
 87 573 87 573 87 611 c 0,66,67
 87 735 87 735 214.5 791 c 128,-1,68
 342 847 342 847 587 847 c 0,69,70
 757 847 757 847 887 829 c 0,71,0
 915 825 915 825 925.5 812 c 128,-1,1
EndSplineSet
Substitution2: "'ss02' Style Set 2 in Latin lookup 25 subtable" F.ss01
Substitution2: "'ss01' Style Set 1 in Latin lookup 24 subtable" F.ss01
Substitution2: "'salt' Stylistic Alternatives in Latin lookup 23 subtable" F.ss01
Substitution2: "'case' Case-Sensitive Forms in Latin lookup 21 subtable" F.ss01
Substitution2: "'aalt' Access All Alternates in Latin lookup 0 subtable" F.ss01
EndChar

StartChar: G
Encoding: 71 71 65
Width: 811
GlyphClass: 2
Flags: W
AnchorPoint: "Anchor-9" 0 0 basechar 0
AnchorPoint: "Anchor-8" 495 840 basechar 0
AnchorPoint: "Anchor-7" 0 0 basechar 0
AnchorPoint: "Anchor-6" 280 22 basechar 0
LayerCount: 2
Fore
SplineSet
912.5 208.5 m 128,-1,1
 920 196 920 196 920 177 c 0,2,3
 920 154 920 154 913 141 c 128,-1,4
 906 128 906 128 891 118 c 0,5,6
 832 79 832 79 703 -10 c 1,7,8
 664 -217 664 -217 602 -336 c 128,-1,9
 540 -455 540 -455 445 -455 c 0,10,11
 394 -455 394 -455 362 -423.5 c 128,-1,12
 330 -392 330 -392 330 -341 c 0,13,14
 330 -294 330 -294 351 -246 c 128,-1,15
 372 -198 372 -198 429.5 -135 c 128,-1,16
 487 -72 487 -72 592 9 c 1,17,-1
 595 28 l 1,18,19
 516 -5 516 -5 440 -5 c 0,20,21
 328 -5 328 -5 243 38.5 c 128,-1,22
 158 82 158 82 111 162 c 128,-1,23
 64 242 64 242 64 348 c 0,24,25
 64 496 64 496 120 609.5 c 128,-1,26
 176 723 176 723 274.5 785.5 c 128,-1,27
 373 848 373 848 495 848 c 0,28,29
 612 848 612 848 670.5 793.5 c 128,-1,30
 729 739 729 739 729 649 c 0,31,32
 729 590 729 590 707.5 554.5 c 128,-1,33
 686 519 686 519 646 519 c 0,34,35
 619 519 619 519 602.5 532 c 128,-1,36
 586 545 586 545 586 568 c 0,37,38
 586 578 586 578 590 602 c 0,39,40
 596 630 596 630 596 646 c 0,41,42
 596 688 596 688 570.5 711 c 128,-1,43
 545 734 545 734 485 734 c 0,44,45
 412 734 412 734 349.5 692 c 128,-1,46
 287 650 287 650 249 566.5 c 128,-1,47
 211 483 211 483 211 366 c 0,48,49
 211 246 211 246 276.5 180.5 c 128,-1,50
 342 115 342 115 466 115 c 0,51,52
 535 115 535 115 610 146 c 1,53,-1
 624 268 l 1,54,-1
 522 268 l 2,55,56
 494 268 494 268 479 281.5 c 128,-1,57
 464 295 464 295 464 326 c 0,58,59
 464 354 464 354 479 370 c 128,-1,60
 494 386 494 386 519 386 c 2,61,-1
 706 386 l 2,62,63
 728 386 728 386 742.5 371.5 c 128,-1,64
 757 357 757 357 754 330 c 0,65,66
 751 298 751 298 734 185 c 2,67,-1
 723 109 l 1,68,69
 803 169 803 169 869 213 c 0,70,71
 882 221 882 221 892 221 c 0,72,0
 905 221 905 221 912.5 208.5 c 128,-1,1
513 -299 m 128,-1,74
 544 -240 544 -240 571 -109 c 1,75,76
 495 -174 495 -174 461.5 -226.5 c 128,-1,77
 428 -279 428 -279 428 -319 c 0,78,79
 428 -358 428 -358 456 -358 c 0,80,73
 482 -358 482 -358 513 -299 c 128,-1,74
EndSplineSet
Substitution2: "'ss02' Style Set 2 in Latin lookup 25 subtable" G.ss01
Substitution2: "'ss01' Style Set 1 in Latin lookup 24 subtable" G.ss01
Substitution2: "'salt' Stylistic Alternatives in Latin lookup 23 subtable" G.ss01
Substitution2: "'case' Case-Sensitive Forms in Latin lookup 21 subtable" G.ss01
Substitution2: "'aalt' Access All Alternates in Latin lookup 0 subtable" G.ss01
EndChar

StartChar: H
Encoding: 72 72 71
Width: 873
GlyphClass: 2
Flags: W
AnchorPoint: "Anchor-9" 0 0 basechar 0
AnchorPoint: "Anchor-8" 529 840 basechar 0
AnchorPoint: "Anchor-7" 0 0 basechar 0
AnchorPoint: "Anchor-6" 452 0 basechar 0
LayerCount: 2
Fore
SplineSet
994.5 211 m 128,-1,1
 1002 199 1002 199 1002 178 c 0,2,3
 1002 139 1002 139 983 116 c 0,4,5
 884 -5 884 -5 772 -5 c 0,6,7
 675 -5 675 -5 617 70 c 128,-1,8
 559 145 559 145 559 285 c 0,9,10
 559 319 559 319 562 353 c 1,11,12
 496 341 496 341 418 335 c 0,13,14
 366 331 366 331 347 330 c 1,15,16
 327 228 327 228 291 80 c 0,17,18
 270 -7 270 -7 211 -7 c 0,19,20
 147 -7 147 -7 147 51 c 0,21,22
 147 64 147 64 152 87 c 0,23,24
 186 224 186 224 206 319 c 1,25,-1
 158 317 l 2,26,27
 125 317 125 317 110 328.5 c 128,-1,28
 95 340 95 340 95 366 c 0,29,30
 95 399 95 399 114 414.5 c 128,-1,31
 133 430 133 430 177 432 c 2,32,-1
 230 434 l 1,33,34
 256 575 256 575 256 649 c 0,35,36
 256 696 256 696 242 713 c 128,-1,37
 228 730 228 730 205 730 c 0,38,39
 135 730 135 730 47 613 c 0,40,41
 34 596 34 596 18 596 c 0,42,43
 4 596 4 596 -6 609 c 128,-1,44
 -16 622 -16 622 -16 642 c 0,45,46
 -16 673 -16 673 9 708 c 0,47,48
 53 769 53 769 120 808.5 c 128,-1,49
 187 848 187 848 256 848 c 0,50,51
 321 848 321 848 356.5 803.5 c 128,-1,52
 392 759 392 759 392 665 c 0,53,54
 392 582 392 582 368 440 c 1,55,-1
 466 445 l 2,56,57
 529 448 529 448 574 455 c 1,58,59
 592 565 592 565 629 661 c 128,-1,60
 666 757 666 757 721 817 c 128,-1,61
 776 877 776 877 844 877 c 0,62,63
 894 877 894 877 923 837.5 c 128,-1,64
 952 798 952 798 952 734 c 0,65,66
 952 486 952 486 699 390 c 1,67,68
 696 350 696 350 696 307 c 0,69,70
 696 202 696 202 722 158 c 128,-1,71
 748 114 748 114 795 114 c 0,72,73
 836 114 836 114 870 135.5 c 128,-1,74
 904 157 904 157 947 209 c 0,75,76
 959 223 959 223 974 223 c 0,77,0
 987 223 987 223 994.5 211 c 128,-1,1
792.5 750 m 128,-1,79
 768 710 768 710 746 641 c 128,-1,80
 724 572 724 572 711 490 c 1,81,82
 791 523 791 523 829 584 c 128,-1,83
 867 645 867 645 867 741 c 0,84,85
 867 764 867 764 859 777 c 128,-1,86
 851 790 851 790 839 790 c 0,87,78
 817 790 817 790 792.5 750 c 128,-1,79
EndSplineSet
Substitution2: "'ss02' Style Set 2 in Latin lookup 25 subtable" H.ss01
Substitution2: "'ss01' Style Set 1 in Latin lookup 24 subtable" H.ss01
Substitution2: "'salt' Stylistic Alternatives in Latin lookup 23 subtable" H.ss01
Substitution2: "'case' Case-Sensitive Forms in Latin lookup 21 subtable" H.ss01
Substitution2: "'aalt' Access All Alternates in Latin lookup 0 subtable" H.ss01
EndChar

StartChar: Hbar
Encoding: 294 294 72
Width: 856
Flags: W
LayerCount: 2
Fore
SplineSet
776 599 m 1,0,1
 769 546 769 546 758 491 c 1,2,-1
 787 491 l 2,3,4
 819 491 819 491 833.5 477 c 128,-1,5
 848 463 848 463 848 440 c 0,6,7
 848 406 848 406 830 388 c 128,-1,8
 812 370 812 370 763 370 c 2,9,-1
 738 370 l 1,10,-1
 736 357 l 2,11,12
 725 290 725 290 713.5 201.5 c 128,-1,13
 702 113 702 113 698 65 c 0,14,15
 695 28 695 28 676 11.5 c 128,-1,16
 657 -5 657 -5 623 -5 c 0,17,18
 554 -5 554 -5 554 55 c 0,19,20
 554 87 554 87 563.5 152.5 c 128,-1,21
 573 218 573 218 592 329 c 2,22,-1
 596 355 l 1,23,-1
 599 370 l 1,24,-1
 418 370 l 1,25,-1
 281 368 l 1,26,-1
 279 357 l 2,27,28
 268 290 268 290 256.5 201.5 c 128,-1,29
 245 113 245 113 241 65 c 0,30,31
 238 28 238 28 219 11.5 c 128,-1,32
 200 -5 200 -5 166 -5 c 0,33,34
 97 -5 97 -5 97 55 c 0,35,36
 97 87 97 87 106.5 152.5 c 128,-1,37
 116 218 116 218 135 329 c 2,38,-1
 139 355 l 1,39,-1
 141 365 l 1,40,-1
 109 364 l 2,41,42
 56 364 56 364 56 411 c 0,43,44
 56 447 56 447 75 465.5 c 128,-1,45
 94 484 94 484 140 484 c 2,46,-1
 162 484 l 1,47,-1
 162 486 l 1,48,49
 172 537 172 537 179 595 c 1,50,-1
 140 594 l 2,51,52
 88 594 88 594 88 634 c 0,53,54
 88 665 88 665 107 681 c 128,-1,55
 126 697 126 697 172 697 c 2,56,-1
 192 697 l 1,57,58
 199 750 199 750 200 778 c 0,59,60
 203 815 203 815 223 831.5 c 128,-1,61
 243 848 243 848 281 848 c 0,62,63
 344 848 344 848 344 788 c 0,64,65
 344 757 344 757 335 698 c 1,66,-1
 468 699 l 2,67,68
 535 699 535 699 649 701 c 1,69,70
 650 710 650 710 657 778 c 0,71,72
 660 815 660 815 680 831.5 c 128,-1,73
 700 848 700 848 738 848 c 0,74,75
 801 848 801 848 801 788 c 0,76,77
 801 761 801 761 793 703 c 1,78,-1
 819 703 l 2,79,80
 851 703 851 703 865.5 691 c 128,-1,81
 880 679 880 679 880 659 c 0,82,83
 880 630 880 630 862 614.5 c 128,-1,84
 844 599 844 599 795 599 c 2,85,-1
 776 599 l 1,0,1
636 599 m 1,87,-1
 450 599 l 1,88,-1
 319 598 l 1,89,-1
 301 488 l 1,90,-1
 300 485 l 1,91,-1
 436 486 l 1,92,-1
 619 489 l 1,93,86
 628 538 628 538 636 599 c 1,87,-1
EndSplineSet
Substitution2: "'ss02' Style Set 2 in Latin lookup 25 subtable" Hbar.ss01
Substitution2: "'ss01' Style Set 1 in Latin lookup 24 subtable" Hbar.ss01
Substitution2: "'salt' Stylistic Alternatives in Latin lookup 23 subtable" Hbar.ss01
Substitution2: "'case' Case-Sensitive Forms in Latin lookup 21 subtable" Hbar.ss01
Substitution2: "'aalt' Access All Alternates in Latin lookup 0 subtable" Hbar.ss01
EndChar

StartChar: I
Encoding: 73 73 74
Width: 495
GlyphClass: 2
Flags: W
AnchorPoint: "Anchor-9" 0 0 basechar 0
AnchorPoint: "Anchor-8" 338 840 basechar 0
AnchorPoint: "Anchor-7" 274 10 basechar 0
AnchorPoint: "Anchor-6" 221 0 basechar 0
LayerCount: 2
Fore
SplineSet
538 829.5 m 128,-1,1
 556 817 556 817 556 799 c 0,2,3
 556 767 556 767 536 747.5 c 128,-1,4
 516 728 516 728 479 728 c 0,5,6
 421 728 421 728 391 727 c 1,7,8
 389 715 389 715 373 619 c 0,9,10
 355 512 355 512 351 488 c 2,11,-1
 330 357 l 2,12,13
 308 210 308 210 295 111 c 1,14,15
 316 112 316 112 352 112 c 0,16,17
 405 112 405 112 424 98 c 128,-1,18
 443 84 443 84 443 56 c 0,19,20
 443 30 443 30 422.5 12 c 128,-1,21
 402 -6 402 -6 365 -6 c 0,22,23
 340 -6 340 -6 286 -4 c 0,24,25
 236 -2 236 -2 220 -2 c 0,26,27
 157 -2 157 -2 82 -13 c 0,28,29
 49 -18 49 -18 35 -18 c 0,30,31
 13 -18 13 -18 -2 -6 c 128,-1,32
 -17 6 -17 6 -17 29 c 0,33,34
 -17 65 -17 65 15 85 c 128,-1,35
 47 105 47 105 105 106 c 2,36,-1
 152 107 l 1,37,-1
 155 129 l 2,38,39
 179 289 179 289 190 355 c 2,40,-1
 212 486 l 2,41,42
 232 602 232 602 248 725 c 1,43,-1
 164 724 l 2,44,45
 128 724 128 724 114.5 735.5 c 128,-1,46
 101 747 101 747 101 768 c 0,47,48
 101 836 101 836 199 841 c 0,49,50
 245 843 245 843 311 843 c 2,51,-1
 494 842 l 2,52,0
 520 842 520 842 538 829.5 c 128,-1,1
EndSplineSet
Substitution2: "'ss02' Style Set 2 in Latin lookup 25 subtable" I.ss01
Substitution2: "'ss01' Style Set 1 in Latin lookup 24 subtable" I.ss01
Substitution2: "'salt' Stylistic Alternatives in Latin lookup 23 subtable" I.ss01
Substitution2: "'case' Case-Sensitive Forms in Latin lookup 21 subtable" I.ss01
Substitution2: "'aalt' Access All Alternates in Latin lookup 0 subtable" I.ss01
EndChar

StartChar: J
Encoding: 74 74 88
Width: 743
GlyphClass: 2
Flags: W
AnchorPoint: "Anchor-9" 0 0 basechar 0
AnchorPoint: "Anchor-8" 439 840 basechar 0
AnchorPoint: "Anchor-7" 0 0 basechar 0
AnchorPoint: "Anchor-6" 322 -107 basechar 0
LayerCount: 2
Fore
SplineSet
753.5 722 m 128,-1,1
 741 707 741 707 713 707 c 1,2,3
 711 686 711 686 704 634 c 0,4,5
 694 564 694 564 693 556 c 0,6,7
 604 -107 604 -107 322 -107 c 0,8,9
 239 -107 239 -107 192.5 -60 c 128,-1,10
 146 -13 146 -13 146 58 c 0,11,12
 146 185 146 185 254 282.5 c 128,-1,13
 362 380 362 380 538 444 c 1,14,15
 549 515 549 515 555 571 c 2,16,-1
 573 722 l 1,17,18
 513 728 513 728 461 728 c 0,19,20
 322 728 322 728 256 701 c 128,-1,21
 190 674 190 674 190 613 c 0,22,23
 190 583 190 583 210 548 c 0,24,25
 216 538 216 538 216 527 c 0,26,27
 216 506 216 506 194.5 489.5 c 128,-1,28
 173 473 173 473 148 473 c 0,29,30
 116 473 116 473 99 500 c 0,31,32
 71 546 71 546 71 607 c 0,33,34
 71 847 71 847 491 847 c 0,35,36
 613 847 613 847 709 823 c 0,37,38
 766 809 766 809 766 767 c 0,39,0
 766 737 766 737 753.5 722 c 128,-1,1
433 74 m 128,-1,41
 482 148 482 148 519 333 c 1,42,43
 275 226 275 226 275 71 c 0,44,45
 275 37 275 37 291 18.5 c 128,-1,46
 307 0 307 0 335 0 c 0,47,40
 384 0 384 0 433 74 c 128,-1,41
EndSplineSet
Substitution2: "'ss02' Style Set 2 in Latin lookup 25 subtable" J.ss01
Substitution2: "'ss01' Style Set 1 in Latin lookup 24 subtable" J.ss01
Substitution2: "'salt' Stylistic Alternatives in Latin lookup 23 subtable" J.ss01
Substitution2: "'case' Case-Sensitive Forms in Latin lookup 21 subtable" J.ss01
Substitution2: "'aalt' Access All Alternates in Latin lookup 0 subtable" J.ss01
EndChar

StartChar: K
Encoding: 75 75 90
Width: 937
GlyphClass: 2
Flags: W
AnchorPoint: "Anchor-9" 0 0 basechar 0
AnchorPoint: "Anchor-8" 644 840 basechar 0
AnchorPoint: "Anchor-7" 0 0 basechar 0
AnchorPoint: "Anchor-6" 514 0 basechar 0
LayerCount: 2
Fore
SplineSet
1058.5 211 m 128,-1,1
 1066 199 1066 199 1066 178 c 0,2,3
 1066 139 1066 139 1047 116 c 0,4,5
 999 58 999 58 950 26.5 c 128,-1,6
 901 -5 901 -5 834 -5 c 0,7,8
 760 -5 760 -5 713 38.5 c 128,-1,9
 666 82 666 82 625 174 c 0,10,11
 595 240 595 240 575.5 272.5 c 128,-1,12
 556 305 556 305 537 318.5 c 128,-1,13
 518 332 518 332 489 335 c 1,14,-1
 478 261 l 2,15,16
 457 118 457 118 396.5 55 c 128,-1,17
 336 -8 336 -8 230 -8 c 0,18,19
 161 -8 161 -8 107.5 25.5 c 128,-1,20
 54 59 54 59 33 111 c 0,21,22
 26 129 26 129 26 150 c 0,23,24
 26 180 26 180 40 202 c 128,-1,25
 54 224 54 224 76 224 c 0,26,27
 89 224 89 224 98 217.5 c 128,-1,28
 107 211 107 211 115 195 c 0,29,30
 146 137 146 137 169.5 114 c 128,-1,31
 193 91 193 91 228 91 c 0,32,33
 268 91 268 91 296.5 127.5 c 128,-1,34
 325 164 325 164 337 240 c 2,35,-1
 351 335 l 1,36,-1
 335 335 l 2,37,38
 312 335 312 335 299 348 c 128,-1,39
 286 361 286 361 286 384 c 0,40,41
 286 410 286 410 299.5 425.5 c 128,-1,42
 313 441 313 441 333 441 c 2,43,-1
 366 441 l 1,44,45
 373 490 373 490 376 509 c 2,46,-1
 407 734 l 1,47,48
 381 737 381 737 358 737 c 0,49,50
 273 737 273 737 229 707.5 c 128,-1,51
 185 678 185 678 185 623 c 0,52,53
 185 598 185 598 190.5 582.5 c 128,-1,54
 196 567 196 567 205 548 c 0,55,56
 209 540 209 540 209 530 c 0,57,58
 209 508 209 508 188.5 491.5 c 128,-1,59
 168 475 168 475 143 475 c 0,60,61
 111 475 111 475 96 503 c 0,62,63
 66 556 66 556 66 617 c 0,64,65
 66 680 66 680 100.5 732 c 128,-1,66
 135 784 135 784 205 815.5 c 128,-1,67
 275 847 275 847 378 847 c 0,68,69
 423 847 423 847 460.5 842 c 128,-1,70
 498 837 498 837 543 823 c 0,71,72
 592 808 592 808 592 767 c 0,73,74
 592 712 592 712 545 712 c 1,75,-1
 506 443 l 1,76,77
 623 455 623 455 696.5 543.5 c 128,-1,78
 770 632 770 632 819 784 c 0,79,80
 828 812 828 812 849.5 827 c 128,-1,81
 871 842 871 842 904 842 c 0,82,83
 932 842 932 842 947.5 829.5 c 128,-1,84
 963 817 963 817 963 794 c 0,85,86
 963 787 963 787 959 771 c 0,87,88
 909 606 909 606 816 509 c 128,-1,89
 723 412 723 412 613 380 c 1,90,91
 651 371 651 371 675.5 353 c 128,-1,92
 700 335 700 335 717 308.5 c 128,-1,93
 734 282 734 282 756 235 c 0,94,95
 787 169 787 169 814 141.5 c 128,-1,96
 841 114 841 114 877 114 c 0,97,98
 909 114 909 114 938 135.5 c 128,-1,99
 967 157 967 157 1011 209 c 0,100,101
 1023 223 1023 223 1038 223 c 0,102,0
 1051 223 1051 223 1058.5 211 c 128,-1,1
EndSplineSet
Substitution2: "'ss02' Style Set 2 in Latin lookup 25 subtable" K.ss01
Substitution2: "'ss01' Style Set 1 in Latin lookup 24 subtable" K.ss01
Substitution2: "'salt' Stylistic Alternatives in Latin lookup 23 subtable" K.ss01
Substitution2: "'case' Case-Sensitive Forms in Latin lookup 21 subtable" K.ss01
Substitution2: "'aalt' Access All Alternates in Latin lookup 0 subtable" K.ss01
EndChar

StartChar: L
Encoding: 76 76 92
Width: 673
GlyphClass: 2
Flags: W
AnchorPoint: "Anchor-9" 778 840 basechar 0
AnchorPoint: "Anchor-8" 503 840 basechar 0
AnchorPoint: "Anchor-7" 0 0 basechar 0
AnchorPoint: "Anchor-6" 329 0 basechar 0
LayerCount: 2
Fore
SplineSet
794.5 211 m 128,-1,1
 802 199 802 199 802 178 c 0,2,3
 802 139 802 139 783 116 c 0,4,5
 727 49 727 49 674.5 22 c 128,-1,6
 622 -5 622 -5 548 -5 c 0,7,8
 496 -5 496 -5 452 8 c 128,-1,9
 408 21 408 21 345 47 c 0,10,11
 288 72 288 72 235 88 c 1,12,13
 184 -5 184 -5 82 -5 c 0,14,15
 26 -5 26 -5 -7.5 20.5 c 128,-1,16
 -41 46 -41 46 -41 86 c 0,17,18
 -41 135 -41 135 6 167.5 c 128,-1,19
 53 200 53 200 131 200 c 2,20,-1
 144 200 l 1,21,-1
 162 491 l 2,22,23
 168 591 168 591 198 656 c 128,-1,24
 228 721 228 721 281 767 c 0,25,26
 327 807 327 807 386 827.5 c 128,-1,27
 445 848 445 848 511 848 c 0,28,29
 619 848 619 848 677 792 c 128,-1,30
 735 736 735 736 735 646 c 0,31,32
 735 585 735 585 713 547.5 c 128,-1,33
 691 510 691 510 652 510 c 0,34,35
 624 510 624 510 608 523.5 c 128,-1,36
 592 537 592 537 592 562 c 0,37,38
 592 571 592 571 596 595 c 0,39,40
 602 623 602 623 602 645 c 0,41,42
 602 687 602 687 577.5 711.5 c 128,-1,43
 553 736 553 736 503 736 c 0,44,45
 415 736 415 736 367 678.5 c 128,-1,46
 319 621 319 621 306 498 c 2,47,-1
 283 271 l 2,48,49
 278 223 278 223 270 188 c 1,50,51
 334 177 334 177 430 153 c 0,52,53
 486 139 486 139 516 133 c 128,-1,54
 546 127 546 127 569 127 c 0,55,56
 627 127 627 127 668.5 146.5 c 128,-1,57
 710 166 710 166 747 209 c 0,58,59
 759 223 759 223 774 223 c 0,60,0
 787 223 787 223 794.5 211 c 128,-1,1
EndSplineSet
Substitution2: "'ss02' Style Set 2 in Latin lookup 25 subtable" L.ss01
Substitution2: "'ss01' Style Set 1 in Latin lookup 24 subtable" L.ss01
Substitution2: "'salt' Stylistic Alternatives in Latin lookup 23 subtable" L.ss01
Substitution2: "'case' Case-Sensitive Forms in Latin lookup 21 subtable" L.ss01
Substitution2: "'aalt' Access All Alternates in Latin lookup 0 subtable" L.ss01
EndChar

StartChar: uni01C7
Encoding: 455 455 93
Width: 1276
Flags: W
LayerCount: 2
Fore
SplineSet
1286.5 722 m 128,-1,1
 1274 707 1274 707 1246 707 c 1,2,3
 1244 686 1244 686 1237 634 c 0,4,5
 1227 564 1227 564 1226 556 c 0,6,7
 1137 -107 1137 -107 855 -107 c 0,8,9
 782 -107 782 -107 737 -70.5 c 128,-1,10
 692 -34 692 -34 682 26 c 1,11,12
 626 -5 626 -5 548 -5 c 0,13,14
 496 -5 496 -5 452 8 c 128,-1,15
 408 21 408 21 345 47 c 0,16,17
 288 72 288 72 235 88 c 1,18,19
 184 -5 184 -5 82 -5 c 0,20,21
 26 -5 26 -5 -7.5 20.5 c 128,-1,22
 -41 46 -41 46 -41 86 c 0,23,24
 -41 135 -41 135 6 167.5 c 128,-1,25
 53 200 53 200 131 200 c 2,26,-1
 144 200 l 1,27,-1
 163 511 l 2,28,29
 169 611 169 611 212 687.5 c 128,-1,30
 255 764 255 764 326 806 c 128,-1,31
 397 848 397 848 487 848 c 0,32,33
 552 848 552 848 599 822 c 128,-1,34
 646 796 646 796 670.5 750 c 128,-1,35
 695 704 695 704 695 646 c 0,36,37
 695 585 695 585 673 547.5 c 128,-1,38
 651 510 651 510 612 510 c 0,39,40
 584 510 584 510 568 523.5 c 128,-1,41
 552 537 552 537 552 562 c 0,42,43
 552 571 552 571 556 595 c 0,44,45
 562 623 562 623 562 645 c 0,46,47
 562 686 562 686 540 711 c 128,-1,48
 518 736 518 736 476 736 c 0,49,50
 408 736 408 736 363.5 680.5 c 128,-1,51
 319 625 319 625 308 518 c 2,52,-1
 283 271 l 2,53,54
 278 223 278 223 270 188 c 1,55,56
 334 177 334 177 430 153 c 0,57,58
 486 139 486 139 516 133 c 128,-1,59
 546 127 546 127 569 127 c 0,60,61
 648 127 648 127 702 165 c 1,62,63
 740 254 740 254 837.5 324 c 128,-1,64
 935 394 935 394 1071 444 c 1,65,66
 1082 515 1082 515 1088 571 c 2,67,-1
 1106 722 l 1,68,69
 1055 728 1055 728 1034 728 c 0,70,71
 964 728 964 728 913.5 699 c 128,-1,72
 863 670 863 670 863 613 c 0,73,74
 863 583 863 583 883 548 c 0,75,76
 889 538 889 538 889 527 c 0,77,78
 889 506 889 506 867.5 489.5 c 128,-1,79
 846 473 846 473 821 473 c 0,80,81
 789 473 789 473 772 500 c 0,82,83
 744 546 744 546 744 607 c 0,84,85
 744 689 744 689 790 743 c 128,-1,86
 836 797 836 797 908.5 822 c 128,-1,87
 981 847 981 847 1064 847 c 0,88,89
 1096 847 1096 847 1146.5 840.5 c 128,-1,90
 1197 834 1197 834 1242 823 c 0,91,92
 1299 809 1299 809 1299 767 c 0,93,0
 1299 737 1299 737 1286.5 722 c 128,-1,1
966 74 m 128,-1,95
 1015 148 1015 148 1052 333 c 1,96,97
 808 226 808 226 808 71 c 0,98,99
 808 37 808 37 824 18.5 c 128,-1,100
 840 0 840 0 868 0 c 0,101,94
 917 0 917 0 966 74 c 128,-1,95
EndSplineSet
Substitution2: "'ss02' Style Set 2 in Latin lookup 25 subtable" uni01C7.ss01
Substitution2: "'ss01' Style Set 1 in Latin lookup 24 subtable" uni01C7.ss01
Substitution2: "'salt' Stylistic Alternatives in Latin lookup 23 subtable" uni01C7.ss01
Substitution2: "'case' Case-Sensitive Forms in Latin lookup 21 subtable" uni01C7.ss01
Substitution2: "'aalt' Access All Alternates in Latin lookup 0 subtable" uni01C7.ss01
EndChar

StartChar: Lslash
Encoding: 321 321 99
Width: 673
Flags: W
LayerCount: 2
Fore
SplineSet
249.5 857.5 m 128,-1,1
 238 870 238 870 238 887 c 0,2,3
 238 911 238 911 253 928 c 128,-1,4
 268 945 268 945 314 964 c 0,5,6
 363 984 363 984 431.5 998.5 c 128,-1,7
 500 1013 500 1013 574 1013 c 0,8,9
 670 1013 670 1013 716 992 c 128,-1,10
 762 971 762 971 762 942 c 0,11,12
 762 920 762 920 747.5 908 c 128,-1,13
 733 896 733 896 709 896 c 0,14,15
 702 896 702 896 672 900 c 0,16,17
 667 901 667 901 639 904.5 c 128,-1,18
 611 908 611 908 576 908 c 0,19,20
 503 908 503 908 451.5 895.5 c 128,-1,21
 400 883 400 883 341 862 c 0,22,23
 298 845 298 845 282 845 c 0,24,0
 261 845 261 845 249.5 857.5 c 128,-1,1
794.5 211 m 128,-1,26
 802 199 802 199 802 178 c 0,27,28
 802 139 802 139 783 116 c 0,29,30
 727 49 727 49 674.5 22 c 128,-1,31
 622 -5 622 -5 548 -5 c 0,32,33
 496 -5 496 -5 452 8 c 128,-1,34
 408 21 408 21 345 47 c 0,35,36
 288 72 288 72 235 88 c 1,37,38
 184 -5 184 -5 82 -5 c 0,39,40
 26 -5 26 -5 -7.5 20.5 c 128,-1,41
 -41 46 -41 46 -41 86 c 0,42,43
 -41 135 -41 135 6 167.5 c 128,-1,44
 53 200 53 200 131 200 c 2,45,-1
 144 200 l 1,46,-1
 162 491 l 2,47,48
 168 577 168 577 198.5 639.5 c 128,-1,49
 229 702 229 702 281 747 c 0,50,51
 327 787 327 787 386 807.5 c 128,-1,52
 445 828 445 828 511 828 c 0,53,54
 619 828 619 828 677 772 c 128,-1,55
 735 716 735 716 735 626 c 0,56,57
 735 565 735 565 713 527.5 c 128,-1,58
 691 490 691 490 652 490 c 0,59,60
 624 490 624 490 608 503.5 c 128,-1,61
 592 517 592 517 592 542 c 0,62,63
 592 551 592 551 596 575 c 0,64,65
 602 603 602 603 602 625 c 0,66,67
 602 667 602 667 577.5 691.5 c 128,-1,68
 553 716 553 716 503 716 c 0,69,70
 328 716 328 716 306 498 c 2,71,-1
 283 271 l 2,72,73
 278 223 278 223 270 188 c 1,74,75
 334 177 334 177 430 153 c 0,76,77
 486 139 486 139 516 133 c 128,-1,78
 546 127 546 127 569 127 c 0,79,80
 627 127 627 127 668.5 146.5 c 128,-1,81
 710 166 710 166 747 209 c 0,82,83
 759 223 759 223 774 223 c 0,84,25
 787 223 787 223 794.5 211 c 128,-1,26
EndSplineSet
Substitution2: "'ss02' Style Set 2 in Latin lookup 25 subtable" Lslash.ss01
Substitution2: "'ss01' Style Set 1 in Latin lookup 24 subtable" Lslash.ss01
Substitution2: "'salt' Stylistic Alternatives in Latin lookup 23 subtable" Lslash.ss01
Substitution2: "'case' Case-Sensitive Forms in Latin lookup 21 subtable" Lslash.ss01
Substitution2: "'aalt' Access All Alternates in Latin lookup 0 subtable" Lslash.ss01
EndChar

StartChar: M
Encoding: 77 77 100
Width: 1232
GlyphClass: 2
Flags: W
AnchorPoint: "Anchor-9" 0 0 basechar 0
AnchorPoint: "Anchor-8" 732 840 basechar 0
AnchorPoint: "Anchor-7" 0 0 basechar 0
AnchorPoint: "Anchor-6" 628 0 basechar 0
LayerCount: 2
Fore
SplineSet
179 11.5 m 128,-1,1
 163 28 163 28 163 74 c 0,2,3
 163 105 163 105 169.5 153.5 c 128,-1,4
 176 202 176 202 191 287 c 0,5,6
 217 444 217 444 232 559 c 0,7,8
 241 631 241 631 241 679 c 0,9,10
 241 724 241 724 208 724 c 0,11,12
 182 724 182 724 145.5 697.5 c 128,-1,13
 109 671 109 671 65 613 c 0,14,15
 51 594 51 594 34 594 c 0,16,17
 20 594 20 594 9.5 607.5 c 128,-1,18
 -1 621 -1 621 -1 638 c 0,19,20
 -1 654 -1 654 5.5 670.5 c 128,-1,21
 12 687 12 687 27 708 c 0,22,23
 75 775 75 775 134 811.5 c 128,-1,24
 193 848 193 848 252 848 c 0,25,26
 307 848 307 848 336.5 813 c 128,-1,27
 366 778 366 778 366 711 c 0,28,29
 366 684 366 684 361 647.5 c 128,-1,30
 356 611 356 611 352 588 c 128,-1,31
 348 565 348 565 346 556 c 1,32,33
 403 719 403 719 474 783.5 c 128,-1,34
 545 848 545 848 630 848 c 0,35,36
 695 848 695 848 732.5 802 c 128,-1,37
 770 756 770 756 770 672 c 0,38,39
 770 639 770 639 761 590 c 1,40,41
 811 728 811 728 878 788 c 128,-1,42
 945 848 945 848 1032 848 c 0,43,44
 1102 848 1102 848 1139.5 803 c 128,-1,45
 1177 758 1177 758 1177 677 c 0,46,47
 1177 633 1177 633 1164 570 c 2,48,-1
 1103 284 l 2,49,50
 1093 234 1093 234 1093 198 c 0,51,52
 1093 156 1093 156 1112.5 135 c 128,-1,53
 1132 114 1132 114 1167 114 c 0,54,55
 1200 114 1200 114 1231.5 136 c 128,-1,56
 1263 158 1263 158 1306 209 c 0,57,58
 1318 223 1318 223 1333 223 c 0,59,60
 1346 223 1346 223 1353.5 211 c 128,-1,61
 1361 199 1361 199 1361 178 c 0,62,63
 1361 139 1361 139 1342 116 c 0,64,65
 1290 53 1290 53 1239 24 c 128,-1,66
 1188 -5 1188 -5 1132 -5 c 0,67,68
 1047 -5 1047 -5 999 45.5 c 128,-1,69
 951 96 951 96 951 181 c 0,70,71
 951 240 951 240 975 352 c 2,72,-1
 1015 535 l 2,73,74
 1017 544 1017 544 1022 567 c 128,-1,75
 1027 590 1027 590 1030 610.5 c 128,-1,76
 1033 631 1033 631 1033 651 c 0,77,78
 1033 686 1033 686 1019.5 703.5 c 128,-1,79
 1006 721 1006 721 981 721 c 0,80,81
 934 721 934 721 882.5 660.5 c 128,-1,82
 831 600 831 600 784.5 460 c 128,-1,83
 738 320 738 320 709 96 c 0,84,85
 702 36 702 36 684.5 15.5 c 128,-1,86
 667 -5 667 -5 628 -5 c 0,87,88
 594 -5 594 -5 578.5 11 c 128,-1,89
 563 27 563 27 563 71 c 0,90,91
 563 112 563 112 574 178.5 c 128,-1,92
 585 245 585 245 602 335 c 0,93,94
 648 577 648 577 648 647 c 0,95,96
 648 685 648 685 633.5 703 c 128,-1,97
 619 721 619 721 590 721 c 0,98,99
 541 721 541 721 489 665.5 c 128,-1,100
 437 610 437 610 387.5 468.5 c 128,-1,101
 338 327 338 327 305 86 c 0,102,103
 298 35 298 35 284.5 15 c 128,-1,104
 271 -5 271 -5 232 -5 c 0,105,0
 195 -5 195 -5 179 11.5 c 128,-1,1
EndSplineSet
Substitution2: "'ss02' Style Set 2 in Latin lookup 25 subtable" M.ss01
Substitution2: "'ss01' Style Set 1 in Latin lookup 24 subtable" M.ss01
Substitution2: "'salt' Stylistic Alternatives in Latin lookup 23 subtable" M.ss01
Substitution2: "'case' Case-Sensitive Forms in Latin lookup 21 subtable" M.ss01
Substitution2: "'aalt' Access All Alternates in Latin lookup 0 subtable" M.ss01
EndChar

StartChar: N
Encoding: 78 78 101
Width: 884
GlyphClass: 2
Flags: W
AnchorPoint: "Anchor-9" 0 0 basechar 0
AnchorPoint: "Anchor-8" 551 840 basechar 0
AnchorPoint: "Anchor-7" 0 0 basechar 0
AnchorPoint: "Anchor-6" 437 0 basechar 0
LayerCount: 2
Fore
SplineSet
179 11.5 m 128,-1,1
 163 28 163 28 163 74 c 0,2,3
 163 105 163 105 169 149 c 128,-1,4
 175 193 175 193 190 282 c 0,5,6
 192 294 192 294 206 379.5 c 128,-1,7
 220 465 220 465 231 559 c 0,8,9
 241 639 241 639 241 679 c 0,10,11
 241 724 241 724 208 724 c 0,12,13
 183 724 183 724 145.5 697.5 c 128,-1,14
 108 671 108 671 65 613 c 0,15,16
 51 594 51 594 34 594 c 0,17,18
 20 594 20 594 9.5 607.5 c 128,-1,19
 -1 621 -1 621 -1 638 c 256,20,21
 -1 655 -1 655 5 670.5 c 128,-1,22
 11 686 11 686 27 708 c 0,23,24
 76 775 76 775 136 811.5 c 128,-1,25
 196 848 196 848 262 848 c 0,26,27
 317 848 317 848 344.5 814 c 128,-1,28
 372 780 372 780 372 715 c 0,29,30
 372 657 372 657 356 547 c 1,31,32
 406 695 406 695 483 771.5 c 128,-1,33
 560 848 560 848 664 848 c 0,34,35
 746 848 746 848 787.5 801.5 c 128,-1,36
 829 755 829 755 829 677 c 0,37,38
 829 633 829 633 816 570 c 2,39,-1
 755 284 l 2,40,41
 745 234 745 234 745 198 c 0,42,43
 745 156 745 156 764.5 135 c 128,-1,44
 784 114 784 114 819 114 c 0,45,46
 852 114 852 114 883.5 136 c 128,-1,47
 915 158 915 158 958 209 c 0,48,49
 970 223 970 223 985 223 c 0,50,51
 998 223 998 223 1005.5 211 c 128,-1,52
 1013 199 1013 199 1013 178 c 0,53,54
 1013 139 1013 139 994 116 c 0,55,56
 942 53 942 53 891 24 c 128,-1,57
 840 -5 840 -5 784 -5 c 0,58,59
 699 -5 699 -5 651 45.5 c 128,-1,60
 603 96 603 96 603 181 c 0,61,62
 603 214 603 214 608.5 253 c 128,-1,63
 614 292 614 292 627 352 c 2,64,-1
 667 535 l 2,65,66
 669 544 669 544 674 567 c 128,-1,67
 679 590 679 590 682 610.5 c 128,-1,68
 685 631 685 631 685 651 c 0,69,70
 685 683 685 683 667 702 c 128,-1,71
 649 721 649 721 616 721 c 0,72,73
 556 721 556 721 496 657 c 128,-1,74
 436 593 436 593 385 450.5 c 128,-1,75
 334 308 334 308 305 86 c 0,76,77
 298 35 298 35 284.5 15 c 128,-1,78
 271 -5 271 -5 232 -5 c 0,79,0
 195 -5 195 -5 179 11.5 c 128,-1,1
EndSplineSet
Substitution2: "'ss02' Style Set 2 in Latin lookup 25 subtable" N.ss01
Substitution2: "'ss01' Style Set 1 in Latin lookup 24 subtable" N.ss01
Substitution2: "'salt' Stylistic Alternatives in Latin lookup 23 subtable" N.ss01
Substitution2: "'case' Case-Sensitive Forms in Latin lookup 21 subtable" N.ss01
Substitution2: "'aalt' Access All Alternates in Latin lookup 0 subtable" N.ss01
EndChar

StartChar: uni01CA
Encoding: 458 458 102
Width: 1497
GlyphClass: 2
Flags: W
AnchorPoint: "Anchor-9" 0 0 basechar 0
AnchorPoint: "Anchor-8" 551 840 basechar 0
AnchorPoint: "Anchor-7" 0 0 basechar 0
AnchorPoint: "Anchor-6" 437 0 basechar 0
LayerCount: 2
Fore
SplineSet
1507.5 722 m 128,-1,1
 1495 707 1495 707 1467 707 c 1,2,3
 1465 686 1465 686 1458 634 c 0,4,5
 1448 564 1448 564 1447 556 c 0,6,7
 1358 -107 1358 -107 1076 -107 c 0,8,9
 1001 -107 1001 -107 956 -68.5 c 128,-1,10
 911 -30 911 -30 902 31 c 1,11,12
 847 -5 847 -5 784 -5 c 0,13,14
 699 -5 699 -5 651 45.5 c 128,-1,15
 603 96 603 96 603 181 c 0,16,17
 603 214 603 214 608.5 253 c 128,-1,18
 614 292 614 292 627 352 c 2,19,-1
 667 535 l 2,20,21
 669 544 669 544 674 567 c 128,-1,22
 679 590 679 590 682 610.5 c 128,-1,23
 685 631 685 631 685 651 c 0,24,25
 685 683 685 683 667 702 c 128,-1,26
 649 721 649 721 616 721 c 0,27,28
 556 721 556 721 496 657 c 128,-1,29
 436 593 436 593 385 450.5 c 128,-1,30
 334 308 334 308 305 86 c 0,31,32
 298 35 298 35 284.5 15 c 128,-1,33
 271 -5 271 -5 232 -5 c 0,34,35
 195 -5 195 -5 179 11.5 c 128,-1,36
 163 28 163 28 163 74 c 0,37,38
 163 105 163 105 169 149 c 128,-1,39
 175 193 175 193 190 282 c 0,40,41
 192 294 192 294 206 379.5 c 128,-1,42
 220 465 220 465 231 559 c 0,43,44
 241 639 241 639 241 679 c 0,45,46
 241 724 241 724 208 724 c 0,47,48
 183 724 183 724 145.5 697.5 c 128,-1,49
 108 671 108 671 65 613 c 0,50,51
 51 594 51 594 34 594 c 0,52,53
 20 594 20 594 9.5 607.5 c 128,-1,54
 -1 621 -1 621 -1 638 c 256,55,56
 -1 655 -1 655 5 670.5 c 128,-1,57
 11 686 11 686 27 708 c 0,58,59
 76 775 76 775 136 811.5 c 128,-1,60
 196 848 196 848 262 848 c 0,61,62
 317 848 317 848 344.5 814 c 128,-1,63
 372 780 372 780 372 715 c 0,64,65
 372 657 372 657 356 547 c 1,66,67
 406 695 406 695 483 771.5 c 128,-1,68
 560 848 560 848 664 848 c 0,69,70
 746 848 746 848 787.5 801.5 c 128,-1,71
 829 755 829 755 829 677 c 0,72,73
 829 633 829 633 816 570 c 2,74,-1
 755 284 l 2,75,76
 745 234 745 234 745 198 c 0,77,78
 745 156 745 156 764.5 135 c 128,-1,79
 784 114 784 114 819 114 c 0,80,81
 845 114 845 114 870.5 128 c 128,-1,82
 896 142 896 142 926 173 c 1,83,84
 967 259 967 259 1063.5 327.5 c 128,-1,85
 1160 396 1160 396 1292 444 c 1,86,87
 1303 515 1303 515 1309 571 c 2,88,-1
 1327 722 l 1,89,90
 1267 728 1267 728 1215 728 c 0,91,92
 1124 728 1124 728 1069 699.5 c 128,-1,93
 1014 671 1014 671 1014 613 c 0,94,95
 1014 583 1014 583 1034 548 c 0,96,97
 1040 538 1040 538 1040 527 c 0,98,99
 1040 506 1040 506 1018.5 489.5 c 128,-1,100
 997 473 997 473 972 473 c 0,101,102
 940 473 940 473 923 500 c 0,103,104
 895 546 895 546 895 607 c 0,105,106
 895 729 895 729 994 788 c 128,-1,107
 1093 847 1093 847 1245 847 c 0,108,109
 1367 847 1367 847 1463 823 c 0,110,111
 1520 809 1520 809 1520 767 c 0,112,0
 1520 737 1520 737 1507.5 722 c 128,-1,1
1187 74 m 128,-1,114
 1236 148 1236 148 1273 333 c 1,115,116
 1029 226 1029 226 1029 71 c 0,117,118
 1029 37 1029 37 1045 18.5 c 128,-1,119
 1061 0 1061 0 1089 0 c 0,120,113
 1138 0 1138 0 1187 74 c 128,-1,114
EndSplineSet
Substitution2: "'ss02' Style Set 2 in Latin lookup 25 subtable" uni01CA.ss01
Substitution2: "'ss01' Style Set 1 in Latin lookup 24 subtable" uni01CA.ss01
Substitution2: "'salt' Stylistic Alternatives in Latin lookup 23 subtable" uni01CA.ss01
Substitution2: "'case' Case-Sensitive Forms in Latin lookup 21 subtable" uni01CA.ss01
Substitution2: "'aalt' Access All Alternates in Latin lookup 0 subtable" uni01CA.ss01
EndChar

StartChar: Eng
Encoding: 330 330 106
Width: 884
Flags: W
LayerCount: 2
Fore
SplineSet
1005.5 211 m 128,-1,1
 1013 199 1013 199 1013 178 c 0,2,3
 1013 139 1013 139 994 116 c 0,4,5
 947 59 947 59 901 27 c 128,-1,6
 855 -5 855 -5 801 -5 c 0,7,8
 740 -5 740 -5 687 25 c 1,9,10
 635 -161 635 -161 564 -254 c 128,-1,11
 493 -347 493 -347 385 -347 c 0,12,13
 325 -347 325 -347 270 -321 c 128,-1,14
 215 -295 215 -295 181 -246 c 0,15,16
 168 -227 168 -227 168 -208 c 0,17,18
 168 -184 168 -184 185.5 -166 c 128,-1,19
 203 -148 203 -148 226 -148 c 0,20,21
 255 -148 255 -148 275 -176 c 0,22,23
 327 -248 327 -248 396 -248 c 0,24,25
 433 -248 433 -248 460.5 -221 c 128,-1,26
 488 -194 488 -194 515.5 -114.5 c 128,-1,27
 543 -35 543 -35 576 120 c 2,28,-1
 639 415 l 2,29,30
 653 472 653 472 650 463 c 1,31,32
 667 543 667 543 674 582 c 128,-1,33
 681 621 681 621 681 652 c 256,34,35
 681 683 681 683 664.5 702 c 128,-1,36
 648 721 648 721 616 721 c 0,37,38
 556 721 556 721 496 657 c 128,-1,39
 436 593 436 593 385 450.5 c 128,-1,40
 334 308 334 308 305 86 c 0,41,42
 298 35 298 35 284.5 15 c 128,-1,43
 271 -5 271 -5 232 -5 c 0,44,45
 197 -5 197 -5 180 16 c 128,-1,46
 163 37 163 37 163 84 c 0,47,48
 163 110 163 110 170.5 161.5 c 128,-1,49
 178 213 178 213 188 273 c 0,50,51
 216 433 216 433 231 559 c 0,52,53
 241 639 241 639 241 679 c 0,54,55
 241 724 241 724 208 724 c 0,56,57
 183 724 183 724 145.5 697.5 c 128,-1,58
 108 671 108 671 65 613 c 0,59,60
 51 594 51 594 34 594 c 0,61,62
 20 594 20 594 9.5 607.5 c 128,-1,63
 -1 621 -1 621 -1 638 c 256,64,65
 -1 655 -1 655 5 670.5 c 128,-1,66
 11 686 11 686 27 708 c 0,67,68
 76 775 76 775 136 811.5 c 128,-1,69
 196 848 196 848 262 848 c 0,70,71
 317 848 317 848 344.5 814 c 128,-1,72
 372 780 372 780 372 715 c 0,73,74
 372 657 372 657 356 547 c 1,75,76
 406 695 406 695 483 771.5 c 128,-1,77
 560 848 560 848 664 848 c 0,78,79
 745 848 745 848 784.5 802.5 c 128,-1,80
 824 757 824 757 824 682 c 0,81,82
 824 627 824 627 812.5 563.5 c 128,-1,83
 801 500 801 500 784 430 c 2,84,-1
 718 146 l 1,85,86
 775 116 775 116 824 116 c 0,87,88
 856 116 856 116 885.5 137 c 128,-1,89
 915 158 915 158 958 209 c 0,90,91
 970 223 970 223 985 223 c 0,92,0
 998 223 998 223 1005.5 211 c 128,-1,1
EndSplineSet
Substitution2: "'ss02' Style Set 2 in Latin lookup 25 subtable" Eng.ss01
Substitution2: "'ss01' Style Set 1 in Latin lookup 24 subtable" Eng.ss01
Substitution2: "'salt' Stylistic Alternatives in Latin lookup 23 subtable" Eng.ss01
Substitution2: "'case' Case-Sensitive Forms in Latin lookup 21 subtable" Eng.ss01
Substitution2: "'aalt' Access All Alternates in Latin lookup 0 subtable" Eng.ss01
EndChar

StartChar: O
Encoding: 79 79 109
Width: 816
GlyphClass: 2
Flags: W
AnchorPoint: "Anchor-9" 660 840 basechar 0
AnchorPoint: "Anchor-8" 483 840 basechar 0
AnchorPoint: "Anchor-7" 486 10 basechar 0
AnchorPoint: "Anchor-6" 381 0 basechar 0
LayerCount: 2
Fore
SplineSet
219.5 35 m 128,-1,1
 148 75 148 75 106 152.5 c 128,-1,2
 64 230 64 230 64 338 c 0,3,4
 64 490 64 490 119.5 606 c 128,-1,5
 175 722 175 722 270.5 785 c 128,-1,6
 366 848 366 848 482 848 c 0,7,8
 571 848 571 848 642.5 808 c 128,-1,9
 714 768 714 768 756 690.5 c 128,-1,10
 798 613 798 613 798 505 c 0,11,12
 798 353 798 353 742.5 237 c 128,-1,13
 687 121 687 121 591.5 58 c 128,-1,14
 496 -5 496 -5 380 -5 c 0,15,0
 291 -5 291 -5 219.5 35 c 128,-1,1
527.5 161 m 128,-1,17
 587 209 587 209 619 294.5 c 128,-1,18
 651 380 651 380 651 488 c 0,19,20
 651 607 651 607 601 668.5 c 128,-1,21
 551 730 551 730 472 730 c 0,22,23
 395 730 395 730 336 682.5 c 128,-1,24
 277 635 277 635 244 549.5 c 128,-1,25
 211 464 211 464 211 355 c 0,26,27
 211 236 211 236 261 174.5 c 128,-1,28
 311 113 311 113 390 113 c 0,29,16
 468 113 468 113 527.5 161 c 128,-1,17
EndSplineSet
Substitution2: "Single Substitution lookup 30 subtable" ordmasculine
Substitution2: "'aalt' Access All Alternates in Latin lookup 0 subtable" ordmasculine
EndChar

StartChar: Ohorn
Encoding: 416 416 125
Width: 816
GlyphClass: 2
Flags: W
AnchorPoint: "Anchor-9" 669 912 basechar 0
AnchorPoint: "Anchor-8" 483 840 basechar 0
AnchorPoint: "Anchor-7" 486 10 basechar 0
AnchorPoint: "Anchor-6" 381 0 basechar 0
LayerCount: 2
Fore
SplineSet
219.5 35 m 128,-1,1
 148 75 148 75 106 152.5 c 128,-1,2
 64 230 64 230 64 338 c 0,3,4
 64 490 64 490 119.5 606 c 128,-1,5
 175 722 175 722 270.5 785 c 128,-1,6
 366 848 366 848 482 848 c 0,7,8
 536 848 536 848 603 838 c 0,9,10
 633 834 633 834 640 834 c 0,11,12
 690 834 690 834 713.5 863.5 c 128,-1,13
 737 893 737 893 748 951 c 0,14,15
 756 997 756 997 802 997 c 0,16,17
 829 997 829 997 845 981 c 128,-1,18
 861 965 861 965 861 934 c 0,19,20
 861 924 861 924 860 919 c 0,21,22
 852 853 852 853 818 803.5 c 128,-1,23
 784 754 784 754 729 734 c 1,24,25
 798 640 798 640 798 505 c 0,26,27
 798 353 798 353 742.5 237 c 128,-1,28
 687 121 687 121 591.5 58 c 128,-1,29
 496 -5 496 -5 380 -5 c 0,30,0
 291 -5 291 -5 219.5 35 c 128,-1,1
527.5 161 m 128,-1,32
 587 209 587 209 619 294.5 c 128,-1,33
 651 380 651 380 651 488 c 0,34,35
 651 607 651 607 601 668.5 c 128,-1,36
 551 730 551 730 472 730 c 0,37,38
 395 730 395 730 336 682.5 c 128,-1,39
 277 635 277 635 244 549.5 c 128,-1,40
 211 464 211 464 211 355 c 0,41,42
 211 236 211 236 261 174.5 c 128,-1,43
 311 113 311 113 390 113 c 0,44,31
 468 113 468 113 527.5 161 c 128,-1,32
EndSplineSet
EndChar

StartChar: Oslash
Encoding: 216 216 135
Width: 816
GlyphClass: 2
Flags: W
AnchorPoint: "Anchor-9" 0 0 basechar 0
AnchorPoint: "Anchor-8" 391 840 basechar 0
AnchorPoint: "Anchor-7" 0 0 basechar 0
AnchorPoint: "Anchor-6" 393 -100 basechar 0
LayerCount: 2
Fore
SplineSet
742.5 713.5 m 128,-1,1
 798 630 798 630 798 505 c 0,2,3
 798 353 798 353 742.5 237 c 128,-1,4
 687 121 687 121 591.5 58 c 128,-1,5
 496 -5 496 -5 380 -5 c 2,6,-1
 373 -5 l 1,7,-1
 352 -84 l 2,8,9
 348 -98 348 -98 334.5 -105 c 128,-1,10
 321 -112 321 -112 303 -112 c 0,11,12
 281 -112 281 -112 264 -100.5 c 128,-1,13
 247 -89 247 -89 247 -70 c 0,14,15
 247 -65 247 -65 249 -57 c 2,16,-1
 268 13 l 1,17,18
 175 45 175 45 119.5 129 c 128,-1,19
 64 213 64 213 64 338 c 0,20,21
 64 490 64 490 119.5 606 c 128,-1,22
 175 722 175 722 270.5 785 c 128,-1,23
 366 848 366 848 482 848 c 2,24,-1
 489 848 l 1,25,-1
 508 921 l 2,26,27
 512 935 512 935 525.5 942 c 128,-1,28
 539 949 539 949 557 949 c 0,29,30
 579 949 579 949 596.5 937.5 c 128,-1,31
 614 926 614 926 614 906 c 0,32,33
 614 901 614 901 612 893 c 2,34,-1
 595 830 l 1,35,0
 687 797 687 797 742.5 713.5 c 128,-1,1
235 219 m 128,-1,37
 259 164 259 164 301 137 c 1,38,-1
 387 455 l 1,39,-1
 458 730 l 1,40,41
 385 726 385 726 329 676.5 c 128,-1,42
 273 627 273 627 242 543.5 c 128,-1,43
 211 460 211 460 211 355 c 0,44,36
 211 274 211 274 235 219 c 128,-1,37
534 166.5 m 128,-1,46
 590 216 590 216 620.5 299.5 c 128,-1,47
 651 383 651 383 651 488 c 0,48,49
 651 569 651 569 627 624 c 128,-1,50
 603 679 603 679 561 706 c 1,51,-1
 491 451 l 1,52,-1
 403 113 l 1,53,45
 478 117 478 117 534 166.5 c 128,-1,46
EndSplineSet
EndChar

StartChar: OE
Encoding: 338 338 139
Width: 1124
GlyphClass: 2
Flags: W
AnchorPoint: "Anchor-9" 0 0 basechar 0
AnchorPoint: "Anchor-8" 722 840 basechar 0
AnchorPoint: "Anchor-7" 0 0 basechar 0
AnchorPoint: "Anchor-6" 654 0 basechar 0
LayerCount: 2
Fore
SplineSet
1220 187 m 0,1,2
 1234 187 1234 187 1242 175.5 c 128,-1,3
 1250 164 1250 164 1250 146 c 0,4,5
 1250 123 1250 123 1240.5 104.5 c 128,-1,6
 1231 86 1231 86 1208 69 c 0,7,8
 1164 37 1164 37 1090 16 c 128,-1,9
 1016 -5 1016 -5 948 -5 c 0,10,11
 836 -5 836 -5 767 35 c 128,-1,12
 698 75 698 75 669 144 c 1,13,14
 615 73 615 73 540.5 34 c 128,-1,15
 466 -5 466 -5 380 -5 c 0,16,17
 291 -5 291 -5 219.5 35 c 128,-1,18
 148 75 148 75 106 152.5 c 128,-1,19
 64 230 64 230 64 338 c 0,20,21
 64 490 64 490 119.5 606 c 128,-1,22
 175 722 175 722 270.5 785 c 128,-1,23
 366 848 366 848 482 848 c 0,24,25
 565 848 565 848 630.5 812 c 128,-1,26
 696 776 696 776 735 707 c 1,27,-1
 740 727 l 2,28,29
 755 782 755 782 789.5 810 c 128,-1,30
 824 838 824 838 875 840 c 2,31,-1
 927 843 l 2,32,33
 1053 849 1053 849 1125 849 c 0,34,35
 1161 849 1161 849 1175 836.5 c 128,-1,36
 1189 824 1189 824 1189 795 c 0,37,38
 1189 764 1189 764 1171 742 c 128,-1,39
 1153 720 1153 720 1117 720 c 0,40,41
 1050 720 1050 720 979.5 717 c 128,-1,42
 909 714 909 714 877 710 c 1,43,44
 853 638 853 638 819 483 c 1,45,46
 865 485 865 485 885 485 c 0,47,48
 992 490 992 490 1066 490 c 0,49,50
 1096 490 1096 490 1107.5 477.5 c 128,-1,51
 1119 465 1119 465 1119 441 c 0,52,53
 1119 410 1119 410 1101.5 389.5 c 128,-1,54
 1084 369 1084 369 1053 368 c 2,55,-1
 940 365 l 2,56,57
 888 363 888 363 795 361 c 1,58,59
 784 312 784 312 784 274 c 0,60,61
 784 115 784 115 971 115 c 0,62,63
 1024 115 1024 115 1079 131.5 c 128,-1,64
 1134 148 1134 148 1200 182 c 0,65,0
 1209 187 1209 187 1220 187 c 0,1,2
527.5 161 m 128,-1,67
 587 209 587 209 619 294.5 c 128,-1,68
 651 380 651 380 651 488 c 0,69,70
 651 607 651 607 601 668.5 c 128,-1,71
 551 730 551 730 472 730 c 0,72,73
 396 730 396 730 336.5 681.5 c 128,-1,74
 277 633 277 633 244 548 c 128,-1,75
 211 463 211 463 211 355 c 0,76,77
 211 236 211 236 261 174.5 c 128,-1,78
 311 113 311 113 390 113 c 0,79,66
 468 113 468 113 527.5 161 c 128,-1,67
EndSplineSet
Substitution2: "'ss02' Style Set 2 in Latin lookup 25 subtable" OE.ss01
Substitution2: "'ss01' Style Set 1 in Latin lookup 24 subtable" OE.ss01
Substitution2: "'salt' Stylistic Alternatives in Latin lookup 23 subtable" OE.ss01
Substitution2: "'case' Case-Sensitive Forms in Latin lookup 21 subtable" OE.ss01
Substitution2: "'aalt' Access All Alternates in Latin lookup 0 subtable" OE.ss01
EndChar

StartChar: P
Encoding: 80 80 140
Width: 805
Flags: W
LayerCount: 2
Fore
SplineSet
779 440 m 128,-1,1
 735 369 735 369 651 324 c 128,-1,2
 567 279 567 279 451 271 c 1,3,-1
 408 30 l 2,4,5
 383 -109 383 -109 272 -109 c 0,6,7
 211 -109 211 -109 159.5 -73 c 128,-1,8
 108 -37 108 -37 77 37 c 128,-1,9
 46 111 46 111 46 219 c 0,10,11
 46 422 46 422 111.5 563.5 c 128,-1,12
 177 705 177 705 287.5 775.5 c 128,-1,13
 398 846 398 846 531 846 c 0,14,15
 625 846 625 846 690.5 813 c 128,-1,16
 756 780 756 780 789.5 723.5 c 128,-1,17
 823 667 823 667 823 596 c 0,18,0
 823 511 823 511 779 440 c 128,-1,1
674 587 m 0,20,21
 674 653 674 653 630.5 694.5 c 128,-1,22
 587 736 587 736 496 736 c 0,23,24
 393 736 393 736 316.5 671 c 128,-1,25
 240 606 240 606 198.5 490.5 c 128,-1,26
 157 375 157 375 157 227 c 0,27,28
 157 165 157 165 169.5 117 c 128,-1,29
 182 69 182 69 201.5 42.5 c 128,-1,30
 221 16 221 16 239 16 c 0,31,32
 264 16 264 16 277 85 c 2,33,-1
 310 274 l 1,34,35
 271 280 271 280 276 279 c 1,36,37
 246 284 246 284 237 297.5 c 128,-1,38
 228 311 228 311 228 332 c 0,39,40
 228 354 228 354 240.5 367 c 128,-1,41
 253 380 253 380 275 380 c 0,42,43
 285 380 285 380 290 379 c 0,44,45
 314 375 314 375 327 374 c 1,46,47
 340 452 340 452 364 583 c 0,48,49
 370 617 370 617 391.5 631.5 c 128,-1,50
 413 646 413 646 442 646 c 0,51,52
 475 646 475 646 489.5 633.5 c 128,-1,53
 504 621 504 621 504 594 c 0,54,55
 504 578 504 578 502 568 c 2,56,-1
 469 374 l 1,57,19
 674 400 674 400 674 587 c 0,20,21
EndSplineSet
Substitution2: "'ss02' Style Set 2 in Latin lookup 25 subtable" P.ss01
Substitution2: "'ss01' Style Set 1 in Latin lookup 24 subtable" P.ss01
Substitution2: "'salt' Stylistic Alternatives in Latin lookup 23 subtable" P.ss01
Substitution2: "'case' Case-Sensitive Forms in Latin lookup 21 subtable" P.ss01
Substitution2: "'aalt' Access All Alternates in Latin lookup 0 subtable" P.ss01
EndChar

StartChar: Thorn
Encoding: 222 222 141
Width: 776
Flags: W
LayerCount: 2
Fore
SplineSet
738 360 m 128,-1,1
 695 293 695 293 611 251 c 128,-1,2
 527 209 527 209 407 205 c 1,3,4
 393 126 393 126 374 30 c 0,5,6
 360 -41 360 -41 328 -75 c 128,-1,7
 296 -109 296 -109 240 -109 c 0,8,9
 185 -109 185 -109 139.5 -70 c 128,-1,10
 94 -31 94 -31 68 39.5 c 128,-1,11
 42 110 42 110 42 202 c 0,12,13
 42 335 42 335 78.5 441 c 128,-1,14
 115 547 115 547 184 617 c 128,-1,15
 253 687 253 687 347 715 c 1,16,-1
 371 885 l 2,17,18
 374 912 374 912 397 925 c 128,-1,19
 420 938 420 938 448 938 c 0,20,21
 482 938 482 938 496.5 926.5 c 128,-1,22
 511 915 511 915 511 891 c 0,23,24
 511 880 511 880 510 874 c 2,25,-1
 491 733 l 1,26,27
 585 731 585 731 650 701 c 128,-1,28
 715 671 715 671 748 620.5 c 128,-1,29
 781 570 781 570 781 506 c 0,30,0
 781 427 781 427 738 360 c 128,-1,1
584 368.5 m 128,-1,32
 631 419 631 419 631 487 c 0,33,34
 631 548 631 548 593.5 584.5 c 128,-1,35
 556 621 556 621 475 625 c 1,36,37
 451 458 451 458 425 308 c 1,38,31
 537 318 537 318 584 368.5 c 128,-1,32
245 85 m 0,40,41
 261 171 261 171 268 213 c 1,42,43
 262 213 262 213 254 215 c 0,44,45
 224 220 224 220 216 232.5 c 128,-1,46
 208 245 208 245 208 266 c 0,47,48
 208 290 208 290 219.5 303 c 128,-1,49
 231 316 231 316 253 316 c 0,50,51
 263 316 263 316 268 315 c 2,52,-1
 285 312 l 1,53,54
 311 469 311 469 330 599 c 1,55,56
 243 559 243 559 198 458.5 c 128,-1,57
 153 358 153 358 153 207 c 0,58,59
 153 138 153 138 168 77 c 128,-1,60
 183 16 183 16 207 16 c 0,61,39
 232 16 232 16 245 85 c 0,40,41
EndSplineSet
Substitution2: "'ss02' Style Set 2 in Latin lookup 25 subtable" Thorn.ss01
Substitution2: "'ss01' Style Set 1 in Latin lookup 24 subtable" Thorn.ss01
Substitution2: "'salt' Stylistic Alternatives in Latin lookup 23 subtable" Thorn.ss01
Substitution2: "'case' Case-Sensitive Forms in Latin lookup 21 subtable" Thorn.ss01
Substitution2: "'aalt' Access All Alternates in Latin lookup 0 subtable" Thorn.ss01
EndChar

StartChar: Q
Encoding: 81 81 142
Width: 816
Flags: W
LayerCount: 2
Fore
SplineSet
875.5 -106.5 m 128,-1,1
 881 -117 881 -117 881 -134 c 0,2,3
 881 -166 881 -166 864 -197 c 0,4,5
 830 -259 830 -259 774.5 -292.5 c 128,-1,6
 719 -326 719 -326 661 -326 c 0,7,8
 602 -326 602 -326 562 -307.5 c 128,-1,9
 522 -289 522 -289 494 -252.5 c 128,-1,10
 466 -216 466 -216 440 -156 c 0,11,12
 413 -94 413 -94 395.5 -63.5 c 128,-1,13
 378 -33 378 -33 359 -19 c 128,-1,14
 340 -5 340 -5 310 1 c 0,15,16
 199 23 199 23 131.5 111 c 128,-1,17
 64 199 64 199 64 338 c 0,18,19
 64 490 64 490 119.5 606 c 128,-1,20
 175 722 175 722 270.5 785 c 128,-1,21
 366 848 366 848 482 848 c 0,22,23
 571 848 571 848 642.5 808 c 128,-1,24
 714 768 714 768 756 690.5 c 128,-1,25
 798 613 798 613 798 505 c 0,26,27
 798 379 798 379 760 278 c 128,-1,28
 722 177 722 177 655 110 c 128,-1,29
 588 43 588 43 501 15 c 1,30,31
 526 1 526 1 544.5 -26 c 128,-1,32
 563 -53 563 -53 584 -104 c 0,33,34
 607 -160 607 -160 633.5 -184 c 128,-1,35
 660 -208 660 -208 699 -208 c 0,36,37
 732 -208 732 -208 763 -185.5 c 128,-1,38
 794 -163 794 -163 833 -112 c 0,39,40
 845 -96 845 -96 860 -96 c 0,41,0
 870 -96 870 -96 875.5 -106.5 c 128,-1,1
527.5 161 m 128,-1,43
 587 209 587 209 619 294.5 c 128,-1,44
 651 380 651 380 651 488 c 0,45,46
 651 607 651 607 601 668.5 c 128,-1,47
 551 730 551 730 472 730 c 0,48,49
 396 730 396 730 336.5 681.5 c 128,-1,50
 277 633 277 633 244 548 c 128,-1,51
 211 463 211 463 211 355 c 0,52,53
 211 236 211 236 261 174.5 c 128,-1,54
 311 113 311 113 390 113 c 0,55,42
 468 113 468 113 527.5 161 c 128,-1,43
EndSplineSet
Substitution2: "'ss02' Style Set 2 in Latin lookup 25 subtable" Q.ss01
Substitution2: "'ss01' Style Set 1 in Latin lookup 24 subtable" Q.ss01
Substitution2: "'salt' Stylistic Alternatives in Latin lookup 23 subtable" Q.ss01
Substitution2: "'case' Case-Sensitive Forms in Latin lookup 21 subtable" Q.ss01
Substitution2: "'aalt' Access All Alternates in Latin lookup 0 subtable" Q.ss01
EndChar

StartChar: R
Encoding: 82 82 143
Width: 880
GlyphClass: 2
Flags: W
AnchorPoint: "Anchor-9" 0 0 basechar 0
AnchorPoint: "Anchor-8" 512 840 basechar 0
AnchorPoint: "Anchor-7" 0 0 basechar 0
AnchorPoint: "Anchor-6" 502 0 basechar 0
LayerCount: 2
Fore
SplineSet
1001.5 211 m 128,-1,1
 1009 199 1009 199 1009 178 c 0,2,3
 1009 139 1009 139 990 116 c 0,4,5
 942 58 942 58 893 26.5 c 128,-1,6
 844 -5 844 -5 777 -5 c 0,7,8
 712 -5 712 -5 666.5 30 c 128,-1,9
 621 65 621 65 580 150 c 0,10,11
 547 218 547 218 528 250.5 c 128,-1,12
 509 283 509 283 490.5 297 c 128,-1,13
 472 311 472 311 445 314 c 1,14,15
 441 293 441 293 422 182 c 0,16,17
 414 132 414 132 412 121 c 0,18,19
 402 60 402 60 372 27.5 c 128,-1,20
 342 -5 342 -5 281 -5 c 0,21,22
 214 -5 214 -5 162.5 34.5 c 128,-1,23
 111 74 111 74 83 144.5 c 128,-1,24
 55 215 55 215 55 305 c 0,25,26
 55 473 55 473 113.5 595 c 128,-1,27
 172 717 172 717 277.5 781.5 c 128,-1,28
 383 846 383 846 521 846 c 0,29,30
 617 846 617 846 682 817 c 128,-1,31
 747 788 747 788 778.5 737 c 128,-1,32
 810 686 810 686 810 622 c 0,33,34
 810 566 810 566 783.5 512.5 c 128,-1,35
 757 459 757 459 704 418 c 128,-1,36
 651 377 651 377 575 357 c 1,37,38
 623 344 623 344 649 315 c 128,-1,39
 675 286 675 286 701 230 c 0,40,41
 729 170 729 170 756.5 142 c 128,-1,42
 784 114 784 114 820 114 c 0,43,44
 852 114 852 114 881 135.5 c 128,-1,45
 910 157 910 157 954 209 c 0,46,47
 966 223 966 223 981 223 c 0,48,0
 994 223 994 223 1001.5 211 c 128,-1,1
307 315 m 1,49,50
 273 315 273 315 260.5 331 c 128,-1,51
 248 347 248 347 248 367 c 0,52,53
 248 391 248 391 263.5 405 c 128,-1,54
 279 419 279 419 299 419 c 2,55,-1
 324 419 l 1,56,57
 340 517 340 517 354 588 c 0,58,59
 367 653 367 653 438 653 c 0,60,61
 495 653 495 653 495 602 c 0,62,63
 495 591 495 591 494 585 c 2,64,-1
 464 419 l 1,65,66
 518 422 518 422 562.5 445 c 128,-1,67
 607 468 607 468 633.5 509 c 128,-1,68
 660 550 660 550 660 602 c 0,69,70
 660 665 660 665 617 701 c 128,-1,71
 574 737 574 737 491 737 c 0,72,73
 393 737 393 737 319.5 688.5 c 128,-1,74
 246 640 246 640 205 544.5 c 128,-1,75
 164 449 164 449 164 312 c 0,76,77
 164 248 164 248 177 202 c 128,-1,78
 190 156 190 156 209 133 c 128,-1,79
 228 110 228 110 245 110 c 0,80,81
 258 110 258 110 266.5 123 c 128,-1,82
 275 136 275 136 280 165 c 2,83,-1
 307 315 l 1,49,50
EndSplineSet
Substitution2: "'ss02' Style Set 2 in Latin lookup 25 subtable" R.ss01
Substitution2: "'ss01' Style Set 1 in Latin lookup 24 subtable" R.ss01
Substitution2: "'salt' Stylistic Alternatives in Latin lookup 23 subtable" R.ss01
Substitution2: "'case' Case-Sensitive Forms in Latin lookup 21 subtable" R.ss01
Substitution2: "'aalt' Access All Alternates in Latin lookup 0 subtable" R.ss01
EndChar

StartChar: S
Encoding: 83 83 149
Width: 693
GlyphClass: 2
Flags: W
AnchorPoint: "Anchor-9" 0 0 basechar 0
AnchorPoint: "Anchor-8" 425 840 basechar 0
AnchorPoint: "Anchor-7" 0 0 basechar 0
AnchorPoint: "Anchor-6" 329 0 basechar 0
LayerCount: 2
Fore
SplineSet
114 42.5 m 128,-1,1
 34 93 34 93 34 197 c 0,2,3
 34 252 34 252 53 281 c 128,-1,4
 72 310 72 310 109 310 c 0,5,6
 136 310 136 310 153 296 c 128,-1,7
 170 282 170 282 170 260 c 0,8,9
 170 240 170 240 167 225 c 0,10,11
 167 221 167 221 165.5 211 c 128,-1,12
 164 201 164 201 164 190 c 0,13,14
 164 145 164 145 209.5 123 c 128,-1,15
 255 101 255 101 337 101 c 0,16,17
 422 101 422 101 470 131.5 c 128,-1,18
 518 162 518 162 518 217 c 0,19,20
 518 251 518 251 496 275.5 c 128,-1,21
 474 300 474 300 441 316.5 c 128,-1,22
 408 333 408 333 348 357 c 0,23,24
 271 387 271 387 222.5 414 c 128,-1,25
 174 441 174 441 139.5 487.5 c 128,-1,26
 105 534 105 534 105 603 c 0,27,28
 105 675 105 675 143.5 731 c 128,-1,29
 182 787 182 787 254.5 818 c 128,-1,30
 327 849 327 849 425 849 c 0,31,32
 498 849 498 849 559 827.5 c 128,-1,33
 620 806 620 806 656.5 762 c 128,-1,34
 693 718 693 718 693 654 c 0,35,36
 693 591 693 591 674 559 c 128,-1,37
 655 527 655 527 618 527 c 0,38,39
 592 527 592 527 574.5 543 c 128,-1,40
 557 559 557 559 557 581 c 0,41,42
 557 600 557 600 560 616 c 0,43,44
 563 646 563 646 563 654 c 0,45,46
 563 696 563 696 522 718 c 128,-1,47
 481 740 481 740 420 740 c 0,48,49
 334 740 334 740 288.5 708.5 c 128,-1,50
 243 677 243 677 243 620 c 0,51,52
 243 582 243 582 266.5 555 c 128,-1,53
 290 528 290 528 325 510 c 128,-1,54
 360 492 360 492 423 467 c 0,55,56
 499 436 499 436 545 411 c 128,-1,57
 591 386 591 386 623.5 343 c 128,-1,58
 656 300 656 300 656 237 c 0,59,60
 656 119 656 119 566.5 55.5 c 128,-1,61
 477 -8 477 -8 327 -8 c 0,62,0
 194 -8 194 -8 114 42.5 c 128,-1,1
EndSplineSet
EndChar

StartChar: uni1E9E
Encoding: 7838 7838 155
Width: 843
Flags: W
LayerCount: 2
Fore
SplineSet
740 385.5 m 128,-1,1
 793 332 793 332 793 252 c 0,2,3
 793 178 793 178 750 114.5 c 128,-1,4
 707 51 707 51 632 9.5 c 128,-1,5
 557 -32 557 -32 465 -44 c 0,6,7
 447 -46 447 -46 440 -46 c 0,8,9
 406 -46 406 -46 388.5 -32.5 c 128,-1,10
 371 -19 371 -19 371 -1 c 0,11,12
 371 14 371 14 381.5 26.5 c 128,-1,13
 392 39 392 39 410 43 c 0,14,15
 486 57 486 57 539 88 c 128,-1,16
 592 119 592 119 618 159.5 c 128,-1,17
 644 200 644 200 644 244 c 0,18,19
 644 317 644 317 592.5 348 c 128,-1,20
 541 379 541 379 446 382 c 0,21,22
 430 383 430 383 422 395.5 c 128,-1,23
 414 408 414 408 414 427 c 0,24,25
 414 449 414 449 424 467.5 c 128,-1,26
 434 486 434 486 452 490 c 0,27,28
 556 514 556 514 608.5 554 c 128,-1,29
 661 594 661 594 661 652 c 0,30,31
 661 729 661 729 574 729 c 0,32,33
 497 729 497 729 427 651 c 128,-1,34
 357 573 357 573 304.5 427.5 c 128,-1,35
 252 282 252 282 227 86 c 0,36,37
 220 34 220 34 203 14.5 c 128,-1,38
 186 -5 186 -5 151 -5 c 256,39,40
 116 -5 116 -5 99 10.5 c 128,-1,41
 82 26 82 26 85 73 c 0,42,43
 97 259 97 259 128 470 c 128,-1,44
 159 681 159 681 189 794 c 0,45,46
 204 852 204 852 274 852 c 0,47,48
 303 852 303 852 316 841 c 128,-1,49
 329 830 329 830 329 808 c 0,50,51
 329 797 329 797 326 782 c 2,52,-1
 308 704 l 2,53,54
 285 615 285 615 266 521 c 1,55,56
 324 689 324 689 413.5 768.5 c 128,-1,57
 503 848 503 848 619 848 c 0,58,59
 674 848 674 848 718 827.5 c 128,-1,60
 762 807 762 807 787 770 c 128,-1,61
 812 733 812 733 812 686 c 0,62,63
 812 603 812 603 752 541.5 c 128,-1,64
 692 480 692 480 597 449 c 1,65,0
 687 439 687 439 740 385.5 c 128,-1,1
EndSplineSet
EndChar

StartChar: uni018F
Encoding: 399 399 156
Width: 792
GlyphClass: 2
Flags: W
AnchorPoint: "Anchor-9" 0 0 basechar 0
AnchorPoint: "Anchor-8" 447 840 basechar 0
AnchorPoint: "Anchor-7" 0 0 basechar 0
AnchorPoint: "Anchor-6" 370 0 basechar 0
LayerCount: 2
Fore
SplineSet
614.5 808 m 128,-1,1
 688 768 688 768 730.5 688.5 c 128,-1,2
 773 609 773 609 773 495 c 0,3,4
 773 348 773 348 720 234 c 128,-1,5
 667 120 667 120 575 57.5 c 128,-1,6
 483 -5 483 -5 370 -5 c 0,7,8
 280 -5 280 -5 209.5 34 c 128,-1,9
 139 73 139 73 99 148.5 c 128,-1,10
 59 224 59 224 59 328 c 0,11,12
 59 384 59 384 81.5 413 c 128,-1,13
 104 442 104 442 144 442 c 2,14,-1
 625 442 l 1,15,16
 626 457 626 457 626 488 c 0,17,18
 626 607 626 607 570.5 666.5 c 128,-1,19
 515 726 515 726 427 726 c 0,20,21
 369 726 369 726 309.5 701 c 128,-1,22
 250 676 250 676 195 625 c 0,23,24
 178 610 178 610 166 610 c 0,25,26
 152 610 152 610 143.5 625.5 c 128,-1,27
 135 641 135 641 135 664 c 0,28,29
 135 686 135 686 142.5 707 c 128,-1,30
 150 728 150 728 164 742 c 0,31,32
 217 795 217 795 290 821.5 c 128,-1,33
 363 848 363 848 447 848 c 0,34,0
 541 848 541 848 614.5 808 c 128,-1,1
523 170.5 m 128,-1,36
 582 230 582 230 608 332 c 1,37,-1
 206 332 l 1,38,39
 207 214 207 214 255.5 162.5 c 128,-1,40
 304 111 304 111 382 111 c 0,41,35
 464 111 464 111 523 170.5 c 128,-1,36
EndSplineSet
EndChar

StartChar: T
Encoding: 84 84 157
Width: 697
GlyphClass: 2
Flags: W
AnchorPoint: "Anchor-9" 0 0 basechar 0
AnchorPoint: "Anchor-8" 503 840 basechar 0
AnchorPoint: "Anchor-7" 0 0 basechar 0
AnchorPoint: "Anchor-6" 370 0 basechar 0
LayerCount: 2
Fore
SplineSet
887.5 809 m 128,-1,1
 903 794 903 794 903 774 c 0,2,3
 903 741 903 741 884.5 726 c 128,-1,4
 866 711 866 711 826 714 c 0,5,6
 736 721 736 721 685.5 723.5 c 128,-1,7
 635 726 635 726 553 727 c 1,8,9
 516 543 516 543 485 357 c 0,10,11
 474 289 474 289 462 199.5 c 128,-1,12
 450 110 450 110 446 55 c 0,13,14
 444 26 444 26 422 10.5 c 128,-1,15
 400 -5 400 -5 369 -5 c 0,16,17
 336 -5 336 -5 318 11 c 128,-1,18
 300 27 300 27 300 53 c 0,19,20
 300 77 300 77 307.5 132.5 c 128,-1,21
 315 188 315 188 325 249 c 0,22,23
 336 310 336 310 342 355 c 0,24,25
 353 431 353 431 367 506 c 128,-1,26
 381 581 381 581 395 648 c 0,27,28
 398 663 398 663 402 682.5 c 128,-1,29
 406 702 406 702 411 726 c 1,30,31
 313 723 313 723 257 710 c 128,-1,32
 201 697 201 697 177.5 673.5 c 128,-1,33
 154 650 154 650 154 613 c 0,34,35
 154 579 154 579 174 548 c 0,36,37
 178 541 178 541 178 533 c 0,38,39
 178 514 178 514 155.5 497.5 c 128,-1,40
 133 481 133 481 109 481 c 0,41,42
 92 481 92 481 81 491 c 0,43,44
 61 508 61 508 48 539.5 c 128,-1,45
 35 571 35 571 35 611 c 0,46,47
 35 696 35 696 90.5 747.5 c 128,-1,48
 146 799 146 799 259.5 823 c 128,-1,49
 373 847 373 847 551 847 c 0,50,51
 661 847 661 847 726.5 843 c 128,-1,52
 792 839 792 839 841 830 c 0,53,0
 872 824 872 824 887.5 809 c 128,-1,1
EndSplineSet
Substitution2: "'ss02' Style Set 2 in Latin lookup 25 subtable" T.ss01
Substitution2: "'ss01' Style Set 1 in Latin lookup 24 subtable" T.ss01
Substitution2: "'salt' Stylistic Alternatives in Latin lookup 23 subtable" T.ss01
Substitution2: "'case' Case-Sensitive Forms in Latin lookup 21 subtable" T.ss01
Substitution2: "'aalt' Access All Alternates in Latin lookup 0 subtable" T.ss01
EndChar

StartChar: Tbar
Encoding: 358 358 158
Width: 697
GlyphClass: 2
Flags: W
AnchorPoint: "Anchor-9" 0 0 basechar 0
AnchorPoint: "Anchor-8" 503 840 basechar 0
AnchorPoint: "Anchor-7" 0 0 basechar 0
AnchorPoint: "Anchor-6" 370 0 basechar 0
LayerCount: 2
Fore
SplineSet
887.5 809 m 128,-1,1
 903 794 903 794 903 774 c 0,2,3
 903 741 903 741 884.5 726 c 128,-1,4
 866 711 866 711 826 714 c 0,5,6
 736 721 736 721 685.5 723.5 c 128,-1,7
 635 726 635 726 553 727 c 1,8,9
 526 593 526 593 503 462 c 1,10,-1
 603 463 l 2,11,12
 635 463 635 463 649.5 451 c 128,-1,13
 664 439 664 439 664 419 c 0,14,15
 664 390 664 390 646 374.5 c 128,-1,16
 628 359 628 359 579 359 c 2,17,-1
 485 359 l 1,18,-1
 485 357 l 1,19,20
 474 289 474 289 462 199.5 c 128,-1,21
 450 110 450 110 446 55 c 0,22,23
 444 26 444 26 422 10.5 c 128,-1,24
 400 -5 400 -5 369 -5 c 0,25,26
 336 -5 336 -5 318 11 c 128,-1,27
 300 27 300 27 300 53 c 0,28,29
 300 77 300 77 307.5 132.5 c 128,-1,30
 315 188 315 188 325 249 c 0,31,32
 336 310 336 310 342 355 c 1,33,-1
 342 358 l 1,34,35
 325 358 325 358 293 356 c 0,36,37
 251 354 251 354 234 354 c 0,38,39
 182 354 182 354 182 394 c 0,40,41
 182 425 182 425 201 441 c 128,-1,42
 220 457 220 457 266 457 c 2,43,-1
 359 457 l 1,44,45
 381 578 381 578 398 659 c 0,46,47
 406 703 406 703 411 726 c 1,48,49
 313 723 313 723 257 710 c 128,-1,50
 201 697 201 697 177.5 673.5 c 128,-1,51
 154 650 154 650 154 613 c 0,52,53
 154 579 154 579 174 548 c 0,54,55
 178 541 178 541 178 533 c 0,56,57
 178 514 178 514 155.5 497.5 c 128,-1,58
 133 481 133 481 109 481 c 0,59,60
 92 481 92 481 81 491 c 0,61,62
 61 508 61 508 48 539.5 c 128,-1,63
 35 571 35 571 35 611 c 0,64,65
 35 696 35 696 90.5 747.5 c 128,-1,66
 146 799 146 799 259.5 823 c 128,-1,67
 373 847 373 847 551 847 c 0,68,69
 661 847 661 847 726.5 843 c 128,-1,70
 792 839 792 839 841 830 c 0,71,0
 872 824 872 824 887.5 809 c 128,-1,1
EndSplineSet
Substitution2: "'ss02' Style Set 2 in Latin lookup 25 subtable" Tbar.ss01
Substitution2: "'ss01' Style Set 1 in Latin lookup 24 subtable" Tbar.ss01
Substitution2: "'salt' Stylistic Alternatives in Latin lookup 23 subtable" Tbar.ss01
Substitution2: "'case' Case-Sensitive Forms in Latin lookup 21 subtable" Tbar.ss01
Substitution2: "'aalt' Access All Alternates in Latin lookup 0 subtable" Tbar.ss01
EndChar

StartChar: U
Encoding: 85 85 162
Width: 890
GlyphClass: 2
Flags: W
AnchorPoint: "Anchor-9" 791 840 basechar 0
AnchorPoint: "Anchor-8" 533 840 basechar 0
AnchorPoint: "Anchor-7" 868 10 basechar 0
AnchorPoint: "Anchor-6" 438 0 basechar 0
LayerCount: 2
Fore
SplineSet
205 41.5 m 128,-1,1
 162 88 162 88 162 166 c 0,2,3
 162 210 162 210 175 273 c 2,4,-1
 237 559 l 2,5,6
 239 567 239 567 246.5 603 c 128,-1,7
 254 639 254 639 254 681 c 0,8,9
 254 705 254 705 244.5 717 c 128,-1,10
 235 729 235 729 219 729 c 0,11,12
 189 729 189 729 149 700.5 c 128,-1,13
 109 672 109 672 65 613 c 0,14,15
 51 594 51 594 34 594 c 0,16,17
 20 594 20 594 9.5 607.5 c 128,-1,18
 -1 621 -1 621 -1 638 c 0,19,20
 -1 669 -1 669 27 708 c 0,21,22
 129 848 129 848 266 848 c 0,23,24
 327 848 327 848 361.5 811 c 128,-1,25
 396 774 396 774 396 702 c 0,26,27
 396 651 396 651 389 608 c 128,-1,28
 382 565 382 565 365 491 c 2,29,-1
 324 308 l 2,30,31
 322 299 322 299 317 276 c 128,-1,32
 312 253 312 253 309 232.5 c 128,-1,33
 306 212 306 212 306 192 c 0,34,35
 306 160 306 160 324 141 c 128,-1,36
 342 122 342 122 375 122 c 0,37,38
 435 122 435 122 496.5 186 c 128,-1,39
 558 250 558 250 610.5 392.5 c 128,-1,40
 663 535 663 535 692 757 c 0,41,42
 699 808 699 808 712.5 828 c 128,-1,43
 726 848 726 848 765 848 c 0,44,45
 800 848 800 848 817 827 c 128,-1,46
 834 806 834 806 834 759 c 0,47,48
 834 732 834 732 827.5 688 c 128,-1,49
 821 644 821 644 808 565 c 0,50,51
 781 412 781 412 765 284 c 0,52,53
 757 226 757 226 757 198 c 0,54,55
 757 157 757 157 775.5 135.5 c 128,-1,56
 794 114 794 114 825 114 c 0,57,58
 858 114 858 114 889.5 136 c 128,-1,59
 921 158 921 158 964 209 c 0,60,61
 976 223 976 223 991 223 c 0,62,63
 1004 223 1004 223 1011.5 211 c 128,-1,64
 1019 199 1019 199 1019 178 c 0,65,66
 1019 139 1019 139 1000 116 c 0,67,68
 948 53 948 53 897 24 c 128,-1,69
 846 -5 846 -5 790 -5 c 0,70,71
 707 -5 707 -5 663 37.5 c 128,-1,72
 619 80 619 80 619 148 c 0,73,74
 619 186 619 186 635 296 c 1,75,76
 585 149 585 149 508.5 72 c 128,-1,77
 432 -5 432 -5 332 -5 c 0,78,0
 248 -5 248 -5 205 41.5 c 128,-1,1
EndSplineSet
Substitution2: "'ss02' Style Set 2 in Latin lookup 25 subtable" U.ss01
Substitution2: "'ss01' Style Set 1 in Latin lookup 24 subtable" U.ss01
Substitution2: "'salt' Stylistic Alternatives in Latin lookup 23 subtable" U.ss01
Substitution2: "'case' Case-Sensitive Forms in Latin lookup 21 subtable" U.ss01
Substitution2: "'aalt' Access All Alternates in Latin lookup 0 subtable" U.ss01
EndChar

StartChar: Uhorn
Encoding: 431 431 171
Width: 890
GlyphClass: 2
Flags: W
AnchorPoint: "Anchor-9" 800 912 basechar 0
AnchorPoint: "Anchor-8" 533 840 basechar 0
AnchorPoint: "Anchor-7" 868 10 basechar 0
AnchorPoint: "Anchor-6" 438 0 basechar 0
LayerCount: 2
Fore
SplineSet
205 41.5 m 128,-1,1
 162 88 162 88 162 166 c 0,2,3
 162 210 162 210 175 273 c 2,4,-1
 237 559 l 2,5,6
 239 567 239 567 246.5 603 c 128,-1,7
 254 639 254 639 254 681 c 0,8,9
 254 705 254 705 244.5 717 c 128,-1,10
 235 729 235 729 219 729 c 0,11,12
 189 729 189 729 149 700.5 c 128,-1,13
 109 672 109 672 65 613 c 0,14,15
 51 594 51 594 34 594 c 0,16,17
 20 594 20 594 9.5 607.5 c 128,-1,18
 -1 621 -1 621 -1 638 c 0,19,20
 -1 669 -1 669 27 708 c 0,21,22
 129 848 129 848 266 848 c 0,23,24
 327 848 327 848 361.5 811 c 128,-1,25
 396 774 396 774 396 702 c 0,26,27
 396 651 396 651 389 608 c 128,-1,28
 382 565 382 565 365 491 c 2,29,-1
 324 308 l 2,30,31
 322 299 322 299 317 276 c 128,-1,32
 312 253 312 253 309 232.5 c 128,-1,33
 306 212 306 212 306 192 c 0,34,35
 306 160 306 160 324 141 c 128,-1,36
 342 122 342 122 375 122 c 0,37,38
 435 122 435 122 496.5 186 c 128,-1,39
 558 250 558 250 610.5 392.5 c 128,-1,40
 663 535 663 535 692 757 c 0,41,42
 699 808 699 808 712.5 828 c 128,-1,43
 726 848 726 848 765 848 c 0,44,45
 818 848 818 848 843.5 872.5 c 128,-1,46
 869 897 869 897 879 951 c 0,47,48
 887 997 887 997 933 997 c 0,49,50
 960 997 960 997 976 981 c 128,-1,51
 992 965 992 965 992 934 c 0,52,53
 992 924 992 924 991 919 c 0,54,55
 983 847 983 847 942 798 c 128,-1,56
 901 749 901 749 833 733 c 1,57,58
 831 707 831 707 824 662 c 128,-1,59
 817 617 817 617 808 567 c 0,60,61
 805 547 805 547 790.5 460.5 c 128,-1,62
 776 374 776 374 765 284 c 0,63,64
 757 226 757 226 757 198 c 0,65,66
 757 157 757 157 775.5 135.5 c 128,-1,67
 794 114 794 114 825 114 c 0,68,69
 858 114 858 114 889.5 136 c 128,-1,70
 921 158 921 158 964 209 c 0,71,72
 976 223 976 223 991 223 c 0,73,74
 1004 223 1004 223 1011.5 211 c 128,-1,75
 1019 199 1019 199 1019 178 c 0,76,77
 1019 139 1019 139 1000 116 c 0,78,79
 948 53 948 53 897 24 c 128,-1,80
 846 -5 846 -5 790 -5 c 0,81,82
 707 -5 707 -5 663 37.5 c 128,-1,83
 619 80 619 80 619 148 c 0,84,85
 619 186 619 186 635 296 c 1,86,87
 585 149 585 149 508.5 72 c 128,-1,88
 432 -5 432 -5 332 -5 c 0,89,0
 248 -5 248 -5 205 41.5 c 128,-1,1
EndSplineSet
Substitution2: "'ss02' Style Set 2 in Latin lookup 25 subtable" Uhorn.ss01
Substitution2: "'ss01' Style Set 1 in Latin lookup 24 subtable" Uhorn.ss01
Substitution2: "'salt' Stylistic Alternatives in Latin lookup 23 subtable" Uhorn.ss01
Substitution2: "'case' Case-Sensitive Forms in Latin lookup 21 subtable" Uhorn.ss01
Substitution2: "'aalt' Access All Alternates in Latin lookup 0 subtable" Uhorn.ss01
EndChar

StartChar: V
Encoding: 86 86 183
Width: 763
Flags: W
LayerCount: 2
Fore
SplineSet
897.5 422 m 128,-1,1
 908 412 908 412 908 396 c 0,2,3
 908 370 908 370 892.5 350 c 128,-1,4
 877 330 877 330 844 329 c 0,5,6
 764 327 764 327 702 341 c 1,7,8
 631 192 631 192 530.5 93.5 c 128,-1,9
 430 -5 430 -5 329 -5 c 0,10,11
 225 -5 225 -5 174 116 c 128,-1,12
 123 237 123 237 123 443 c 0,13,14
 123 619 123 619 148 759 c 0,15,16
 157 811 157 811 173.5 829.5 c 128,-1,17
 190 848 190 848 230 848 c 0,18,19
 296 848 296 848 296 791 c 0,20,21
 296 785 296 785 294 769 c 0,22,23
 264 589 264 589 264 443 c 0,24,25
 264 290 264 290 289.5 210.5 c 128,-1,26
 315 131 315 131 366 131 c 0,27,28
 418 131 418 131 479 203 c 128,-1,29
 540 275 540 275 591 384 c 1,30,31
 530 422 530 422 499 482.5 c 128,-1,32
 468 543 468 543 468 622 c 256,33,34
 468 701 468 701 492.5 755.5 c 128,-1,35
 517 810 517 810 559.5 837 c 128,-1,36
 602 864 602 864 654 864 c 0,37,38
 718 864 718 864 755.5 818 c 128,-1,39
 793 772 793 772 793 692 c 0,40,41
 793 577 793 577 743 441 c 1,42,43
 796 432 796 432 864 432 c 0,44,0
 887 432 887 432 897.5 422 c 128,-1,1
632 484 m 1,46,47
 671 596 671 596 671 669 c 0,48,49
 671 711 671 711 660 730.5 c 128,-1,50
 649 750 649 750 630 750 c 0,51,52
 603 750 603 750 586 718.5 c 128,-1,53
 569 687 569 687 569 629 c 0,54,45
 569 531 569 531 632 484 c 1,46,47
EndSplineSet
Substitution2: "Single Substitution lookup 29 subtable" V.ss01
Substitution2: "'ss02' Style Set 2 in Latin lookup 25 subtable" V.ss01
Substitution2: "'ss01' Style Set 1 in Latin lookup 24 subtable" V.ss01
Substitution2: "'salt' Stylistic Alternatives in Latin lookup 23 subtable" V.ss01
Substitution2: "'case' Case-Sensitive Forms in Latin lookup 21 subtable" V.ss01
Substitution2: "'aalt' Access All Alternates in Latin lookup 0 subtable" V.ss01
EndChar

StartChar: W
Encoding: 87 87 184
Width: 1217
GlyphClass: 2
Flags: W
AnchorPoint: "Anchor-9" 0 0 basechar 0
AnchorPoint: "Anchor-8" 699 840 basechar 0
AnchorPoint: "Anchor-7" 0 0 basechar 0
AnchorPoint: "Anchor-6" 554 0 basechar 0
LayerCount: 2
Fore
SplineSet
1351.5 422 m 128,-1,1
 1362 412 1362 412 1362 396 c 0,2,3
 1362 370 1362 370 1346.5 350 c 128,-1,4
 1331 330 1331 330 1298 329 c 0,5,6
 1219 328 1219 328 1156 341 c 1,7,8
 1086 192 1086 192 987.5 93.5 c 128,-1,9
 889 -5 889 -5 793 -5 c 0,10,11
 705 -5 705 -5 661 88.5 c 128,-1,12
 617 182 617 182 611 339 c 1,13,14
 551 165 551 165 475.5 80 c 128,-1,15
 400 -5 400 -5 315 -5 c 0,16,17
 219 -5 219 -5 170 114.5 c 128,-1,18
 121 234 121 234 121 436 c 0,19,20
 121 583 121 583 147 759 c 0,21,22
 154 809 154 809 172.5 828.5 c 128,-1,23
 191 848 191 848 231 848 c 0,24,25
 261 848 261 848 277.5 835 c 128,-1,26
 294 822 294 822 294 787 c 0,27,28
 294 780 294 780 292 760 c 0,29,30
 262 555 262 555 262 411 c 0,31,32
 262 277 262 277 285 204 c 128,-1,33
 308 131 308 131 347 131 c 0,34,35
 382 131 382 131 431.5 204.5 c 128,-1,36
 481 278 481 278 530 422.5 c 128,-1,37
 579 567 579 567 613 767 c 0,38,39
 621 813 621 813 642.5 830.5 c 128,-1,40
 664 848 664 848 701 848 c 0,41,42
 732 848 732 848 746.5 834.5 c 128,-1,43
 761 821 761 821 761 794 c 0,44,45
 761 778 761 778 759 769 c 0,46,47
 731 606 731 606 731 443 c 0,48,49
 731 332 731 332 738.5 266 c 128,-1,50
 746 200 746 200 767.5 165.5 c 128,-1,51
 789 131 789 131 830 131 c 0,52,53
 878 131 878 131 937 203.5 c 128,-1,54
 996 276 996 276 1045 384 c 1,55,56
 984 422 984 422 953 482.5 c 128,-1,57
 922 543 922 543 922 622 c 256,58,59
 922 701 922 701 946.5 755.5 c 128,-1,60
 971 810 971 810 1013.5 837 c 128,-1,61
 1056 864 1056 864 1108 864 c 0,62,63
 1172 864 1172 864 1209.5 818 c 128,-1,64
 1247 772 1247 772 1247 692 c 0,65,66
 1247 579 1247 579 1198 441 c 1,67,68
 1249 432 1249 432 1318 432 c 0,69,0
 1341 432 1341 432 1351.5 422 c 128,-1,1
1086 484 m 1,71,72
 1125 596 1125 596 1125 669 c 0,73,74
 1125 711 1125 711 1114 730.5 c 128,-1,75
 1103 750 1103 750 1084 750 c 0,76,77
 1057 750 1057 750 1040 718.5 c 128,-1,78
 1023 687 1023 687 1023 629 c 0,79,70
 1023 531 1023 531 1086 484 c 1,71,72
EndSplineSet
Substitution2: "Single Substitution lookup 29 subtable" W.ss01
Substitution2: "'ss02' Style Set 2 in Latin lookup 25 subtable" W.ss01
Substitution2: "'ss01' Style Set 1 in Latin lookup 24 subtable" W.ss01
Substitution2: "'salt' Stylistic Alternatives in Latin lookup 23 subtable" W.ss01
Substitution2: "'case' Case-Sensitive Forms in Latin lookup 21 subtable" W.ss01
Substitution2: "'aalt' Access All Alternates in Latin lookup 0 subtable" W.ss01
EndChar

StartChar: X
Encoding: 88 88 189
Width: 712
Flags: W
LayerCount: 2
Fore
SplineSet
833.5 211 m 128,-1,1
 841 199 841 199 841 178 c 0,2,3
 841 139 841 139 822 116 c 0,4,5
 773 58 773 58 725 26.5 c 128,-1,6
 677 -5 677 -5 618 -5 c 0,7,8
 529 -5 529 -5 483.5 48 c 128,-1,9
 438 101 438 101 410 203 c 2,10,-1
 376 327 l 1,11,-1
 140 35 l 2,12,13
 120 10 120 10 99 2.5 c 128,-1,14
 78 -5 78 -5 50 -5 c 256,15,16
 22 -5 22 -5 3.5 5.5 c 128,-1,17
 -15 16 -15 16 -15 35 c 0,18,19
 -15 60 -15 60 14 92 c 2,20,-1
 338 461 l 1,21,-1
 306 578 l 2,22,23
 283 660 283 660 255 693 c 128,-1,24
 227 726 227 726 191 726 c 0,25,26
 138 726 138 726 67 649 c 0,27,28
 55 636 55 636 40 636 c 256,29,30
 25 636 25 636 14.5 647.5 c 128,-1,31
 4 659 4 659 4 677 c 0,32,33
 4 707 4 707 33 742 c 0,34,35
 74 790 74 790 122 819 c 128,-1,36
 170 848 170 848 236 848 c 0,37,38
 307 848 307 848 353 803.5 c 128,-1,39
 399 759 399 759 426 660 c 2,40,-1
 446 590 l 1,41,-1
 621 803 l 2,42,43
 641 827 641 827 662 837 c 128,-1,44
 683 847 683 847 713 847 c 0,45,46
 740 847 740 847 755.5 837 c 128,-1,47
 771 827 771 827 771 809 c 0,48,49
 771 785 771 785 744 754 c 2,50,-1
 484 454 l 1,51,-1
 541 250 l 2,52,53
 556 197 556 197 568 169 c 128,-1,54
 580 141 580 141 597.5 127.5 c 128,-1,55
 615 114 615 114 644 114 c 0,56,57
 675 114 675 114 708.5 136 c 128,-1,58
 742 158 742 158 786 209 c 0,59,60
 798 223 798 223 813 223 c 0,61,0
 826 223 826 223 833.5 211 c 128,-1,1
EndSplineSet
Substitution2: "'ss02' Style Set 2 in Latin lookup 25 subtable" X.ss01
Substitution2: "'ss01' Style Set 1 in Latin lookup 24 subtable" X.ss01
Substitution2: "'salt' Stylistic Alternatives in Latin lookup 23 subtable" X.ss01
Substitution2: "'case' Case-Sensitive Forms in Latin lookup 21 subtable" X.ss01
Substitution2: "'aalt' Access All Alternates in Latin lookup 0 subtable" X.ss01
EndChar

StartChar: Y
Encoding: 89 89 190
Width: 851
Flags: W
LayerCount: 2
Fore
SplineSet
926 226 m 0,1,2
 960 226 960 226 960 182 c 0,3,4
 960 158 960 158 949.5 141.5 c 128,-1,5
 939 125 939 125 917 121 c 0,6,7
 826 104 826 104 738 83 c 1,8,-1
 735 59 l 2,9,10
 707 -138 707 -138 623.5 -232.5 c 128,-1,11
 540 -327 540 -327 415 -327 c 0,12,13
 332 -327 332 -327 286.5 -286.5 c 128,-1,14
 241 -246 241 -246 241 -183 c 0,15,16
 241 -78 241 -78 335 4 c 128,-1,17
 429 86 429 86 620 149 c 1,18,-1
 640 290 l 2,19,20
 644 314 644 314 650 354 c 1,21,22
 603 230 603 230 530 169 c 128,-1,23
 457 108 457 108 367 108 c 0,24,25
 281 108 281 108 236 160.5 c 128,-1,26
 191 213 191 213 191 296 c 0,27,28
 191 333 191 333 199 377.5 c 128,-1,29
 207 422 207 422 224 498 c 0,30,31
 239 567 239 567 246.5 608 c 128,-1,32
 254 649 254 649 254 681 c 0,33,34
 254 729 254 729 217 729 c 0,35,36
 188 729 188 729 148.5 700.5 c 128,-1,37
 109 672 109 672 65 613 c 0,38,39
 51 594 51 594 34 594 c 0,40,41
 20 594 20 594 9.5 607.5 c 128,-1,42
 -1 621 -1 621 -1 638 c 0,43,44
 -1 669 -1 669 27 708 c 0,45,46
 129 848 129 848 266 848 c 0,47,48
 327 848 327 848 361.5 811 c 128,-1,49
 396 774 396 774 396 702 c 0,50,51
 396 650 396 650 386.5 595.5 c 128,-1,52
 377 541 377 541 358 457 c 0,53,54
 346 407 346 407 340 376.5 c 128,-1,55
 334 346 334 346 334 326 c 0,56,57
 334 275 334 275 352 253 c 128,-1,58
 370 231 370 231 415 231 c 0,59,60
 469 231 469 231 525.5 290.5 c 128,-1,61
 582 350 582 350 627.5 471 c 128,-1,62
 673 592 673 592 693 767 c 0,63,64
 698 811 698 811 716 829.5 c 128,-1,65
 734 848 734 848 768 848 c 0,66,67
 838 848 838 848 838 778 c 0,68,69
 838 766 838 766 837 759 c 0,70,71
 816 610 816 610 798 490 c 0,72,73
 788 418 788 418 776.5 342 c 128,-1,74
 765 266 765 266 754 188 c 1,75,76
 827 208 827 208 908 224 c 0,77,0
 914 226 914 226 926 226 c 0,1,2
605 44 m 1,78,79
 363 -40 363 -40 363 -160 c 0,80,81
 363 -188 363 -188 380.5 -206.5 c 128,-1,82
 398 -225 398 -225 430 -225 c 0,83,84
 569 -225 569 -225 604 37 c 2,85,-1
 605 44 l 1,78,79
EndSplineSet
Substitution2: "'ss02' Style Set 2 in Latin lookup 25 subtable" Y.ss01
Substitution2: "'ss01' Style Set 1 in Latin lookup 24 subtable" Y.ss01
Substitution2: "'salt' Stylistic Alternatives in Latin lookup 23 subtable" Y.ss01
Substitution2: "'case' Case-Sensitive Forms in Latin lookup 21 subtable" Y.ss01
Substitution2: "'aalt' Access All Alternates in Latin lookup 0 subtable" Y.ss01
EndChar

StartChar: Z
Encoding: 90 90 199
Width: 721
GlyphClass: 2
Flags: W
AnchorPoint: "Anchor-9" 0 0 basechar 0
AnchorPoint: "Anchor-8" 450 840 basechar 0
AnchorPoint: "Anchor-7" 0 0 basechar 0
AnchorPoint: "Anchor-6" 360 0 basechar 0
LayerCount: 2
Fore
SplineSet
842.5 211 m 128,-1,1
 850 199 850 199 850 178 c 0,2,3
 850 139 850 139 831 116 c 0,4,5
 775 49 775 49 722.5 22 c 128,-1,6
 670 -5 670 -5 596 -5 c 0,7,8
 544 -5 544 -5 500 8 c 128,-1,9
 456 21 456 21 393 47 c 0,10,11
 339 70 339 70 297 84 c 1,12,13
 251 34 251 34 214 14.5 c 128,-1,14
 177 -5 177 -5 136 -5 c 0,15,16
 81 -5 81 -5 48 20.5 c 128,-1,17
 15 46 15 46 15 87 c 0,18,19
 15 118 15 118 35.5 144 c 128,-1,20
 56 170 56 170 93 185 c 128,-1,21
 130 200 130 200 179 200 c 0,22,23
 207 200 207 200 221 199 c 1,24,25
 417 443 417 443 575 714 c 1,26,27
 489 729 489 729 400 729 c 0,28,29
 285 729 285 729 231.5 702.5 c 128,-1,30
 178 676 178 676 178 619 c 0,31,32
 178 602 178 602 182 590 c 128,-1,33
 186 578 186 578 194 562 c 0,34,35
 203 544 203 544 203 536 c 0,36,37
 203 516 203 516 184.5 502.5 c 128,-1,38
 166 489 166 489 142 489 c 0,39,40
 117 489 117 489 101 504 c 0,41,42
 82 521 82 521 70.5 550.5 c 128,-1,43
 59 580 59 580 59 617 c 0,44,45
 59 734 59 734 156 790 c 128,-1,46
 253 846 253 846 412 846 c 0,47,48
 491 846 491 846 573.5 837 c 128,-1,49
 656 828 656 828 728 808 c 0,50,51
 758 800 758 800 768 785.5 c 128,-1,52
 778 771 778 771 778 748 c 0,53,54
 778 721 778 721 764 706 c 128,-1,55
 750 691 750 691 725 691 c 2,56,-1
 718 691 l 1,57,58
 610 515 610 515 499 353 c 0,59,60
 410 224 410 224 374 178 c 1,61,62
 432 165 432 165 475 154 c 0,63,64
 528 140 528 140 560.5 133.5 c 128,-1,65
 593 127 593 127 617 127 c 0,66,67
 675 127 675 127 716.5 146.5 c 128,-1,68
 758 166 758 166 795 209 c 0,69,70
 807 223 807 223 822 223 c 0,71,0
 835 223 835 223 842.5 211 c 128,-1,1
EndSplineSet
Substitution2: "'ss02' Style Set 2 in Latin lookup 25 subtable" Z.ss01
Substitution2: "'ss01' Style Set 1 in Latin lookup 24 subtable" Z.ss01
Substitution2: "'salt' Stylistic Alternatives in Latin lookup 23 subtable" Z.ss01
Substitution2: "'case' Case-Sensitive Forms in Latin lookup 21 subtable" Z.ss01
Substitution2: "'aalt' Access All Alternates in Latin lookup 0 subtable" Z.ss01
EndChar

StartChar: A.ss01
Encoding: 65538 -1 204
Width: 780
GlyphClass: 2
Flags: W
AnchorPoint: "Anchor-9" 0 0 basechar 0
AnchorPoint: "Anchor-8" 592 840 basechar 0
AnchorPoint: "Anchor-7" 603 10 basechar 0
AnchorPoint: "Anchor-6" 384 0 basechar 0
LayerCount: 2
Fore
SplineSet
821 807 m 128,-1,1
 829 795 829 795 829 780 c 0,2,3
 829 756 829 756 810 736.5 c 128,-1,4
 791 717 791 717 759 717 c 0,5,6
 753 717 753 717 739 719 c 0,7,8
 673 732 673 732 609 732 c 0,9,10
 477 732 477 732 385.5 670 c 128,-1,11
 294 608 294 608 249 507.5 c 128,-1,12
 204 407 204 407 204 290 c 0,13,14
 204 199 204 199 237 156 c 128,-1,15
 270 113 270 113 328 113 c 0,16,17
 380 113 380 113 419 146.5 c 128,-1,18
 458 180 458 180 489 250.5 c 128,-1,19
 520 321 520 321 550 437 c 2,20,-1
 597 623 l 2,21,22
 603 648 603 648 625.5 660 c 128,-1,23
 648 672 648 672 678 672 c 0,24,25
 704 672 704 672 721.5 661.5 c 128,-1,26
 739 651 739 651 739 628 c 0,27,28
 739 620 739 620 736 611 c 0,29,30
 708 525 708 525 681.5 362.5 c 128,-1,31
 655 200 655 200 650 94 c 1,32,-1
 645 45 l 2,33,34
 643 22 643 22 621.5 8.5 c 128,-1,35
 600 -5 600 -5 568 -5 c 0,36,37
 534 -5 534 -5 517.5 9.5 c 128,-1,38
 501 24 501 24 501 50 c 0,39,40
 501 71 501 71 506 101 c 2,41,-1
 510 135 l 1,42,43
 439 -4 439 -4 301 -4 c 0,44,45
 239 -4 239 -4 183 25.5 c 128,-1,46
 127 55 127 55 91.5 119 c 128,-1,47
 56 183 56 183 56 280 c 0,48,49
 56 432 56 432 120.5 562 c 128,-1,50
 185 692 185 692 313 770 c 128,-1,51
 441 848 441 848 621 848 c 0,52,53
 718 848 718 848 797 824 c 0,54,0
 813 819 813 819 821 807 c 128,-1,1
EndSplineSet
EndChar

StartChar: Aringacute.ss01
Encoding: 65561 -1 227
Width: 780
GlyphClass: 2
Flags: W
AnchorPoint: "Anchor-9" 0 0 basechar 0
AnchorPoint: "Anchor-8" 592 840 basechar 0
AnchorPoint: "Anchor-7" 603 10 basechar 0
AnchorPoint: "Anchor-6" 384 0 basechar 0
LayerCount: 2
Fore
SplineSet
957.5 1281 m 128,-1,1
 974 1265 974 1265 974 1243 c 0,2,3
 974 1226 974 1226 963 1209.5 c 128,-1,4
 952 1193 952 1193 929 1183 c 2,5,-1
 812 1131 l 2,6,7
 804 1127 804 1127 794 1127 c 0,8,9
 780 1127 780 1127 771 1136 c 128,-1,10
 762 1145 762 1145 762 1158 c 0,11,12
 762 1173 762 1173 778 1188 c 2,13,-1
 882 1282 l 2,14,15
 898 1297 898 1297 919 1297 c 0,16,0
 941 1297 941 1297 957.5 1281 c 128,-1,1
520 947.5 m 128,-1,18
 482 983 482 983 482 1044 c 0,19,20
 482 1089 482 1089 501.5 1122.5 c 128,-1,21
 521 1156 521 1156 553.5 1174 c 128,-1,22
 586 1192 586 1192 623 1192 c 0,23,24
 676 1192 676 1192 714 1156.5 c 128,-1,25
 752 1121 752 1121 752 1060 c 0,26,27
 752 1015 752 1015 732.5 981.5 c 128,-1,28
 713 948 713 948 680.5 930 c 128,-1,29
 648 912 648 912 611 912 c 0,30,17
 558 912 558 912 520 947.5 c 128,-1,18
585 1089 m 128,-1,32
 571 1074 571 1074 571 1049 c 0,33,34
 571 1027 571 1027 584 1013.5 c 128,-1,35
 597 1000 597 1000 615 1000 c 0,36,37
 635 1000 635 1000 649 1015 c 128,-1,38
 663 1030 663 1030 663 1055 c 0,39,40
 663 1077 663 1077 650 1090.5 c 128,-1,41
 637 1104 637 1104 619 1104 c 0,42,31
 599 1104 599 1104 585 1089 c 128,-1,32
821 807 m 128,-1,44
 829 795 829 795 829 780 c 0,45,46
 829 756 829 756 810 736.5 c 128,-1,47
 791 717 791 717 759 717 c 0,48,49
 753 717 753 717 739 719 c 0,50,51
 673 732 673 732 609 732 c 0,52,53
 477 732 477 732 385.5 670 c 128,-1,54
 294 608 294 608 249 507.5 c 128,-1,55
 204 407 204 407 204 290 c 0,56,57
 204 199 204 199 237 156 c 128,-1,58
 270 113 270 113 328 113 c 0,59,60
 380 113 380 113 419 146.5 c 128,-1,61
 458 180 458 180 489 250.5 c 128,-1,62
 520 321 520 321 550 437 c 2,63,-1
 597 623 l 2,64,65
 603 648 603 648 625.5 660 c 128,-1,66
 648 672 648 672 678 672 c 0,67,68
 704 672 704 672 721.5 661.5 c 128,-1,69
 739 651 739 651 739 628 c 0,70,71
 739 620 739 620 736 611 c 0,72,73
 708 525 708 525 681.5 362.5 c 128,-1,74
 655 200 655 200 650 94 c 1,75,-1
 645 45 l 2,76,77
 643 22 643 22 621.5 8.5 c 128,-1,78
 600 -5 600 -5 568 -5 c 0,79,80
 534 -5 534 -5 517.5 9.5 c 128,-1,81
 501 24 501 24 501 50 c 0,82,83
 501 71 501 71 506 101 c 2,84,-1
 510 135 l 1,85,86
 439 -4 439 -4 301 -4 c 0,87,88
 239 -4 239 -4 183 25.5 c 128,-1,89
 127 55 127 55 91.5 119 c 128,-1,90
 56 183 56 183 56 280 c 0,91,92
 56 432 56 432 120.5 562 c 128,-1,93
 185 692 185 692 313 770 c 128,-1,94
 441 848 441 848 621 848 c 0,95,96
 718 848 718 848 797 824 c 0,97,43
 813 819 813 819 821 807 c 128,-1,44
EndSplineSet
EndChar

StartChar: AE.ss01
Encoding: 65563 -1 229
Width: 1057
GlyphClass: 2
Flags: W
AnchorPoint: "Anchor-9" 0 0 basechar 0
AnchorPoint: "Anchor-8" 703 840 basechar 0
AnchorPoint: "Anchor-7" 0 0 basechar 0
AnchorPoint: "Anchor-6" 576 0 basechar 0
LayerCount: 2
Fore
SplineSet
870.5 717 m 128,-1,1
 800 714 800 714 768 710 c 1,2,3
 744 638 744 638 710 483 c 1,4,5
 756 485 756 485 776 485 c 0,6,7
 883 490 883 490 957 490 c 0,8,9
 987 490 987 490 998.5 477.5 c 128,-1,10
 1010 465 1010 465 1010 441 c 0,11,12
 1010 410 1010 410 992.5 389.5 c 128,-1,13
 975 369 975 369 944 368 c 2,14,-1
 831 365 l 2,15,16
 779 363 779 363 686 361 c 1,17,18
 675 312 675 312 675 274 c 0,19,20
 675 115 675 115 862 115 c 0,21,22
 913 115 913 115 990 139 c 0,23,24
 1007 144 1007 144 1017 144 c 0,25,26
 1056 144 1056 144 1056 97 c 0,27,28
 1056 69 1056 69 1044 51.5 c 128,-1,29
 1032 34 1032 34 1000 22 c 0,30,31
 923 -5 923 -5 839 -5 c 0,32,33
 716 -5 716 -5 644 43.5 c 128,-1,34
 572 92 572 92 550 173 c 1,35,36
 471 -5 471 -5 312 -5 c 0,37,38
 237 -5 237 -5 179 29 c 128,-1,39
 121 63 121 63 88.5 127.5 c 128,-1,40
 56 192 56 192 56 280 c 0,41,42
 56 426 56 426 114.5 548.5 c 128,-1,43
 173 671 173 671 277 748.5 c 128,-1,44
 381 826 381 826 511 842 c 0,45,46
 519 843 519 843 532 843 c 0,47,48
 597 843 597 843 597 780 c 0,49,50
 597 759 597 759 587.5 745.5 c 128,-1,51
 578 732 578 732 559 730 c 0,52,53
 445 717 445 717 364.5 656 c 128,-1,54
 284 595 284 595 243.5 499.5 c 128,-1,55
 203 404 203 404 203 290 c 0,56,57
 203 205 203 205 236.5 158.5 c 128,-1,58
 270 112 270 112 324 112 c 0,59,60
 407 112 407 112 457.5 194.5 c 128,-1,61
 508 277 508 277 550 431 c 2,62,-1
 631 727 l 2,63,64
 646 782 646 782 680.5 810 c 128,-1,65
 715 838 715 838 766 840 c 2,66,-1
 818 843 l 2,67,68
 944 849 944 849 1016 849 c 0,69,70
 1052 849 1052 849 1066 836.5 c 128,-1,71
 1080 824 1080 824 1080 795 c 0,72,73
 1080 764 1080 764 1062 742 c 128,-1,74
 1044 720 1044 720 1008 720 c 0,75,0
 941 720 941 720 870.5 717 c 128,-1,1
EndSplineSet
EndChar

StartChar: B.ss01
Encoding: 65565 -1 231
Width: 826
Flags: W
LayerCount: 2
Fore
SplineSet
755 498 m 128,-1,1
 700 439 700 439 595 411 c 1,2,3
 670 392 670 392 705.5 355.5 c 128,-1,4
 741 319 741 319 741 261 c 0,5,6
 741 182 741 182 691.5 124 c 128,-1,7
 642 66 642 66 548 34.5 c 128,-1,8
 454 3 454 3 322 3 c 0,9,10
 238 3 238 3 153 13 c 0,11,12
 114 17 114 17 99 32 c 128,-1,13
 84 47 84 47 86 76 c 0,14,15
 97 216 97 216 118 338 c 128,-1,16
 139 460 139 460 179 603 c 0,17,18
 186 629 186 629 205 639.5 c 128,-1,19
 224 650 224 650 260 650 c 0,20,21
 321 650 321 650 321 614 c 0,22,23
 321 600 321 600 315 582 c 0,24,25
 290 500 290 500 262 350 c 128,-1,26
 234 200 234 200 229 117 c 1,27,28
 259 112 259 112 326 112 c 0,29,30
 463 112 463 112 528 152.5 c 128,-1,31
 593 193 593 193 593 256 c 0,32,33
 593 301 593 301 552.5 330.5 c 128,-1,34
 512 360 512 360 413 363 c 0,35,36
 392 364 392 364 384.5 372 c 128,-1,37
 377 380 377 380 377 401 c 0,38,39
 377 431 377 431 389 449 c 128,-1,40
 401 467 401 467 433 468 c 0,41,42
 493 470 493 470 545 489 c 128,-1,43
 597 508 597 508 629 543 c 128,-1,44
 661 578 661 578 661 623 c 0,45,46
 661 680 661 680 608 714 c 128,-1,47
 555 748 555 748 454 748 c 0,48,49
 397 748 397 748 338.5 738 c 128,-1,50
 280 728 280 728 210 709 c 0,51,52
 207 708 207 708 200 708 c 0,53,54
 184 708 184 708 173 720.5 c 128,-1,55
 162 733 162 733 162 752 c 0,56,57
 162 781 162 781 178.5 799.5 c 128,-1,58
 195 818 195 818 222 826 c 0,59,60
 285 844 285 844 339 853 c 128,-1,61
 393 862 393 862 475 862 c 0,62,63
 581 862 581 862 656.5 833 c 128,-1,64
 732 804 732 804 771 753.5 c 128,-1,65
 810 703 810 703 810 640 c 0,66,0
 810 557 810 557 755 498 c 128,-1,1
EndSplineSet
EndChar

StartChar: C.ss01
Encoding: 65566 -1 232
Width: 704
GlyphClass: 2
Flags: W
AnchorPoint: "Anchor-9" 0 0 basechar 0
AnchorPoint: "Anchor-8" 481 840 basechar 0
AnchorPoint: "Anchor-7" 0 0 basechar 0
AnchorPoint: "Anchor-6" 385 0 basechar 0
LayerCount: 2
Fore
SplineSet
224.5 35 m 128,-1,1
 150 75 150 75 107.5 155 c 128,-1,2
 65 235 65 235 65 350 c 0,3,4
 65 495 65 495 121.5 609 c 128,-1,5
 178 723 178 723 273.5 785.5 c 128,-1,6
 369 848 369 848 482 848 c 0,7,8
 590 848 590 848 646 792.5 c 128,-1,9
 702 737 702 737 702 646 c 0,10,11
 702 585 702 585 680 547.5 c 128,-1,12
 658 510 658 510 619 510 c 0,13,14
 591 510 591 510 575 523.5 c 128,-1,15
 559 537 559 537 559 562 c 0,16,17
 559 578 559 578 564 601 c 0,18,19
 565 607 565 607 567 620.5 c 128,-1,20
 569 634 569 634 569 643 c 0,21,22
 569 734 569 734 472 734 c 0,23,24
 406 734 406 734 346 691 c 128,-1,25
 286 648 286 648 249 564.5 c 128,-1,26
 212 481 212 481 212 367 c 0,27,28
 212 236 212 236 264.5 176.5 c 128,-1,29
 317 117 317 117 415 117 c 0,30,31
 475 117 475 117 529 141.5 c 128,-1,32
 583 166 583 166 639 218 c 0,33,34
 657 235 657 235 673 235 c 0,35,36
 687 235 687 235 695 222 c 128,-1,37
 703 209 703 209 703 189 c 0,38,39
 703 171 703 171 696.5 153 c 128,-1,40
 690 135 690 135 676 121 c 0,41,42
 617 58 617 58 544 26.5 c 128,-1,43
 471 -5 471 -5 395 -5 c 0,44,0
 299 -5 299 -5 224.5 35 c 128,-1,1
EndSplineSet
EndChar

StartChar: D.ss01
Encoding: 65572 -1 238
Width: 810
GlyphClass: 2
Flags: W
AnchorPoint: "Anchor-9" 0 0 basechar 0
AnchorPoint: "Anchor-8" 451 840 basechar 0
AnchorPoint: "Anchor-7" 0 0 basechar 0
AnchorPoint: "Anchor-6" 341 0 basechar 0
LayerCount: 2
Fore
SplineSet
219 -3 m 128,-1,1
 192 -1 192 -1 151 5 c 0,2,3
 111 10 111 10 95.5 26 c 128,-1,4
 80 42 80 42 83 78 c 0,5,6
 91 180 91 180 116.5 324.5 c 128,-1,7
 142 469 142 469 179 603 c 0,8,9
 192 650 192 650 260 650 c 0,10,11
 321 650 321 650 321 614 c 0,12,13
 321 600 321 600 315 582 c 0,14,15
 290 501 290 501 265 367 c 128,-1,16
 240 233 240 233 229 111 c 1,17,18
 268 108 268 108 296 108 c 0,19,20
 471 108 471 108 557.5 212.5 c 128,-1,21
 644 317 644 317 644 489 c 0,22,23
 644 616 644 616 577.5 681 c 128,-1,24
 511 746 511 746 404 746 c 0,25,26
 362 746 362 746 321.5 739 c 128,-1,27
 281 732 281 732 223 714 c 0,28,29
 205 708 205 708 193 708 c 0,30,31
 157 708 157 708 157 749 c 0,32,33
 157 781 157 781 174.5 798.5 c 128,-1,34
 192 816 192 816 244 834 c 0,35,36
 317 860 317 860 415 860 c 0,37,38
 533 860 533 860 617.5 814.5 c 128,-1,39
 702 769 702 769 746.5 686.5 c 128,-1,40
 791 604 791 604 791 494 c 0,41,42
 791 344 791 344 731 231.5 c 128,-1,43
 671 119 671 119 556 57 c 128,-1,44
 441 -5 441 -5 282 -5 c 0,45,0
 246 -5 246 -5 219 -3 c 128,-1,1
EndSplineSet
EndChar

StartChar: E.ss01
Encoding: 65577 -1 243
Width: 720
GlyphClass: 2
Flags: W
AnchorPoint: "Anchor-9" 0 0 basechar 0
AnchorPoint: "Anchor-8" 458 840 basechar 0
AnchorPoint: "Anchor-7" 485 10 basechar 0
AnchorPoint: "Anchor-6" 351 0 basechar 0
LayerCount: 2
Fore
SplineSet
675 235 m 0,1,2
 689 235 689 235 697 222 c 128,-1,3
 705 209 705 209 705 189 c 0,4,5
 705 172 705 172 698.5 153.5 c 128,-1,6
 692 135 692 135 679 121 c 0,7,8
 620 57 620 57 539 26 c 128,-1,9
 458 -5 458 -5 351 -5 c 0,10,11
 254 -5 254 -5 184.5 24 c 128,-1,12
 115 53 115 53 79 103 c 128,-1,13
 43 153 43 153 43 215 c 0,14,15
 43 299 43 299 95.5 359.5 c 128,-1,16
 148 420 148 420 249 448 c 1,17,18
 187 464 187 464 150 509 c 128,-1,19
 113 554 113 554 113 612 c 0,20,21
 113 680 113 680 160 734 c 128,-1,22
 207 788 207 788 285.5 818 c 128,-1,23
 364 848 364 848 456 848 c 0,24,25
 586 848 586 848 650 794.5 c 128,-1,26
 714 741 714 741 714 656 c 0,27,28
 714 596 714 596 691.5 559 c 128,-1,29
 669 522 669 522 627 522 c 0,30,31
 599 522 599 522 583 535.5 c 128,-1,32
 567 549 567 549 567 574 c 0,33,34
 567 591 567 591 572 611 c 0,35,36
 577 644 577 644 577 656 c 0,37,38
 577 692 577 692 548.5 714.5 c 128,-1,39
 520 737 520 737 451 737 c 0,40,41
 364 737 364 737 312.5 701 c 128,-1,42
 261 665 261 665 261 604 c 0,43,44
 261 559 261 559 306 527.5 c 128,-1,45
 351 496 351 496 438 493 c 0,46,47
 460 492 460 492 469 483 c 128,-1,48
 478 474 478 474 478 453 c 0,49,50
 478 387 478 387 418 386 c 0,51,52
 299 383 299 383 245.5 341 c 128,-1,53
 192 299 192 299 192 240 c 0,54,55
 192 182 192 182 240.5 148.5 c 128,-1,56
 289 115 289 115 376 115 c 0,57,58
 455 115 455 115 519.5 140 c 128,-1,59
 584 165 584 165 642 218 c 0,60,0
 660 235 660 235 675 235 c 0,1,2
EndSplineSet
EndChar

StartChar: F.ss01
Encoding: 65597 -1 263
Width: 671
Flags: W
LayerCount: 2
Fore
SplineSet
725 839 m 128,-1,1
 744 824 744 824 744 796 c 0,2,3
 744 744 744 744 682 733 c 0,4,5
 602 718 602 718 422 718 c 2,6,-1
 379 718 l 1,7,8
 348 557 348 557 330 457 c 1,9,-1
 548 461 l 2,10,11
 585 461 585 461 597.5 448.5 c 128,-1,12
 610 436 610 436 610 413 c 0,13,14
 610 379 610 379 590.5 360.5 c 128,-1,15
 571 342 571 342 533 342 c 2,16,-1
 310 340 l 1,17,18
 278 131 278 131 272 55 c 0,19,20
 268 -5 268 -5 201 -5 c 0,21,22
 165 -5 165 -5 147.5 11 c 128,-1,23
 130 27 130 27 130 55 c 0,24,25
 130 87 130 87 139.5 153 c 128,-1,26
 149 219 149 219 169 337 c 1,27,-1
 111 336 l 2,28,29
 89 336 89 336 74.5 344.5 c 128,-1,30
 60 353 60 353 60 381 c 0,31,32
 60 414 60 414 78 434 c 128,-1,33
 96 454 96 454 128 454 c 2,34,-1
 189 455 l 1,35,36
 201 522 201 522 236 699 c 2,37,-1
 240 720 l 1,38,-1
 184 723 l 2,39,40
 136 727 136 727 112.5 743 c 128,-1,41
 89 759 89 759 89 793 c 0,42,43
 89 821 89 821 107 833 c 128,-1,44
 125 845 125 845 165 845 c 0,45,46
 206 845 206 845 284 843 c 0,47,48
 342 840 342 840 402 840 c 0,49,50
 524 840 524 840 667 851 c 0,51,0
 706 854 706 854 725 839 c 128,-1,1
EndSplineSet
EndChar

StartChar: G.ss01
Encoding: 65598 -1 264
Width: 811
GlyphClass: 2
Flags: W
AnchorPoint: "Anchor-9" 0 0 basechar 0
AnchorPoint: "Anchor-8" 496 840 basechar 0
AnchorPoint: "Anchor-7" 0 0 basechar 0
AnchorPoint: "Anchor-6" 411 0 basechar 0
LayerCount: 2
Fore
SplineSet
743.5 370.5 m 128,-1,1
 761 355 761 355 760 320 c 0,2,3
 757 262 757 262 733 87 c 2,4,-1
 724 26 l 2,5,6
 703 -124 703 -124 691 -185 c 0,7,8
 679 -247 679 -247 620 -247 c 0,9,10
 565 -247 565 -247 565 -190 c 0,11,12
 565 -180 565 -180 566 -175 c 0,13,14
 570 -136 570 -136 581 -75 c 0,15,16
 584 -55 584 -55 588 -30 c 128,-1,17
 592 -5 592 -5 596 24 c 1,18,19
 519 -5 519 -5 441 -5 c 0,20,21
 329 -5 329 -5 244 38.5 c 128,-1,22
 159 82 159 82 112 162 c 128,-1,23
 65 242 65 242 65 348 c 0,24,25
 65 496 65 496 121 609.5 c 128,-1,26
 177 723 177 723 275.5 785.5 c 128,-1,27
 374 848 374 848 496 848 c 0,28,29
 613 848 613 848 671.5 793.5 c 128,-1,30
 730 739 730 739 730 649 c 0,31,32
 730 590 730 590 708.5 554.5 c 128,-1,33
 687 519 687 519 647 519 c 0,34,35
 620 519 620 519 603.5 532 c 128,-1,36
 587 545 587 545 587 568 c 0,37,38
 587 578 587 578 591 602 c 0,39,40
 597 630 597 630 597 646 c 0,41,42
 597 688 597 688 571.5 711 c 128,-1,43
 546 734 546 734 486 734 c 0,44,45
 413 734 413 734 350.5 692 c 128,-1,46
 288 650 288 650 250 566.5 c 128,-1,47
 212 483 212 483 212 366 c 0,48,49
 212 246 212 246 277.5 180.5 c 128,-1,50
 343 115 343 115 467 115 c 0,51,52
 536 115 536 115 612 141 c 1,53,54
 619 206 619 206 625 268 c 1,55,-1
 538 268 l 2,56,57
 502 268 502 268 483.5 281.5 c 128,-1,58
 465 295 465 295 465 326 c 0,59,60
 465 354 465 354 484 370 c 128,-1,61
 503 386 503 386 535 386 c 2,62,-1
 690 386 l 2,63,0
 726 386 726 386 743.5 370.5 c 128,-1,1
EndSplineSet
EndChar

StartChar: H.ss01
Encoding: 65604 -1 270
Width: 846
GlyphClass: 2
Flags: W
AnchorPoint: "Anchor-9" 0 0 basechar 0
AnchorPoint: "Anchor-8" 505 840 basechar 0
AnchorPoint: "Anchor-7" 0 0 basechar 0
AnchorPoint: "Anchor-6" 390 0 basechar 0
LayerCount: 2
Fore
SplineSet
828.5 477 m 128,-1,1
 843 463 843 463 843 440 c 0,2,3
 843 406 843 406 825 388 c 128,-1,4
 807 370 807 370 758 370 c 2,5,-1
 733 370 l 1,6,-1
 731 357 l 2,7,8
 720 290 720 290 708.5 201.5 c 128,-1,9
 697 113 697 113 693 65 c 0,10,11
 690 28 690 28 671 11.5 c 128,-1,12
 652 -5 652 -5 618 -5 c 0,13,14
 549 -5 549 -5 549 55 c 0,15,16
 549 87 549 87 558.5 152.5 c 128,-1,17
 568 218 568 218 587 329 c 2,18,-1
 591 355 l 1,19,-1
 594 370 l 1,20,-1
 413 370 l 1,21,-1
 276 368 l 1,22,-1
 274 357 l 2,23,24
 263 290 263 290 251.5 201.5 c 128,-1,25
 240 113 240 113 236 65 c 0,26,27
 233 28 233 28 214 11.5 c 128,-1,28
 195 -5 195 -5 161 -5 c 0,29,30
 92 -5 92 -5 92 55 c 0,31,32
 92 87 92 87 101.5 152.5 c 128,-1,33
 111 218 111 218 130 329 c 2,34,-1
 134 355 l 1,35,-1
 136 365 l 1,36,-1
 104 364 l 2,37,38
 51 364 51 364 51 411 c 0,39,40
 51 447 51 447 70 465.5 c 128,-1,41
 89 484 89 484 135 484 c 2,42,-1
 157 484 l 1,43,-1
 157 486 l 1,44,45
 169 553 169 553 180.5 642 c 128,-1,46
 192 731 192 731 195 778 c 0,47,48
 198 815 198 815 218 831.5 c 128,-1,49
 238 848 238 848 276 848 c 0,50,51
 339 848 339 848 339 788 c 0,52,53
 339 759 339 759 330.5 701 c 128,-1,54
 322 643 322 643 305 543 c 2,55,-1
 296 488 l 1,56,-1
 295 485 l 1,57,-1
 431 486 l 1,58,-1
 614 489 l 1,59,60
 625 553 625 553 636.5 640.5 c 128,-1,61
 648 728 648 728 652 778 c 0,62,63
 655 815 655 815 675 831.5 c 128,-1,64
 695 848 695 848 733 848 c 0,65,66
 796 848 796 848 796 788 c 0,67,68
 796 760 796 760 786 692 c 128,-1,69
 776 624 776 624 763 549 c 2,70,-1
 753 491 l 1,71,-1
 782 491 l 2,72,0
 814 491 814 491 828.5 477 c 128,-1,1
EndSplineSet
EndChar

StartChar: Hbar.ss01
Encoding: 65605 -1 271
Width: 856
Flags: W
LayerCount: 2
Fore
SplineSet
776 599 m 1,0,1
 769 546 769 546 758 491 c 1,2,-1
 787 491 l 2,3,4
 819 491 819 491 833.5 477 c 128,-1,5
 848 463 848 463 848 440 c 0,6,7
 848 406 848 406 830 388 c 128,-1,8
 812 370 812 370 763 370 c 2,9,-1
 738 370 l 1,10,-1
 736 357 l 2,11,12
 725 290 725 290 713.5 201.5 c 128,-1,13
 702 113 702 113 698 65 c 0,14,15
 695 28 695 28 676 11.5 c 128,-1,16
 657 -5 657 -5 623 -5 c 0,17,18
 554 -5 554 -5 554 55 c 0,19,20
 554 87 554 87 563.5 152.5 c 128,-1,21
 573 218 573 218 592 329 c 2,22,-1
 596 355 l 1,23,-1
 599 370 l 1,24,-1
 418 370 l 1,25,-1
 281 368 l 1,26,-1
 279 357 l 2,27,28
 268 290 268 290 256.5 201.5 c 128,-1,29
 245 113 245 113 241 65 c 0,30,31
 238 28 238 28 219 11.5 c 128,-1,32
 200 -5 200 -5 166 -5 c 0,33,34
 97 -5 97 -5 97 55 c 0,35,36
 97 87 97 87 106.5 152.5 c 128,-1,37
 116 218 116 218 135 329 c 2,38,-1
 139 355 l 1,39,-1
 141 365 l 1,40,-1
 109 364 l 2,41,42
 56 364 56 364 56 411 c 0,43,44
 56 447 56 447 75 465.5 c 128,-1,45
 94 484 94 484 140 484 c 2,46,-1
 162 484 l 1,47,-1
 162 486 l 1,48,49
 172 537 172 537 179 595 c 1,50,-1
 140 594 l 2,51,52
 88 594 88 594 88 634 c 0,53,54
 88 665 88 665 107 681 c 128,-1,55
 126 697 126 697 172 697 c 2,56,-1
 192 697 l 1,57,58
 199 750 199 750 200 778 c 0,59,60
 203 815 203 815 223 831.5 c 128,-1,61
 243 848 243 848 281 848 c 0,62,63
 344 848 344 848 344 788 c 0,64,65
 344 757 344 757 335 698 c 1,66,-1
 468 699 l 2,67,68
 535 699 535 699 649 701 c 1,69,70
 650 710 650 710 657 778 c 0,71,72
 660 815 660 815 680 831.5 c 128,-1,73
 700 848 700 848 738 848 c 0,74,75
 801 848 801 848 801 788 c 0,76,77
 801 761 801 761 793 703 c 1,78,-1
 819 703 l 2,79,80
 851 703 851 703 865.5 691 c 128,-1,81
 880 679 880 679 880 659 c 0,82,83
 880 630 880 630 862 614.5 c 128,-1,84
 844 599 844 599 795 599 c 2,85,-1
 776 599 l 1,0,1
636 599 m 1,87,-1
 450 599 l 1,88,-1
 319 598 l 1,89,-1
 301 488 l 1,90,-1
 300 485 l 1,91,-1
 436 486 l 1,92,-1
 619 489 l 1,93,86
 628 538 628 538 636 599 c 1,87,-1
EndSplineSet
EndChar

StartChar: I.ss01
Encoding: 65607 -1 273
Width: 357
GlyphClass: 2
Flags: W
AnchorPoint: "Anchor-9" 0 0 basechar 0
AnchorPoint: "Anchor-8" 262 840 basechar 0
AnchorPoint: "Anchor-7" 198 10 basechar 0
AnchorPoint: "Anchor-6" 145 0 basechar 0
LayerCount: 2
Fore
SplineSet
78 55 m 0,1,2
 78 87 78 87 87.5 152.5 c 128,-1,3
 97 218 97 218 116 329 c 2,4,-1
 120 355 l 1,5,-1
 143 486 l 2,6,7
 154 550 154 550 165.5 638.5 c 128,-1,8
 177 727 177 727 181 778 c 0,9,10
 184 815 184 815 204 831.5 c 128,-1,11
 224 848 224 848 262 848 c 0,12,13
 325 848 325 848 325 788 c 0,14,15
 325 759 325 759 316.5 701 c 128,-1,16
 308 643 308 643 291 543 c 2,17,-1
 282 488 l 1,18,-1
 260 357 l 2,19,20
 249 290 249 290 237.5 201.5 c 128,-1,21
 226 113 226 113 222 65 c 0,22,23
 219 28 219 28 200 11.5 c 128,-1,24
 181 -5 181 -5 147 -5 c 0,25,0
 78 -5 78 -5 78 55 c 0,1,2
EndSplineSet
EndChar

StartChar: J.ss01
Encoding: 65622 -1 288
Width: 716
GlyphClass: 2
Flags: W
AnchorPoint: "Anchor-9" 0 0 basechar 0
AnchorPoint: "Anchor-8" 447 840 basechar 0
AnchorPoint: "Anchor-7" 0 0 basechar 0
AnchorPoint: "Anchor-6" 310 0 basechar 0
LayerCount: 2
Fore
SplineSet
724 767 m 0,1,2
 724 736 724 736 711.5 720.5 c 128,-1,3
 699 705 699 705 669 705 c 1,4,5
 657 604 657 604 631 438 c 2,6,-1
 627 411 l 2,7,8
 604 260 604 260 563 168 c 128,-1,9
 522 76 522 76 460 34 c 128,-1,10
 398 -8 398 -8 310 -8 c 0,11,12
 238 -8 238 -8 176 25.5 c 128,-1,13
 114 59 114 59 86 111 c 0,14,15
 74 134 74 134 74 159 c 0,16,17
 74 186 74 186 88 205 c 128,-1,18
 102 224 102 224 127 224 c 0,19,20
 141 224 141 224 153 214.5 c 128,-1,21
 165 205 165 205 180 181 c 0,22,23
 207 139 207 139 239 117.5 c 128,-1,24
 271 96 271 96 315 96 c 0,25,26
 351 96 351 96 381 112.5 c 128,-1,27
 411 129 411 129 436.5 180.5 c 128,-1,28
 462 232 462 232 476 330 c 0,29,30
 505 528 505 528 528 721 c 1,31,32
 466 726 466 726 417 726 c 0,33,34
 196 726 196 726 196 613 c 0,35,36
 196 583 196 583 216 548 c 0,37,38
 222 538 222 538 222 527 c 0,39,40
 222 506 222 506 200.5 489.5 c 128,-1,41
 179 473 179 473 154 473 c 0,42,43
 122 473 122 473 105 500 c 0,44,45
 77 546 77 546 77 607 c 0,46,47
 77 731 77 731 180.5 789 c 128,-1,48
 284 847 284 847 457 847 c 0,49,50
 571 847 571 847 667 823 c 0,51,0
 724 809 724 809 724 767 c 0,1,2
EndSplineSet
EndChar

StartChar: K.ss01
Encoding: 65624 -1 290
Width: 779
GlyphClass: 2
Flags: W
AnchorPoint: "Anchor-9" 0 0 basechar 0
AnchorPoint: "Anchor-8" 489 840 basechar 0
AnchorPoint: "Anchor-7" 0 0 basechar 0
AnchorPoint: "Anchor-6" 365 0 basechar 0
LayerCount: 2
Fore
SplineSet
740 124 m 0,1,2
 758 124 758 124 769 110.5 c 128,-1,3
 780 97 780 97 780 78 c 0,4,5
 780 61 780 61 770 45 c 128,-1,6
 760 29 760 29 741 18 c 0,7,8
 723 8 723 8 694 1.5 c 128,-1,9
 665 -5 665 -5 638 -5 c 0,10,11
 564 -5 564 -5 517 38.5 c 128,-1,12
 470 82 470 82 429 174 c 0,13,14
 397 245 397 245 376.5 278 c 128,-1,15
 356 311 356 311 335 323 c 128,-1,16
 314 335 314 335 279 336 c 2,17,-1
 264 336 l 1,18,19
 253 272 253 272 243 192 c 128,-1,20
 233 112 233 112 229 65 c 0,21,22
 226 28 226 28 207 11.5 c 128,-1,23
 188 -5 188 -5 154 -5 c 0,24,25
 85 -5 85 -5 85 55 c 0,26,27
 85 86 85 86 94.5 150.5 c 128,-1,28
 104 215 104 215 124 335 c 1,29,-1
 119 335 l 2,30,31
 96 335 96 335 83 348 c 128,-1,32
 70 361 70 361 70 384 c 0,33,34
 70 410 70 410 83.5 425.5 c 128,-1,35
 97 441 97 441 117 441 c 2,36,-1
 142 441 l 1,37,-1
 150 486 l 2,38,39
 161 550 161 550 172.5 638.5 c 128,-1,40
 184 727 184 727 188 778 c 0,41,42
 191 815 191 815 211 831.5 c 128,-1,43
 231 848 231 848 269 848 c 0,44,45
 332 848 332 848 332 788 c 0,46,47
 332 759 332 759 323.5 701 c 128,-1,48
 315 643 315 643 298 543 c 2,49,-1
 289 488 l 1,50,-1
 281 441 l 1,51,52
 411 443 411 443 491 533 c 128,-1,53
 571 623 571 623 623 784 c 0,54,55
 632 813 632 813 652 827.5 c 128,-1,56
 672 842 672 842 708 842 c 0,57,58
 734 842 734 842 750 828.5 c 128,-1,59
 766 815 766 815 766 793 c 0,60,61
 766 783 766 783 763 771 c 0,62,63
 713 606 713 606 620 509 c 128,-1,64
 527 412 527 412 417 380 c 1,65,66
 455 371 455 371 479.5 353 c 128,-1,67
 504 335 504 335 521 308.5 c 128,-1,68
 538 282 538 282 560 235 c 0,69,70
 591 169 591 169 618.5 141.5 c 128,-1,71
 646 114 646 114 677 114 c 0,72,73
 692 114 692 114 728 122 c 0,74,0
 736 124 736 124 740 124 c 0,1,2
EndSplineSet
EndChar

StartChar: L.ss01
Encoding: 65626 -1 292
Width: 625
GlyphClass: 2
Flags: W
AnchorPoint: "Anchor-9" 491 840 basechar 0
AnchorPoint: "Anchor-8" 259 840 basechar 0
AnchorPoint: "Anchor-7" 0 0 basechar 0
AnchorPoint: "Anchor-6" 344 0 basechar 0
LayerCount: 2
Fore
SplineSet
93.5 1.5 m 128,-1,1
 76 15 76 15 76 39 c 0,2,3
 76 66 76 66 87 148.5 c 128,-1,4
 98 231 98 231 110 311 c 0,5,6
 113 324 113 324 117 355 c 2,7,-1
 139 500 l 2,8,9
 168 670 168 670 178 778 c 0,10,11
 182 815 182 815 201.5 831.5 c 128,-1,12
 221 848 221 848 259 848 c 0,13,14
 322 848 322 848 322 788 c 0,15,16
 322 765 322 765 315 714 c 128,-1,17
 308 663 308 663 298 606 c 0,18,19
 280 497 280 497 279 488 c 2,20,-1
 259 357 l 2,21,22
 235 197 235 197 224 116 c 1,23,24
 344 122 344 122 556 122 c 0,25,26
 582 122 582 122 596.5 110 c 128,-1,27
 611 98 611 98 611 68 c 0,28,29
 611 37 611 37 593.5 17.5 c 128,-1,30
 576 -2 576 -2 543 -2 c 0,31,32
 417 -2 417 -2 335.5 -4 c 128,-1,33
 254 -6 254 -6 142 -11 c 0,34,0
 111 -12 111 -12 93.5 1.5 c 128,-1,1
EndSplineSet
EndChar

StartChar: Lslash.ss01
Encoding: 65633 -1 299
Width: 625
Flags: W
LayerCount: 2
Fore
SplineSet
596.5 110 m 128,-1,1
 611 98 611 98 611 68 c 0,2,3
 611 37 611 37 593.5 17.5 c 128,-1,4
 576 -2 576 -2 543 -2 c 0,5,6
 417 -2 417 -2 335.5 -4 c 128,-1,7
 254 -6 254 -6 142 -11 c 0,8,9
 111 -12 111 -12 93.5 1.5 c 128,-1,10
 76 15 76 15 76 39 c 0,11,12
 76 66 76 66 87 148.5 c 128,-1,13
 98 231 98 231 110 311 c 2,14,-1
 116 349 l 1,15,-1
 97 338 l 2,16,17
 85 332 85 332 75 332 c 0,18,19
 53 332 53 332 37.5 351.5 c 128,-1,20
 22 371 22 371 22 393 c 0,21,22
 22 414 22 414 38 424 c 2,23,-1
 137 484 l 1,24,25
 170 693 170 693 178 778 c 0,26,27
 182 815 182 815 201.5 831.5 c 128,-1,28
 221 848 221 848 259 848 c 0,29,30
 322 848 322 848 322 788 c 0,31,32
 322 750 322 750 299 614 c 2,33,-1
 293 577 l 1,34,35
 378 628 378 628 407 645 c 128,-1,36
 436 662 436 662 439 664 c 0,37,38
 456 673 456 673 469 673 c 0,39,40
 487 673 487 673 497 657 c 0,41,42
 507 640 507 640 507 622 c 0,43,44
 507 579 507 579 451 546 c 2,45,-1
 272 440 l 1,46,-1
 259 357 l 2,47,48
 235 197 235 197 224 116 c 1,49,50
 344 122 344 122 556 122 c 0,51,0
 582 122 582 122 596.5 110 c 128,-1,1
EndSplineSet
EndChar

StartChar: M.ss01
Encoding: 65634 -1 300
Width: 1139
GlyphClass: 2
Flags: W
AnchorPoint: "Anchor-9" 0 0 basechar 0
AnchorPoint: "Anchor-8" 651 840 basechar 0
AnchorPoint: "Anchor-7" 0 0 basechar 0
AnchorPoint: "Anchor-6" 547 0 basechar 0
LayerCount: 2
Fore
SplineSet
78 64 m 0,1,2
 91 219 91 219 179 794 c 0,3,4
 184 826 184 826 204 839 c 128,-1,5
 224 852 224 852 257 852 c 0,6,7
 289 852 289 852 300.5 842 c 128,-1,8
 312 832 312 832 312 809 c 0,9,10
 312 802 312 802 310 782 c 0,11,12
 303 715 303 715 275 590 c 1,13,14
 330 732 330 732 397 790 c 128,-1,15
 464 848 464 848 546 848 c 0,16,17
 611 848 611 848 648.5 802 c 128,-1,18
 686 756 686 756 686 672 c 0,19,20
 686 639 686 639 677 590 c 1,21,22
 727 728 727 728 794 788 c 128,-1,23
 861 848 861 848 948 848 c 0,24,25
 1018 848 1018 848 1055.5 803 c 128,-1,26
 1093 758 1093 758 1093 677 c 0,27,28
 1093 642 1093 642 1086 595 c 128,-1,29
 1079 548 1079 548 1067 480 c 2,30,-1
 1045 357 l 2,31,32
 1033 290 1033 290 1021 201 c 128,-1,33
 1009 112 1009 112 1005 65 c 0,34,35
 1002 27 1002 27 985 11 c 128,-1,36
 968 -5 968 -5 931 -5 c 0,37,38
 860 -5 860 -5 860 55 c 0,39,40
 860 89 860 89 871.5 162.5 c 128,-1,41
 883 236 883 236 904 353 c 2,42,-1
 928 486 l 2,43,44
 949 606 949 606 949 652 c 0,45,46
 949 686 949 686 935 703.5 c 128,-1,47
 921 721 921 721 897 721 c 0,48,49
 849 721 849 721 798 659.5 c 128,-1,50
 747 598 747 598 699.5 454 c 128,-1,51
 652 310 652 310 623 76 c 0,52,53
 617 30 617 30 600.5 12.5 c 128,-1,54
 584 -5 584 -5 544 -5 c 0,55,56
 510 -5 510 -5 494.5 9.5 c 128,-1,57
 479 24 479 24 479 61 c 0,58,59
 479 109 479 109 490 177.5 c 128,-1,60
 501 246 501 246 518 335 c 0,61,62
 564 577 564 577 564 647 c 0,63,64
 564 685 564 685 549.5 703 c 128,-1,65
 535 721 535 721 505 721 c 0,66,67
 456 721 456 721 403.5 664.5 c 128,-1,68
 351 608 351 608 301 462 c 128,-1,69
 251 316 251 316 218 66 c 0,70,71
 209 -5 209 -5 143 -5 c 0,72,0
 73 -5 73 -5 78 64 c 0,1,2
EndSplineSet
EndChar

StartChar: N.ss01
Encoding: 65635 -1 301
Width: 799
GlyphClass: 2
Flags: W
AnchorPoint: "Anchor-9" 0 0 basechar 0
AnchorPoint: "Anchor-8" 479 840 basechar 0
AnchorPoint: "Anchor-7" 0 0 basechar 0
AnchorPoint: "Anchor-6" 365 0 basechar 0
LayerCount: 2
Fore
SplineSet
92.5 10.5 m 128,-1,1
 75 26 75 26 78 64 c 0,2,3
 92 233 92 233 178 794 c 0,4,5
 183 826 183 826 204 839 c 128,-1,6
 225 852 225 852 254 852 c 0,7,8
 288 852 288 852 300 842 c 128,-1,9
 312 832 312 832 312 809 c 0,10,11
 312 802 312 802 310 782 c 0,12,13
 304 721 304 721 276 590 c 1,14,15
 387 848 387 848 584 848 c 0,16,17
 668 848 668 848 710.5 801.5 c 128,-1,18
 753 755 753 755 753 677 c 0,19,20
 753 642 753 642 746 595 c 128,-1,21
 739 548 739 548 727 480 c 2,22,-1
 705 357 l 2,23,24
 693 292 693 292 681.5 203 c 128,-1,25
 670 114 670 114 666 65 c 0,26,27
 663 28 663 28 643 11.5 c 128,-1,28
 623 -5 623 -5 585 -5 c 0,29,30
 552 -5 552 -5 536 11 c 128,-1,31
 520 27 520 27 520 55 c 0,32,33
 520 89 520 89 531.5 162.5 c 128,-1,34
 543 236 543 236 564 353 c 2,35,-1
 588 486 l 2,36,37
 609 606 609 606 609 649 c 0,38,39
 609 721 609 721 547 721 c 0,40,41
 480 721 480 721 414 648 c 128,-1,42
 348 575 348 575 295.5 427.5 c 128,-1,43
 243 280 243 280 219 66 c 0,44,45
 215 33 215 33 196.5 14 c 128,-1,46
 178 -5 178 -5 144 -5 c 256,47,0
 110 -5 110 -5 92.5 10.5 c 128,-1,1
EndSplineSet
EndChar

StartChar: Eng.ss01
Encoding: 65640 -1 306
Width: 792
Flags: W
LayerCount: 2
Fore
SplineSet
191 -321 m 128,-1,1
 136 -295 136 -295 102 -246 c 0,2,3
 89 -227 89 -227 89 -208 c 0,4,5
 89 -184 89 -184 106.5 -166 c 128,-1,6
 124 -148 124 -148 147 -148 c 0,7,8
 176 -148 176 -148 196 -176 c 0,9,10
 248 -248 248 -248 317 -248 c 0,11,12
 354 -248 354 -248 381.5 -221 c 128,-1,13
 409 -194 409 -194 436.5 -114.5 c 128,-1,14
 464 -35 464 -35 497 120 c 2,15,-1
 560 415 l 2,16,17
 574 472 574 472 571 463 c 1,18,19
 588 543 588 543 595 582 c 128,-1,20
 602 621 602 621 602 652 c 256,21,22
 602 683 602 683 586.5 702 c 128,-1,23
 571 721 571 721 542 721 c 0,24,25
 478 721 478 721 414 648 c 128,-1,26
 350 575 350 575 298 427.5 c 128,-1,27
 246 280 246 280 220 66 c 0,28,29
 216 33 216 33 197.5 14 c 128,-1,30
 179 -5 179 -5 145 -5 c 256,31,32
 111 -5 111 -5 93.5 10.5 c 128,-1,33
 76 26 76 26 79 64 c 0,34,35
 91 218 91 218 179 794 c 0,36,37
 184 826 184 826 205 839 c 128,-1,38
 226 852 226 852 255 852 c 0,39,40
 289 852 289 852 301 842 c 128,-1,41
 313 832 313 832 313 809 c 0,42,43
 313 802 313 802 311 782 c 0,44,45
 305 721 305 721 277 590 c 1,46,47
 388 848 388 848 585 848 c 0,48,49
 666 848 666 848 705.5 802.5 c 128,-1,50
 745 757 745 757 745 682 c 0,51,52
 745 627 745 627 733.5 563.5 c 128,-1,53
 722 500 722 500 705 430 c 2,54,-1
 637 139 l 2,55,56
 599 -25 599 -25 555 -130 c 128,-1,57
 511 -235 511 -235 450.5 -291 c 128,-1,58
 390 -347 390 -347 306 -347 c 0,59,0
 246 -347 246 -347 191 -321 c 128,-1,1
EndSplineSet
EndChar

StartChar: OE.ss01
Encoding: 65643 -1 309
Width: 1166
GlyphClass: 2
Flags: W
AnchorPoint: "Anchor-9" 0 0 basechar 0
AnchorPoint: "Anchor-8" 722 840 basechar 0
AnchorPoint: "Anchor-7" 0 0 basechar 0
AnchorPoint: "Anchor-6" 654 0 basechar 0
LayerCount: 2
Fore
SplineSet
979.5 717 m 128,-1,1
 909 714 909 714 877 710 c 1,2,3
 853 638 853 638 819 483 c 1,4,5
 865 485 865 485 885 485 c 0,6,7
 992 490 992 490 1066 490 c 0,8,9
 1096 490 1096 490 1107.5 477.5 c 128,-1,10
 1119 465 1119 465 1119 441 c 0,11,12
 1119 410 1119 410 1101.5 389.5 c 128,-1,13
 1084 369 1084 369 1053 368 c 2,14,-1
 940 365 l 2,15,16
 888 363 888 363 795 361 c 1,17,18
 784 312 784 312 784 274 c 0,19,20
 784 115 784 115 971 115 c 0,21,22
 1022 115 1022 115 1099 139 c 0,23,24
 1116 144 1116 144 1126 144 c 0,25,26
 1165 144 1165 144 1165 97 c 0,27,28
 1165 69 1165 69 1153 51.5 c 128,-1,29
 1141 34 1141 34 1109 22 c 0,30,31
 1033 -5 1033 -5 948 -5 c 0,32,33
 836 -5 836 -5 767 35 c 128,-1,34
 698 75 698 75 669 144 c 1,35,36
 615 73 615 73 540.5 34 c 128,-1,37
 466 -5 466 -5 380 -5 c 0,38,39
 291 -5 291 -5 219.5 35 c 128,-1,40
 148 75 148 75 106 152.5 c 128,-1,41
 64 230 64 230 64 338 c 0,42,43
 64 490 64 490 119.5 606 c 128,-1,44
 175 722 175 722 270.5 785 c 128,-1,45
 366 848 366 848 482 848 c 0,46,47
 565 848 565 848 630.5 812 c 128,-1,48
 696 776 696 776 735 707 c 1,49,-1
 740 727 l 2,50,51
 755 782 755 782 789.5 810 c 128,-1,52
 824 838 824 838 875 840 c 2,53,-1
 927 843 l 2,54,55
 1053 849 1053 849 1125 849 c 0,56,57
 1161 849 1161 849 1175 836.5 c 128,-1,58
 1189 824 1189 824 1189 795 c 0,59,60
 1189 764 1189 764 1171 742 c 128,-1,61
 1153 720 1153 720 1117 720 c 0,62,0
 1050 720 1050 720 979.5 717 c 128,-1,1
527.5 161 m 128,-1,64
 587 209 587 209 619 294.5 c 128,-1,65
 651 380 651 380 651 488 c 0,66,67
 651 607 651 607 601 668.5 c 128,-1,68
 551 730 551 730 472 730 c 0,69,70
 395 730 395 730 336 682.5 c 128,-1,71
 277 635 277 635 244 549.5 c 128,-1,72
 211 464 211 464 211 355 c 0,73,74
 211 236 211 236 261 174.5 c 128,-1,75
 311 113 311 113 390 113 c 0,76,63
 468 113 468 113 527.5 161 c 128,-1,64
EndSplineSet
EndChar

StartChar: P.ss01
Encoding: 65644 -1 310
Width: 662
Flags: W
LayerCount: 2
Fore
SplineSet
623.5 435 m 128,-1,1
 579 364 579 364 489.5 319.5 c 128,-1,2
 400 275 400 275 271 269 c 1,3,4
 249 127 249 127 242 65 c 0,5,6
 237 26 237 26 222 10.5 c 128,-1,7
 207 -5 207 -5 169 -5 c 0,8,9
 100 -5 100 -5 100 55 c 0,10,11
 100 78 100 78 107.5 130.5 c 128,-1,12
 115 183 115 183 124 242 c 2,13,-1
 129 274 l 1,14,-1
 96 279 l 2,15,16
 66 284 66 284 56.5 298 c 128,-1,17
 47 312 47 312 47 332 c 0,18,19
 47 355 47 355 59.5 367 c 128,-1,20
 72 379 72 379 93 379 c 0,21,22
 98 379 98 379 110 377 c 0,23,24
 131 373 131 373 146 372 c 1,25,-1
 166 486 l 2,26,27
 187 607 187 607 202 721 c 1,28,29
 174 712 174 712 152 700 c 0,30,31
 140 694 140 694 130 694 c 0,32,33
 114 694 114 694 103.5 705.5 c 128,-1,34
 93 717 93 717 93 734 c 0,35,36
 93 770 93 770 135 796 c 0,37,38
 172 819 172 819 229 832.5 c 128,-1,39
 286 846 286 846 348 846 c 0,40,41
 454 846 454 846 526 813 c 128,-1,42
 598 780 598 780 633 723 c 128,-1,43
 668 666 668 666 668 593 c 0,44,0
 668 506 668 506 623.5 435 c 128,-1,1
522 587 m 0,46,47
 522 659 522 659 480.5 697.5 c 128,-1,48
 439 736 439 736 347 740 c 1,49,50
 334 650 334 650 307 488 c 2,51,-1
 287 371 l 1,52,45
 522 392 522 392 522 587 c 0,46,47
EndSplineSet
EndChar

StartChar: Thorn.ss01
Encoding: 65645 -1 311
Width: 658
Flags: W
LayerCount: 2
Fore
SplineSet
603 331 m 128,-1,1
 559 263 559 263 471 222 c 128,-1,2
 383 181 383 181 255 179 c 1,3,-1
 252 152 l 1,4,-1
 243 65 l 2,5,6
 240 28 240 28 221 11.5 c 128,-1,7
 202 -5 202 -5 168 -5 c 0,8,9
 99 -5 99 -5 99 55 c 0,10,11
 99 91 99 91 114 186 c 1,12,-1
 93 189 l 2,13,14
 63 194 63 194 52.5 208 c 128,-1,15
 42 222 42 222 42 242 c 0,16,17
 42 265 42 265 55 277 c 128,-1,18
 68 289 68 289 90 289 c 0,19,20
 95 289 95 289 107 287 c 2,21,-1
 129 284 l 1,22,-1
 141 355 l 1,23,-1
 164 486 l 2,24,25
 171 525 171 525 179 583 c 1,26,27
 156 574 156 574 143 567 c 0,28,29
 131 561 131 561 121 561 c 0,30,31
 105 561 105 561 94.5 572.5 c 128,-1,32
 84 584 84 584 84 601 c 0,33,34
 84 637 84 637 126 663 c 0,35,36
 155 681 155 681 193 691 c 1,37,-1
 202 778 l 2,38,39
 205 815 205 815 225 831.5 c 128,-1,40
 245 848 245 848 283 848 c 0,41,42
 346 848 346 848 346 788 c 0,43,44
 346 769 346 769 339 713 c 1,45,-1
 345 713 l 2,46,47
 447 713 447 713 514.5 682 c 128,-1,48
 582 651 582 651 614.5 599 c 128,-1,49
 647 547 647 547 647 483 c 0,50,0
 647 399 647 399 603 331 c 128,-1,1
448.5 336 m 128,-1,52
 499 387 499 387 499 466 c 0,53,54
 499 526 499 526 457 567 c 128,-1,55
 415 608 415 608 323 609 c 1,56,-1
 303 488 l 1,57,-1
 281 357 l 1,58,-1
 269 279 l 1,59,51
 398 285 398 285 448.5 336 c 128,-1,52
EndSplineSet
EndChar

StartChar: Q.ss01
Encoding: 65646 -1 312
Width: 816
Flags: W
LayerCount: 2
Fore
SplineSet
759 275 m 128,-1,1
 720 173 720 173 651 106.5 c 128,-1,2
 582 40 582 40 493 13 c 1,3,4
 529 -8 529 -8 557 -51 c 2,5,-1
 642 -186 l 2,6,7
 650 -200 650 -200 650 -212 c 0,8,9
 650 -237 650 -237 626.5 -255.5 c 128,-1,10
 603 -274 603 -274 573 -274 c 0,11,12
 552 -274 552 -274 532 -263 c 128,-1,13
 512 -252 512 -252 498 -229 c 2,14,-1
 428 -116 l 2,15,16
 389 -53 389 -53 366.5 -29.5 c 128,-1,17
 344 -6 344 -6 310 1 c 0,18,19
 199 23 199 23 131.5 111 c 128,-1,20
 64 199 64 199 64 338 c 0,21,22
 64 490 64 490 119.5 606 c 128,-1,23
 175 722 175 722 270.5 785 c 128,-1,24
 366 848 366 848 482 848 c 0,25,26
 571 848 571 848 642.5 808 c 128,-1,27
 714 768 714 768 756 690.5 c 128,-1,28
 798 613 798 613 798 505 c 0,29,0
 798 377 798 377 759 275 c 128,-1,1
527.5 161 m 128,-1,31
 587 209 587 209 619 294.5 c 128,-1,32
 651 380 651 380 651 488 c 0,33,34
 651 607 651 607 601 668.5 c 128,-1,35
 551 730 551 730 472 730 c 0,36,37
 395 730 395 730 336 682.5 c 128,-1,38
 277 635 277 635 244 549.5 c 128,-1,39
 211 464 211 464 211 355 c 0,40,41
 211 236 211 236 261 174.5 c 128,-1,42
 311 113 311 113 390 113 c 0,43,30
 468 113 468 113 527.5 161 c 128,-1,31
EndSplineSet
EndChar

StartChar: R.ss01
Encoding: 65647 -1 313
Width: 744
GlyphClass: 2
Flags: W
AnchorPoint: "Anchor-9" 0 0 basechar 0
AnchorPoint: "Anchor-8" 419 840 basechar 0
AnchorPoint: "Anchor-7" 0 0 basechar 0
AnchorPoint: "Anchor-6" 359 0 basechar 0
LayerCount: 2
Fore
SplineSet
709 123 m 0,1,2
 727 123 727 123 738 110 c 128,-1,3
 749 97 749 97 749 78 c 0,4,5
 749 60 749 60 739.5 44 c 128,-1,6
 730 28 730 28 710 18 c 0,7,8
 692 8 692 8 663 1.5 c 128,-1,9
 634 -5 634 -5 607 -5 c 0,10,11
 556 -5 556 -5 520 14 c 128,-1,12
 484 33 484 33 456.5 70.5 c 128,-1,13
 429 108 429 108 398 174 c 0,14,15
 372 230 372 230 354.5 257.5 c 128,-1,16
 337 285 337 285 318.5 298 c 128,-1,17
 300 311 300 311 274 314 c 1,18,19
 247 147 247 147 238 65 c 0,20,21
 234 27 234 27 217.5 11 c 128,-1,22
 201 -5 201 -5 168 -5 c 0,23,24
 99 -5 99 -5 99 55 c 0,25,26
 99 81 99 81 107.5 140.5 c 128,-1,27
 116 200 116 200 127 267 c 2,28,-1
 135 315 l 1,29,30
 105 317 105 317 94 329.5 c 128,-1,31
 83 342 83 342 83 367 c 0,32,33
 83 391 83 391 96 405 c 128,-1,34
 109 419 109 419 128 419 c 2,35,-1
 153 419 l 1,36,-1
 165 486 l 2,37,38
 187 611 187 611 201 722 c 1,39,40
 170 712 170 712 152 700 c 0,41,42
 137 691 137 691 124 691 c 0,43,44
 108 691 108 691 97.5 701.5 c 128,-1,45
 87 712 87 712 87 729 c 256,46,47
 87 746 87 746 99 763.5 c 128,-1,48
 111 781 111 781 135 796 c 0,49,50
 172 819 172 819 229.5 832.5 c 128,-1,51
 287 846 287 846 350 846 c 0,52,53
 451 846 451 846 520.5 816.5 c 128,-1,54
 590 787 590 787 624 736.5 c 128,-1,55
 658 686 658 686 658 622 c 0,56,57
 658 530 658 530 593.5 456.5 c 128,-1,58
 529 383 529 383 407 353 c 1,59,60
 453 340 453 340 478.5 312 c 128,-1,61
 504 284 504 284 531 230 c 0,62,63
 563 167 563 167 589.5 140.5 c 128,-1,64
 616 114 616 114 646 114 c 0,65,66
 661 114 661 114 697 122 c 0,67,0
 701 123 701 123 709 123 c 0,1,2
470.5 704 m 128,-1,69
 430 737 430 737 343 741 c 1,70,71
 330 653 330 653 303 488 c 2,72,-1
 292 421 l 1,73,74
 400 429 400 429 455.5 479 c 128,-1,75
 511 529 511 529 511 610 c 0,76,68
 511 671 511 671 470.5 704 c 128,-1,69
EndSplineSet
EndChar

StartChar: T.ss01
Encoding: 65653 -1 319
Width: 631
GlyphClass: 2
Flags: W
AnchorPoint: "Anchor-9" 0 0 basechar 0
AnchorPoint: "Anchor-8" 409 840 basechar 0
AnchorPoint: "Anchor-7" 0 0 basechar 0
AnchorPoint: "Anchor-6" 291 0 basechar 0
LayerCount: 2
Fore
SplineSet
720.5 823 m 128,-1,1
 744 806 744 806 744 772 c 0,2,3
 744 744 744 744 726.5 733.5 c 128,-1,4
 709 723 709 723 668 723 c 256,5,6
 627 723 627 723 535 725 c 2,7,-1
 467 726 l 1,8,9
 424 510 424 510 399 357 c 0,10,11
 387 284 387 284 375.5 195.5 c 128,-1,12
 364 107 364 107 360 55 c 0,13,14
 358 26 358 26 335 10.5 c 128,-1,15
 312 -5 312 -5 279 -5 c 0,16,17
 250 -5 250 -5 233.5 11.5 c 128,-1,18
 217 28 217 28 217 55 c 0,19,20
 217 87 217 87 226.5 152.5 c 128,-1,21
 236 218 236 218 255 329 c 2,22,-1
 259 355 l 2,23,24
 284 510 284 510 325 725 c 1,25,26
 234 722 234 722 144 715 c 0,27,28
 67 709 67 709 67 767 c 0,29,30
 67 793 67 793 82.5 810.5 c 128,-1,31
 98 828 98 828 129 832 c 0,32,33
 247 847 247 847 389 847 c 2,34,-1
 519 847 l 2,35,36
 615 847 615 847 649 844 c 0,37,0
 697 840 697 840 720.5 823 c 128,-1,1
EndSplineSet
EndChar

StartChar: Tbar.ss01
Encoding: 65654 -1 320
Width: 631
GlyphClass: 2
Flags: W
AnchorPoint: "Anchor-9" 0 0 basechar 0
AnchorPoint: "Anchor-8" 409 840 basechar 0
AnchorPoint: "Anchor-7" 0 0 basechar 0
AnchorPoint: "Anchor-6" 291 0 basechar 0
LayerCount: 2
Fore
SplineSet
720.5 823 m 128,-1,1
 744 806 744 806 744 772 c 0,2,3
 744 744 744 744 726.5 733.5 c 128,-1,4
 709 723 709 723 668 723 c 256,5,6
 627 723 627 723 535 725 c 2,7,-1
 467 726 l 1,8,9
 441 595 441 595 417 462 c 1,10,-1
 521 463 l 2,11,12
 553 463 553 463 567.5 451 c 128,-1,13
 582 439 582 439 582 419 c 0,14,15
 582 390 582 390 564 374.5 c 128,-1,16
 546 359 546 359 497 359 c 2,17,-1
 399 359 l 1,18,-1
 399 357 l 1,19,20
 387 284 387 284 375.5 195.5 c 128,-1,21
 364 107 364 107 360 55 c 0,22,23
 358 26 358 26 335 10.5 c 128,-1,24
 312 -5 312 -5 279 -5 c 0,25,26
 250 -5 250 -5 233.5 11.5 c 128,-1,27
 217 28 217 28 217 55 c 0,28,29
 217 87 217 87 226.5 152.5 c 128,-1,30
 236 218 236 218 255 329 c 2,31,-1
 259 355 l 1,32,-1
 259 358 l 1,33,34
 242 358 242 358 210 356 c 0,35,36
 170 354 170 354 152 354 c 0,37,38
 100 354 100 354 100 394 c 0,39,40
 100 425 100 425 119 441 c 128,-1,41
 138 457 138 457 184 457 c 2,42,-1
 276 457 l 1,43,44
 292 549 292 549 325 725 c 1,45,46
 234 722 234 722 144 715 c 0,47,48
 67 709 67 709 67 767 c 0,49,50
 67 793 67 793 82.5 810.5 c 128,-1,51
 98 828 98 828 129 832 c 0,52,53
 247 847 247 847 389 847 c 2,54,-1
 519 847 l 2,55,56
 615 847 615 847 649 844 c 0,57,0
 697 840 697 840 720.5 823 c 128,-1,1
EndSplineSet
EndChar

StartChar: U.ss01
Encoding: 65658 -1 324
Width: 800
GlyphClass: 2
Flags: W
AnchorPoint: "Anchor-9" 720 840 basechar 0
AnchorPoint: "Anchor-8" 482 840 basechar 0
AnchorPoint: "Anchor-7" 644 10 basechar 0
AnchorPoint: "Anchor-6" 387 0 basechar 0
LayerCount: 2
Fore
SplineSet
546 5 m 128,-1,1
 534 15 534 15 534 38 c 0,2,3
 534 45 534 45 536 65 c 0,4,5
 542 126 542 126 570 257 c 1,6,7
 459 -1 459 -1 262 -1 c 0,8,9
 178 -1 178 -1 135.5 45.5 c 128,-1,10
 93 92 93 92 93 170 c 0,11,12
 93 205 93 205 100 252 c 128,-1,13
 107 299 107 299 119 367 c 2,14,-1
 141 490 l 2,15,16
 153 555 153 555 164.5 644 c 128,-1,17
 176 733 176 733 180 782 c 0,18,19
 183 819 183 819 203 835.5 c 128,-1,20
 223 852 223 852 261 852 c 0,21,22
 294 852 294 852 310 836 c 128,-1,23
 326 820 326 820 326 792 c 0,24,25
 326 758 326 758 314.5 684.5 c 128,-1,26
 303 611 303 611 282 494 c 2,27,-1
 258 361 l 2,28,29
 237 241 237 241 237 198 c 0,30,31
 237 126 237 126 299 126 c 0,32,33
 366 126 366 126 431 198.5 c 128,-1,34
 496 271 496 271 548.5 419 c 128,-1,35
 601 567 601 567 627 781 c 0,36,37
 631 814 631 814 649.5 833 c 128,-1,38
 668 852 668 852 702 852 c 256,39,40
 736 852 736 852 753.5 836.5 c 128,-1,41
 771 821 771 821 768 783 c 0,42,43
 756 629 756 629 668 53 c 0,44,45
 663 21 663 21 642 8 c 128,-1,46
 621 -5 621 -5 592 -5 c 0,47,0
 558 -5 558 -5 546 5 c 128,-1,1
EndSplineSet
EndChar

StartChar: Uhorn.ss01
Encoding: 65667 -1 333
Width: 800
GlyphClass: 2
Flags: W
AnchorPoint: "Anchor-9" 729 912 basechar 0
AnchorPoint: "Anchor-8" 482 840 basechar 0
AnchorPoint: "Anchor-7" 644 10 basechar 0
AnchorPoint: "Anchor-6" 387 0 basechar 0
LayerCount: 2
Fore
SplineSet
546 5 m 128,-1,1
 534 15 534 15 534 38 c 0,2,3
 534 45 534 45 536 65 c 0,4,5
 542 126 542 126 570 257 c 1,6,7
 459 -1 459 -1 262 -1 c 0,8,9
 178 -1 178 -1 135.5 45.5 c 128,-1,10
 93 92 93 92 93 170 c 0,11,12
 93 205 93 205 100 252 c 128,-1,13
 107 299 107 299 119 367 c 2,14,-1
 141 490 l 2,15,16
 153 555 153 555 164.5 644 c 128,-1,17
 176 733 176 733 180 782 c 0,18,19
 183 819 183 819 203 835.5 c 128,-1,20
 223 852 223 852 261 852 c 0,21,22
 294 852 294 852 310 836 c 128,-1,23
 326 820 326 820 326 792 c 0,24,25
 326 758 326 758 314.5 684.5 c 128,-1,26
 303 611 303 611 282 494 c 2,27,-1
 258 361 l 2,28,29
 237 241 237 241 237 198 c 0,30,31
 237 126 237 126 299 126 c 0,32,33
 366 126 366 126 431 198.5 c 128,-1,34
 496 271 496 271 548.5 419 c 128,-1,35
 601 567 601 567 627 781 c 0,36,37
 631 814 631 814 649.5 833 c 128,-1,38
 668 852 668 852 702 852 c 0,39,40
 754 852 754 852 776 874 c 128,-1,41
 798 896 798 896 808 951 c 0,42,43
 816 997 816 997 862 997 c 0,44,45
 889 997 889 997 905 981 c 128,-1,46
 921 965 921 965 921 934 c 0,47,48
 921 924 921 924 920 919 c 0,49,50
 912 847 912 847 871 798 c 128,-1,51
 830 749 830 749 763 733 c 1,52,53
 745 552 745 552 668 53 c 0,54,55
 663 21 663 21 642 8 c 128,-1,56
 621 -5 621 -5 592 -5 c 0,57,0
 558 -5 558 -5 546 5 c 128,-1,1
EndSplineSet
EndChar

StartChar: V.ss01
Encoding: 65679 -1 345
Width: 797
Flags: W
LayerCount: 2
Fore
SplineSet
177.5 121 m 128,-1,1
 123 247 123 247 123 459 c 0,2,3
 123 600 123 600 147 759 c 0,4,5
 155 808 155 808 174 828 c 128,-1,6
 193 848 193 848 230 848 c 0,7,8
 261 848 261 848 278.5 834.5 c 128,-1,9
 296 821 296 821 296 786 c 0,10,11
 296 780 296 780 294 760 c 0,12,13
 267 576 267 576 267 442 c 0,14,15
 267 295 267 295 294.5 213 c 128,-1,16
 322 131 322 131 367 131 c 0,17,18
 411 131 411 131 465.5 204.5 c 128,-1,19
 520 278 520 278 572 422.5 c 128,-1,20
 624 567 624 567 660 767 c 0,21,22
 669 813 669 813 691 830.5 c 128,-1,23
 713 848 713 848 753 848 c 0,24,25
 785 848 785 848 799.5 835 c 128,-1,26
 814 822 814 822 814 796 c 0,27,28
 814 779 814 779 810 763 c 0,29,30
 754 502 754 502 676.5 330 c 128,-1,31
 599 158 599 158 512 76.5 c 128,-1,32
 425 -5 425 -5 337 -5 c 0,33,0
 232 -5 232 -5 177.5 121 c 128,-1,1
EndSplineSet
EndChar

StartChar: W.ss01
Encoding: 65680 -1 346
Width: 1236
GlyphClass: 2
Flags: W
AnchorPoint: "Anchor-9" 0 0 basechar 0
AnchorPoint: "Anchor-8" 700 840 basechar 0
AnchorPoint: "Anchor-7" 0 0 basechar 0
AnchorPoint: "Anchor-6" 555 0 basechar 0
LayerCount: 2
Fore
SplineSet
1238 835 m 128,-1,1
 1253 822 1253 822 1253 795 c 0,2,3
 1253 779 1253 779 1249 763 c 0,4,5
 1191 500 1191 500 1117.5 328.5 c 128,-1,6
 1044 157 1044 157 963.5 76 c 128,-1,7
 883 -5 883 -5 798 -5 c 0,8,9
 706 -5 706 -5 661.5 90.5 c 128,-1,10
 617 186 617 186 614 346 c 1,11,12
 554 168 554 168 477 81.5 c 128,-1,13
 400 -5 400 -5 315 -5 c 0,14,15
 220 -5 220 -5 171 116.5 c 128,-1,16
 122 238 122 238 122 442 c 0,17,18
 122 593 122 593 147 759 c 0,19,20
 154 808 154 808 173.5 828 c 128,-1,21
 193 848 193 848 231 848 c 0,22,23
 261 848 261 848 278 835 c 128,-1,24
 295 822 295 822 295 787 c 0,25,26
 295 770 295 770 293 760 c 0,27,28
 264 563 264 563 264 414 c 0,29,30
 264 279 264 279 286.5 205 c 128,-1,31
 309 131 309 131 347 131 c 0,32,33
 382 131 382 131 431.5 205.5 c 128,-1,34
 481 280 481 280 530.5 424.5 c 128,-1,35
 580 569 580 569 613 767 c 0,36,37
 621 813 621 813 642.5 830.5 c 128,-1,38
 664 848 664 848 701 848 c 0,39,40
 732 848 732 848 747.5 836.5 c 128,-1,41
 763 825 763 825 763 792 c 0,42,43
 763 774 763 774 761 763 c 0,44,45
 734 579 734 579 734 443 c 0,46,47
 734 334 734 334 741.5 268 c 128,-1,48
 749 202 749 202 769.5 166.5 c 128,-1,49
 790 131 790 131 830 131 c 0,50,51
 869 131 869 131 917 204.5 c 128,-1,52
 965 278 965 278 1013 422 c 128,-1,53
 1061 566 1061 566 1099 767 c 0,54,55
 1108 813 1108 813 1129 830.5 c 128,-1,56
 1150 848 1150 848 1189 848 c 0,57,0
 1223 848 1223 848 1238 835 c 128,-1,1
EndSplineSet
EndChar

StartChar: X.ss01
Encoding: 65685 -1 351
Width: 677
Flags: W
LayerCount: 2
Fore
SplineSet
727.5 837 m 128,-1,1
 743 827 743 827 743 809 c 0,2,3
 743 785 743 785 716 754 c 2,4,-1
 443 439 l 1,5,-1
 611 92 l 2,6,7
 623 67 623 67 623 47 c 0,8,9
 623 21 623 21 604 8 c 128,-1,10
 585 -5 585 -5 553 -5 c 0,11,12
 527 -5 527 -5 508.5 6 c 128,-1,13
 490 17 490 17 478 44 c 2,14,-1
 352 333 l 1,15,-1
 112 35 l 2,16,17
 92 10 92 10 71 2.5 c 128,-1,18
 50 -5 50 -5 22 -5 c 256,19,20
 -6 -5 -6 -5 -24.5 5.5 c 128,-1,21
 -43 16 -43 16 -43 35 c 0,22,23
 -43 60 -43 60 -14 92 c 2,24,-1
 297 447 l 1,25,-1
 148 754 l 2,26,27
 137 778 137 778 137 795 c 0,28,29
 137 820 137 820 155.5 833.5 c 128,-1,30
 174 847 174 847 206 847 c 0,31,32
 237 847 237 847 254.5 836.5 c 128,-1,33
 272 826 272 826 282 803 c 2,34,-1
 390 557 l 1,35,-1
 593 803 l 2,36,37
 613 827 613 827 634 837 c 128,-1,38
 655 847 655 847 685 847 c 0,39,0
 712 847 712 847 727.5 837 c 128,-1,1
EndSplineSet
EndChar

StartChar: Y.ss01
Encoding: 65686 -1 352
Width: 776
GlyphClass: 2
Flags: W
AnchorPoint: "Anchor-9" 0 0 basechar 0
AnchorPoint: "Anchor-8" 455 840 basechar 0
AnchorPoint: "Anchor-7" 0 0 basechar 0
AnchorPoint: "Anchor-6" 345 0 basechar 0
LayerCount: 2
Fore
SplineSet
209.5 8.5 m 128,-1,1
 151 24 151 24 120 50 c 0,2,3
 92 72 92 72 92 108 c 0,4,5
 92 131 92 131 104.5 148 c 128,-1,6
 117 165 117 165 136 165 c 0,7,8
 150 165 150 165 164 155 c 0,9,10
 199 131 199 131 246 118 c 128,-1,11
 293 105 293 105 349 105 c 0,12,13
 417 105 417 105 463 133 c 128,-1,14
 509 161 509 161 536.5 227 c 128,-1,15
 564 293 564 293 573 406 c 1,16,17
 530 317 530 317 468.5 275.5 c 128,-1,18
 407 234 407 234 325 234 c 0,19,20
 219 234 219 234 166.5 285.5 c 128,-1,21
 114 337 114 337 114 426 c 0,22,23
 114 464 114 464 119 504 c 128,-1,24
 124 544 124 544 134 606 c 0,25,26
 151 720 151 720 158 788 c 0,27,28
 164 852 164 852 234 852 c 0,29,30
 269 852 269 852 287 834 c 128,-1,31
 305 816 305 816 303 788 c 0,32,33
 300 736 300 736 293 687 c 128,-1,34
 286 638 286 638 275 575 c 0,35,36
 268 537 268 537 263 502 c 128,-1,37
 258 467 258 467 258 444 c 0,38,39
 258 404 258 404 282 382.5 c 128,-1,40
 306 361 306 361 351 361 c 0,41,42
 412 361 412 361 465.5 403.5 c 128,-1,43
 519 446 519 446 556.5 537.5 c 128,-1,44
 594 629 594 629 603 767 c 0,45,46
 609 852 609 852 675 852 c 0,47,48
 746 852 746 852 740 769 c 0,49,50
 733 664 733 664 706 432 c 0,51,52
 703 413 703 413 699 375 c 0,53,54
 676 174 676 174 585 83.5 c 128,-1,55
 494 -7 494 -7 345 -7 c 0,56,0
 268 -7 268 -7 209.5 8.5 c 128,-1,1
EndSplineSet
EndChar

StartChar: Z.ss01
Encoding: 65695 -1 361
Width: 665
GlyphClass: 2
Flags: W
AnchorPoint: "Anchor-9" 0 0 basechar 0
AnchorPoint: "Anchor-8" 422 840 basechar 0
AnchorPoint: "Anchor-7" 0 0 basechar 0
AnchorPoint: "Anchor-6" 324 0 basechar 0
LayerCount: 2
Fore
SplineSet
74 -10 m 2,0,1
 38 -10 38 -10 23 4 c 128,-1,2
 8 18 8 18 8 45 c 0,3,4
 8 77 8 77 36 110 c 0,5,6
 195 303 195 303 308.5 449 c 128,-1,7
 422 595 422 595 516 729 c 1,8,9
 404 729 404 729 327 727.5 c 128,-1,10
 250 726 250 726 159 722 c 0,11,12
 119 721 119 721 100.5 733 c 128,-1,13
 82 745 82 745 82 771 c 0,14,15
 82 798 82 798 99 817 c 128,-1,16
 116 836 116 836 154 841 c 0,17,18
 221 851 221 851 384 851 c 0,19,20
 541 851 541 851 602 846 c 0,21,22
 689 839 689 839 689 781 c 0,23,24
 689 763 689 763 683.5 746 c 128,-1,25
 678 729 678 729 661 705 c 0,26,27
 534 519 534 519 218 120 c 1,28,29
 272 123 272 123 345 123 c 0,30,31
 470 123 470 123 565 116 c 0,32,33
 607 113 607 113 623.5 102 c 128,-1,34
 640 91 640 91 640 58 c 0,35,36
 640 28 640 28 621.5 12 c 128,-1,37
 603 -4 603 -4 564 -4 c 0,38,39
 517 -4 517 -4 441 -2 c 0,40,41
 379 0 379 0 355 0 c 0,42,43
 211 0 211 0 90 -9 c 2,44,-1
 74 -10 l 2,0,1
EndSplineSet
EndChar

StartChar: a
Encoding: 97 97 365
Width: 470
GlyphClass: 2
Flags: W
AnchorPoint: "Anchor-9" 0 0 basechar 0
AnchorPoint: "Anchor-8" 301 460 basechar 0
AnchorPoint: "Anchor-7" 420 10 basechar 0
AnchorPoint: "Anchor-6" 210 0 basechar 0
LayerCount: 2
Fore
SplineSet
72 40 m 128,-1,1
 35 85 35 85 35 158 c 0,2,3
 35 238 35 238 72 309.5 c 128,-1,4
 109 381 109 381 170.5 424.5 c 128,-1,5
 232 468 232 468 301 468 c 0,6,7
 323 468 323 468 330.5 459.5 c 128,-1,8
 338 451 338 451 343 429 c 1,9,10
 364 433 364 433 387 433 c 0,11,12
 436 433 436 433 436 398 c 0,13,14
 436 377 436 377 421 298 c 0,15,16
 398 183 398 183 398 138 c 0,17,18
 398 123 398 123 405.5 114 c 128,-1,19
 413 105 413 105 425 105 c 0,20,21
 444 105 444 105 471 129.5 c 128,-1,22
 498 154 498 154 544 209 c 0,23,24
 556 223 556 223 571 223 c 0,25,26
 584 223 584 223 591.5 211 c 128,-1,27
 599 199 599 199 599 178 c 0,28,29
 599 138 599 138 580 116 c 0,30,31
 539 65 539 65 493 30 c 128,-1,32
 447 -5 447 -5 404 -5 c 0,33,34
 371 -5 371 -5 343.5 17.5 c 128,-1,35
 316 40 316 40 302 79 c 1,36,37
 250 -5 250 -5 171 -5 c 0,38,0
 109 -5 109 -5 72 40 c 128,-1,1
249 122 m 128,-1,40
 269 148 269 148 278 191 c 2,41,-1
 315 375 l 1,42,43
 273 374 273 374 237.5 343.5 c 128,-1,44
 202 313 202 313 181 263 c 128,-1,45
 160 213 160 213 160 157 c 0,46,47
 160 126 160 126 172.5 111 c 128,-1,48
 185 96 185 96 207 96 c 256,49,39
 229 96 229 96 249 122 c 128,-1,40
EndSplineSet
Substitution2: "Single Substitution lookup 30 subtable" ordfeminine
Substitution2: "Single Substitution lookup 29 subtable" a.fina
Substitution2: "'fina' Terminal Forms in Latin lookup 15 subtable" a.fina
AlternateSubs2: "'aalt' Access All Alternates in Latin lookup 1 subtable" a.fina ordfeminine
EndChar

StartChar: aogonek
Encoding: 261 261 386
Width: 470
Flags: W
LayerCount: 2
Fore
SplineSet
290.5 -214.5 m 128,-1,1
 250 -179 250 -179 250 -118 c 0,2,3
 250 -75 250 -75 272.5 -36.5 c 128,-1,4
 295 2 295 2 333 27 c 1,5,6
 312 51 312 51 302 79 c 1,7,8
 250 -5 250 -5 171 -5 c 0,9,10
 109 -5 109 -5 72 40 c 128,-1,11
 35 85 35 85 35 158 c 0,12,13
 35 238 35 238 72 309.5 c 128,-1,14
 109 381 109 381 170.5 424.5 c 128,-1,15
 232 468 232 468 301 468 c 0,16,17
 323 468 323 468 330.5 459.5 c 128,-1,18
 338 451 338 451 343 429 c 1,19,20
 364 433 364 433 387 433 c 0,21,22
 436 433 436 433 436 398 c 0,23,24
 436 377 436 377 421 298 c 0,25,26
 398 183 398 183 398 138 c 0,27,28
 398 123 398 123 405.5 114 c 128,-1,29
 413 105 413 105 425 105 c 0,30,31
 444 105 444 105 471 129.5 c 128,-1,32
 498 154 498 154 544 209 c 0,33,34
 556 223 556 223 571 223 c 0,35,36
 584 223 584 223 591.5 211 c 128,-1,37
 599 199 599 199 599 178 c 0,38,39
 599 138 599 138 580 116 c 0,40,41
 547 76 547 76 513.5 49.5 c 128,-1,42
 480 23 480 23 439 0 c 0,43,44
 393 -26 393 -26 372.5 -50 c 128,-1,45
 352 -74 352 -74 352 -101 c 0,46,47
 352 -130 352 -130 370 -145 c 128,-1,48
 388 -160 388 -160 414 -160 c 256,49,50
 440 -160 440 -160 461 -153 c 0,51,52
 477 -147 477 -147 488 -147 c 0,53,54
 514 -147 514 -147 514 -184 c 0,55,56
 514 -224 514 -224 467 -240 c 0,57,58
 455 -244 455 -244 435.5 -247 c 128,-1,59
 416 -250 416 -250 400 -250 c 0,60,0
 331 -250 331 -250 290.5 -214.5 c 128,-1,1
249 122 m 128,-1,62
 269 148 269 148 278 191 c 2,63,-1
 315 375 l 1,64,65
 273 374 273 374 237.5 343.5 c 128,-1,66
 202 313 202 313 181 263 c 128,-1,67
 160 213 160 213 160 157 c 0,68,69
 160 126 160 126 172.5 111 c 128,-1,70
 185 96 185 96 207 96 c 256,71,61
 229 96 229 96 249 122 c 128,-1,62
EndSplineSet
Substitution2: "Single Substitution lookup 29 subtable" aogonek.fina
Substitution2: "'fina' Terminal Forms in Latin lookup 15 subtable" aogonek.fina
Substitution2: "'aalt' Access All Alternates in Latin lookup 0 subtable" aogonek.fina
EndChar

StartChar: aringacute
Encoding: 507 507 388
Width: 470
GlyphClass: 2
Flags: W
AnchorPoint: "Anchor-9" 0 0 basechar 0
AnchorPoint: "Anchor-8" 301 460 basechar 0
AnchorPoint: "Anchor-7" 420 10 basechar 0
AnchorPoint: "Anchor-6" 210 0 basechar 0
LayerCount: 2
Fore
SplineSet
480 756 m 128,-1,1
 471 765 471 765 471 778 c 0,2,3
 471 792 471 792 487 808 c 2,4,-1
 566 887 l 2,5,6
 582 903 582 903 603 903 c 0,7,8
 625 903 625 903 641.5 886.5 c 128,-1,9
 658 870 658 870 658 848 c 0,10,11
 658 830 658 830 647.5 814 c 128,-1,12
 637 798 637 798 613 788 c 2,13,-1
 521 751 l 2,14,15
 509 747 509 747 503 747 c 0,16,0
 489 747 489 747 480 756 c 128,-1,1
229 567.5 m 128,-1,18
 191 603 191 603 191 664 c 0,19,20
 191 709 191 709 210.5 742.5 c 128,-1,21
 230 776 230 776 262.5 794 c 128,-1,22
 295 812 295 812 332 812 c 0,23,24
 385 812 385 812 423 776.5 c 128,-1,25
 461 741 461 741 461 680 c 0,26,27
 461 635 461 635 441.5 601.5 c 128,-1,28
 422 568 422 568 389.5 550 c 128,-1,29
 357 532 357 532 320 532 c 0,30,17
 267 532 267 532 229 567.5 c 128,-1,18
358 635 m 128,-1,32
 372 650 372 650 372 675 c 0,33,34
 372 697 372 697 359 710.5 c 128,-1,35
 346 724 346 724 328 724 c 0,36,37
 308 724 308 724 294 709 c 128,-1,38
 280 694 280 694 280 669 c 0,39,40
 280 647 280 647 293 633.5 c 128,-1,41
 306 620 306 620 324 620 c 0,42,31
 344 620 344 620 358 635 c 128,-1,32
72 40 m 128,-1,44
 35 85 35 85 35 158 c 0,45,46
 35 238 35 238 72 309.5 c 128,-1,47
 109 381 109 381 170.5 424.5 c 128,-1,48
 232 468 232 468 301 468 c 0,49,50
 323 468 323 468 330.5 459.5 c 128,-1,51
 338 451 338 451 343 429 c 1,52,53
 364 433 364 433 387 433 c 0,54,55
 436 433 436 433 436 398 c 0,56,57
 436 377 436 377 421 298 c 0,58,59
 398 183 398 183 398 138 c 0,60,61
 398 123 398 123 405.5 114 c 128,-1,62
 413 105 413 105 425 105 c 0,63,64
 444 105 444 105 471 129.5 c 128,-1,65
 498 154 498 154 544 209 c 0,66,67
 556 223 556 223 571 223 c 0,68,69
 584 223 584 223 591.5 211 c 128,-1,70
 599 199 599 199 599 178 c 0,71,72
 599 138 599 138 580 116 c 0,73,74
 539 65 539 65 493 30 c 128,-1,75
 447 -5 447 -5 404 -5 c 0,76,77
 371 -5 371 -5 343.5 17.5 c 128,-1,78
 316 40 316 40 302 79 c 1,79,80
 250 -5 250 -5 171 -5 c 0,81,43
 109 -5 109 -5 72 40 c 128,-1,44
249 122 m 128,-1,83
 269 148 269 148 278 191 c 2,84,-1
 315 375 l 1,85,86
 273 374 273 374 237.5 343.5 c 128,-1,87
 202 313 202 313 181 263 c 128,-1,88
 160 213 160 213 160 157 c 0,89,90
 160 126 160 126 172.5 111 c 128,-1,91
 185 96 185 96 207 96 c 256,92,82
 229 96 229 96 249 122 c 128,-1,83
EndSplineSet
Substitution2: "Single Substitution lookup 29 subtable" aringacute.fina
Substitution2: "'fina' Terminal Forms in Latin lookup 15 subtable" aringacute.fina
Substitution2: "'aalt' Access All Alternates in Latin lookup 0 subtable" aringacute.fina
EndChar

StartChar: ae
Encoding: 230 230 390
Width: 653
GlyphClass: 2
Flags: W
AnchorPoint: "Anchor-9" 0 0 basechar 0
AnchorPoint: "Anchor-8" 428 460 basechar 0
AnchorPoint: "Anchor-7" 0 0 basechar 0
AnchorPoint: "Anchor-6" 348 0 basechar 0
LayerCount: 2
Fore
SplineSet
774.5 211 m 128,-1,1
 782 199 782 199 782 178 c 0,2,3
 782 138 782 138 763 116 c 0,4,5
 726 71 726 71 658.5 33 c 128,-1,6
 591 -5 591 -5 514 -5 c 0,7,8
 447 -5 447 -5 399.5 18.5 c 128,-1,9
 352 42 352 42 325 85 c 1,10,11
 305 43 305 43 266.5 19 c 128,-1,12
 228 -5 228 -5 182 -5 c 0,13,14
 114 -5 114 -5 75 42.5 c 128,-1,15
 36 90 36 90 36 170 c 0,16,17
 36 252 36 252 73 320 c 128,-1,18
 110 388 110 388 178 428 c 128,-1,19
 246 468 246 468 336 468 c 0,20,21
 358 468 358 468 367 458 c 128,-1,22
 376 448 376 448 382 418 c 1,23,24
 407 441 407 441 443 453.5 c 128,-1,25
 479 466 479 466 519 466 c 0,26,27
 577 466 577 466 612 431.5 c 128,-1,28
 647 397 647 397 647 338 c 0,29,30
 647 269 647 269 597.5 219.5 c 128,-1,31
 548 170 548 170 430 141 c 1,32,33
 455 95 455 95 525 95 c 0,34,35
 570 95 570 95 627.5 126.5 c 128,-1,36
 685 158 685 158 727 209 c 0,37,38
 739 223 739 223 754 223 c 0,39,0
 767 223 767 223 774.5 211 c 128,-1,1
338 370 m 1,41,42
 256 369 256 369 208 317.5 c 128,-1,43
 160 266 160 266 160 175 c 0,44,45
 160 138 160 138 173 117 c 128,-1,46
 186 96 186 96 209 96 c 0,47,48
 234 96 234 96 254 123 c 128,-1,49
 274 150 274 150 284 201 c 2,50,-1
 294 251 l 2,51,40
 308 321 308 321 338 370 c 1,41,42
439.5 325 m 128,-1,53
 414 282 414 282 414 221 c 2,54,-1
 414 219 l 1,55,56
 473 233 473 233 507 261 c 128,-1,57
 541 289 541 289 541 326 c 0,58,59
 541 345 541 345 530.5 356.5 c 128,-1,60
 520 368 520 368 502 368 c 0,61,52
 465 368 465 368 439.5 325 c 128,-1,53
EndSplineSet
Substitution2: "Single Substitution lookup 29 subtable" ae.fina
Substitution2: "'fina' Terminal Forms in Latin lookup 15 subtable" ae.fina
Substitution2: "'aalt' Access All Alternates in Latin lookup 0 subtable" ae.fina
EndChar

StartChar: b
Encoding: 98 98 392
Width: 473
Flags: W
LayerCount: 2
Fore
SplineSet
600 294 m 128,-1,1
 607 281 607 281 607 261 c 0,2,3
 607 236 607 236 600 222.5 c 128,-1,4
 593 209 593 209 578 204 c 0,5,6
 518 183 518 183 446 180 c 1,7,8
 426 97 426 97 370.5 46 c 128,-1,9
 315 -5 315 -5 248 -5 c 0,10,11
 147 -5 147 -5 101 72 c 128,-1,12
 55 149 55 149 55 295 c 0,13,14
 55 424 55 424 87 575.5 c 128,-1,15
 119 727 119 727 180.5 833.5 c 128,-1,16
 242 940 242 940 327 940 c 0,17,18
 373 940 373 940 401 900.5 c 128,-1,19
 429 861 429 861 429 798 c 0,20,21
 429 716 429 716 398 635 c 128,-1,22
 367 554 367 554 295 465 c 1,23,24
 362 460 362 460 404 409.5 c 128,-1,25
 446 359 446 359 454 285 c 1,26,27
 501 288 501 288 566 305 c 0,28,29
 572 307 572 307 580 307 c 0,30,0
 593 307 593 307 600 294 c 128,-1,1
260.5 781.5 m 128,-1,32
 237 722 237 722 217 620 c 128,-1,33
 197 518 197 518 187 397 c 1,34,35
 253 518 253 518 292.5 610.5 c 128,-1,36
 332 703 332 703 332 775 c 0,37,38
 332 807 332 807 324.5 824 c 128,-1,39
 317 841 317 841 304 841 c 0,40,31
 284 841 284 841 260.5 781.5 c 128,-1,32
307 127 m 128,-1,42
 331 153 331 153 339 202 c 1,43,44
 308 223 308 223 291.5 257 c 128,-1,45
 275 291 275 291 275 329 c 0,46,47
 275 343 275 343 279 367 c 1,48,-1
 276 367 l 2,49,50
 235 367 235 367 207.5 326.5 c 128,-1,51
 180 286 180 286 180 218 c 0,52,53
 180 161 180 161 201.5 131 c 128,-1,54
 223 101 223 101 252 101 c 0,55,41
 283 101 283 101 307 127 c 128,-1,42
EndSplineSet
Substitution2: "Single Substitution lookup 29 subtable" b.fina
Substitution2: "'ss01' Style Set 1 in Latin lookup 24 subtable" b.ss01
Substitution2: "'salt' Stylistic Alternatives in Latin lookup 23 subtable" b.ss01
Substitution2: "'fina' Terminal Forms in Latin lookup 15 subtable" b.fina
AlternateSubs2: "'aalt' Access All Alternates in Latin lookup 1 subtable" b.fina b.ss01
EndChar

StartChar: c
Encoding: 99 99 393
Width: 368
GlyphClass: 2
Flags: W
AnchorPoint: "Anchor-9" 0 0 basechar 0
AnchorPoint: "Anchor-8" 254 460 basechar 0
AnchorPoint: "Anchor-7" 0 0 basechar 0
AnchorPoint: "Anchor-6" 238 0 basechar 0
LayerCount: 2
Fore
SplineSet
86.5 50.5 m 128,-1,1
 32 106 32 106 32 197 c 0,2,3
 32 278 32 278 64 339 c 128,-1,4
 96 400 96 400 147 433 c 128,-1,5
 198 466 198 466 254 466 c 0,6,7
 309 466 309 466 339.5 433.5 c 128,-1,8
 370 401 370 401 370 350 c 0,9,10
 370 308 370 308 351.5 279 c 128,-1,11
 333 250 333 250 303 250 c 0,12,13
 284 250 284 250 272.5 259 c 128,-1,14
 261 268 261 268 261 284 c 0,15,16
 261 291 261 291 263 300 c 128,-1,17
 265 309 265 309 266 313 c 0,18,19
 271 328 271 328 271 341 c 256,20,21
 271 354 271 354 264.5 361 c 128,-1,22
 258 368 258 368 246 368 c 0,23,24
 223 368 223 368 203 347.5 c 128,-1,25
 183 327 183 327 171 292 c 128,-1,26
 159 257 159 257 159 215 c 0,27,28
 159 99 159 99 260 99 c 0,29,30
 301 99 301 99 348.5 126.5 c 128,-1,31
 396 154 396 154 442 209 c 0,32,33
 454 223 454 223 469 223 c 0,34,35
 482 223 482 223 489.5 211 c 128,-1,36
 497 199 497 199 497 178 c 0,37,38
 497 140 497 140 478 116 c 0,39,40
 431 58 431 58 365.5 26.5 c 128,-1,41
 300 -5 300 -5 239 -5 c 0,42,0
 141 -5 141 -5 86.5 50.5 c 128,-1,1
EndSplineSet
Substitution2: "Single Substitution lookup 29 subtable" c.fina
Substitution2: "'fina' Terminal Forms in Latin lookup 15 subtable" c.fina
Substitution2: "'aalt' Access All Alternates in Latin lookup 0 subtable" c.fina
EndChar

StartChar: d
Encoding: 100 100 399
Width: 515
GlyphClass: 2
Flags: W
AnchorPoint: "Anchor-9" 651 930 basechar 0
AnchorPoint: "Anchor-8" 524 930 basechar 0
AnchorPoint: "Anchor-7" 0 0 basechar 0
AnchorPoint: "Anchor-6" 307 0 basechar 0
LayerCount: 2
Fore
SplineSet
636.5 211 m 128,-1,1
 644 199 644 199 644 178 c 0,2,3
 644 138 644 138 625 116 c 0,4,5
 584 66 584 66 535 30.5 c 128,-1,6
 486 -5 486 -5 438 -5 c 0,7,8
 362 -5 362 -5 322 84 c 1,9,10
 280 31 280 31 248.5 13 c 128,-1,11
 217 -5 217 -5 175 -5 c 0,12,13
 114 -5 114 -5 74.5 40.5 c 128,-1,14
 35 86 35 86 35 159 c 0,15,16
 35 239 35 239 69 307.5 c 128,-1,17
 103 376 103 376 162.5 419.5 c 128,-1,18
 222 463 222 463 296 471 c 1,19,20
 315 665 315 665 368.5 802.5 c 128,-1,21
 422 940 422 940 509 940 c 0,22,23
 552 940 552 940 580.5 901 c 128,-1,24
 609 862 609 862 609 783 c 0,25,26
 609 671 609 671 554 521 c 128,-1,27
 499 371 499 371 407 213 c 1,28,29
 411 155 411 155 424.5 130 c 128,-1,30
 438 105 438 105 459 105 c 0,31,32
 486 105 486 105 514 129 c 128,-1,33
 542 153 542 153 589 209 c 0,34,35
 601 223 601 223 616 223 c 0,36,0
 629 223 629 223 636.5 211 c 128,-1,1
460 774.5 m 128,-1,38
 441 707 441 707 427.5 598 c 128,-1,39
 414 489 414 489 408 370 c 1,40,41
 520 614 520 614 520 762 c 0,42,43
 520 800 520 800 513.5 821 c 128,-1,44
 507 842 507 842 498 842 c 0,45,37
 479 842 479 842 460 774.5 c 128,-1,38
248 111.5 m 128,-1,47
 267 127 267 127 296 169 c 1,48,49
 286 223 286 223 286 290 c 0,50,51
 286 314 286 314 288 368 c 1,52,53
 233 351 233 351 196.5 294.5 c 128,-1,54
 160 238 160 238 160 169 c 0,55,56
 160 96 160 96 210 96 c 0,57,46
 229 96 229 96 248 111.5 c 128,-1,47
EndSplineSet
Substitution2: "Single Substitution lookup 29 subtable" d.fina
Substitution2: "'ss01' Style Set 1 in Latin lookup 24 subtable" d.ss01
Substitution2: "'salt' Stylistic Alternatives in Latin lookup 23 subtable" d.ss01
Substitution2: "'fina' Terminal Forms in Latin lookup 15 subtable" d.fina
AlternateSubs2: "'aalt' Access All Alternates in Latin lookup 1 subtable" d.fina d.ss01
EndChar

StartChar: eth
Encoding: 240 240 400
Width: 451
Flags: W
LayerCount: 2
Fore
SplineSet
518 826 m 0,1,2
 518 802 518 802 489 774 c 128,-1,3
 460 746 460 746 393 706 c 1,4,5
 422 641 422 641 438 563.5 c 128,-1,6
 454 486 454 486 454 403 c 0,7,8
 454 283 454 283 427.5 191 c 128,-1,9
 401 99 401 99 348 47 c 128,-1,10
 295 -5 295 -5 219 -5 c 0,11,12
 159 -5 159 -5 117 24.5 c 128,-1,13
 75 54 75 54 54 102 c 128,-1,14
 33 150 33 150 33 205 c 0,15,16
 33 281 33 281 62 340.5 c 128,-1,17
 91 400 91 400 140.5 433.5 c 128,-1,18
 190 467 190 467 249 467 c 0,19,20
 296 467 296 467 328 447 c 1,21,22
 322 564 322 564 291 649 c 1,23,-1
 201 602 l 2,24,25
 192 597 192 597 181 597 c 0,26,27
 160 597 160 597 144.5 616.5 c 128,-1,28
 129 636 129 636 129 656 c 0,29,30
 129 672 129 672 141 679 c 0,31,32
 182 702 182 702 249 737 c 1,33,34
 211 804 211 804 149 869 c 0,35,36
 143 877 143 877 143 884 c 0,37,38
 143 900 143 900 163 912.5 c 128,-1,39
 183 925 183 925 208 925 c 0,40,41
 224 925 224 925 237 918 c 0,42,43
 257 908 257 908 286.5 873.5 c 128,-1,44
 316 839 316 839 346 792 c 1,45,46
 372 808 372 808 396 827 c 0,47,48
 436 856 436 856 457 868 c 0,49,50
 468 875 468 875 479 875 c 0,51,52
 498 875 498 875 510 854 c 0,53,0
 518 840 518 840 518 826 c 0,1,2
292 158 m 128,-1,55
 321 215 321 215 327 328 c 1,56,57
 311 344 311 344 293 352.5 c 128,-1,58
 275 361 275 361 259 361 c 0,59,60
 211 361 211 361 184.5 323.5 c 128,-1,61
 158 286 158 286 158 214 c 0,62,63
 158 160 158 160 179 130.5 c 128,-1,64
 200 101 200 101 227 101 c 0,65,54
 263 101 263 101 292 158 c 128,-1,55
EndSplineSet
EndChar

StartChar: dcroat
Encoding: 273 273 402
Width: 470
Flags: W
LayerCount: 2
Fore
SplineSet
591.5 211 m 128,-1,1
 599 199 599 199 599 178 c 0,2,3
 599 138 599 138 580 116 c 0,4,5
 539 65 539 65 493 30 c 128,-1,6
 447 -5 447 -5 404 -5 c 0,7,8
 371 -5 371 -5 343.5 17.5 c 128,-1,9
 316 40 316 40 302 79 c 1,10,11
 250 -5 250 -5 171 -5 c 0,12,13
 109 -5 109 -5 72 40 c 128,-1,14
 35 85 35 85 35 158 c 0,15,16
 35 237 35 237 72 309 c 128,-1,17
 109 381 109 381 169.5 424.5 c 128,-1,18
 230 468 230 468 297 468 c 0,19,20
 320 468 320 468 332 447 c 1,21,-1
 349 571 l 1,22,-1
 206 571 l 2,23,24
 178 571 178 571 169 581.5 c 128,-1,25
 160 592 160 592 160 617 c 0,26,27
 160 643 160 643 170 658 c 128,-1,28
 180 673 180 673 210 673 c 0,29,30
 261 673 261 673 306 670 c 0,31,32
 344 668 344 668 363 668 c 1,33,-1
 378 766 l 2,34,35
 387 828 387 828 456 828 c 0,36,37
 487 828 487 828 501 818 c 128,-1,38
 515 808 515 808 515 787 c 0,39,40
 515 782 515 782 513 770 c 2,41,-1
 494 679 l 1,42,-1
 514 679 l 2,43,44
 533 679 533 679 542.5 668 c 128,-1,45
 552 657 552 657 552 640 c 0,46,47
 552 614 552 614 534 598.5 c 128,-1,48
 516 583 516 583 474 576 c 1,49,50
 439 406 439 406 414 263 c 0,51,52
 398 175 398 175 398 138 c 0,53,54
 398 123 398 123 405.5 114 c 128,-1,55
 413 105 413 105 425 105 c 0,56,57
 444 105 444 105 471 129.5 c 128,-1,58
 498 154 498 154 544 209 c 0,59,60
 556 223 556 223 571 223 c 0,61,0
 584 223 584 223 591.5 211 c 128,-1,1
315 375 m 1,62,63
 273 374 273 374 237.5 343.5 c 128,-1,64
 202 313 202 313 181 263 c 128,-1,65
 160 213 160 213 160 157 c 0,66,67
 160 126 160 126 172.5 111 c 128,-1,68
 185 96 185 96 207 96 c 256,69,70
 229 96 229 96 249 122 c 128,-1,71
 269 148 269 148 278 191 c 2,72,-1
 315 375 l 1,62,63
EndSplineSet
Substitution2: "Single Substitution lookup 29 subtable" dcroat.fina
Substitution2: "'fina' Terminal Forms in Latin lookup 15 subtable" dcroat.fina
Substitution2: "'aalt' Access All Alternates in Latin lookup 0 subtable" dcroat.fina
EndChar

StartChar: e
Encoding: 101 101 404
Width: 393
GlyphClass: 2
Flags: W
AnchorPoint: "Anchor-9" 0 0 basechar 0
AnchorPoint: "Anchor-8" 259 460 basechar 0
AnchorPoint: "Anchor-7" 323 10 basechar 0
AnchorPoint: "Anchor-6" 235 0 basechar 0
LayerCount: 2
Fore
SplineSet
514.5 211 m 128,-1,1
 522 199 522 199 522 178 c 0,2,3
 522 138 522 138 503 116 c 0,4,5
 466 71 466 71 398.5 33 c 128,-1,6
 331 -5 331 -5 254 -5 c 0,7,8
 149 -5 149 -5 91 52 c 128,-1,9
 33 109 33 109 33 208 c 0,10,11
 33 277 33 277 62 336.5 c 128,-1,12
 91 396 91 396 142.5 431 c 128,-1,13
 194 466 194 466 259 466 c 0,14,15
 317 466 317 466 352 431.5 c 128,-1,16
 387 397 387 397 387 338 c 0,17,18
 387 269 387 269 337.5 219.5 c 128,-1,19
 288 170 288 170 170 141 c 1,20,21
 195 95 195 95 265 95 c 0,22,23
 310 95 310 95 367.5 126.5 c 128,-1,24
 425 158 425 158 467 209 c 0,25,26
 479 223 479 223 494 223 c 0,27,0
 507 223 507 223 514.5 211 c 128,-1,1
179.5 325 m 128,-1,29
 154 282 154 282 154 221 c 2,30,-1
 154 219 l 1,31,32
 213 233 213 233 247 261 c 128,-1,33
 281 289 281 289 281 326 c 0,34,35
 281 345 281 345 270.5 356.5 c 128,-1,36
 260 368 260 368 242 368 c 0,37,28
 205 368 205 368 179.5 325 c 128,-1,29
EndSplineSet
Substitution2: "Single Substitution lookup 29 subtable" e.fina
Substitution2: "'fina' Terminal Forms in Latin lookup 15 subtable" e.fina
Substitution2: "'aalt' Access All Alternates in Latin lookup 0 subtable" e.fina
EndChar

StartChar: eogonek
Encoding: 281 281 422
Width: 393
Flags: W
LayerCount: 2
Fore
SplineSet
514.5 211 m 128,-1,1
 522 199 522 199 522 178 c 0,2,3
 522 138 522 138 503 116 c 0,4,5
 449 49 449 49 342 9 c 0,6,7
 296 -8 296 -8 275.5 -37.5 c 128,-1,8
 255 -67 255 -67 255 -98 c 256,9,10
 255 -129 255 -129 273 -144.5 c 128,-1,11
 291 -160 291 -160 317 -160 c 256,12,13
 343 -160 343 -160 364 -153 c 0,14,15
 381 -147 381 -147 391 -147 c 0,16,17
 417 -147 417 -147 417 -184 c 0,18,19
 417 -224 417 -224 370 -240 c 0,20,21
 358 -244 358 -244 338.5 -247 c 128,-1,22
 319 -250 319 -250 303 -250 c 0,23,24
 234 -250 234 -250 193.5 -214.5 c 128,-1,25
 153 -179 153 -179 153 -118 c 0,26,27
 153 -82 153 -82 165.5 -54 c 128,-1,28
 178 -26 178 -26 203 -1 c 1,29,30
 122 11 122 11 77.5 66 c 128,-1,31
 33 121 33 121 33 208 c 0,32,33
 33 277 33 277 62 336.5 c 128,-1,34
 91 396 91 396 142.5 431 c 128,-1,35
 194 466 194 466 259 466 c 0,36,37
 317 466 317 466 352 431.5 c 128,-1,38
 387 397 387 397 387 338 c 0,39,40
 387 269 387 269 337.5 219.5 c 128,-1,41
 288 170 288 170 170 141 c 1,42,43
 195 95 195 95 265 95 c 0,44,45
 310 95 310 95 367.5 126.5 c 128,-1,46
 425 158 425 158 467 209 c 0,47,48
 479 223 479 223 494 223 c 0,49,0
 507 223 507 223 514.5 211 c 128,-1,1
179.5 325 m 128,-1,51
 154 282 154 282 154 221 c 2,52,-1
 154 219 l 1,53,54
 213 233 213 233 247 261 c 128,-1,55
 281 289 281 289 281 326 c 0,56,57
 281 345 281 345 270.5 356.5 c 128,-1,58
 260 368 260 368 242 368 c 0,59,50
 205 368 205 368 179.5 325 c 128,-1,51
EndSplineSet
Substitution2: "Single Substitution lookup 29 subtable" eogonek.fina
Substitution2: "'fina' Terminal Forms in Latin lookup 15 subtable" eogonek.fina
Substitution2: "'aalt' Access All Alternates in Latin lookup 0 subtable" eogonek.fina
EndChar

StartChar: uni0259
Encoding: 601 601 424
Width: 458
Flags: W
LayerCount: 2
Fore
SplineSet
384.5 407.5 m 128,-1,1
 437 348 437 348 437 241 c 0,2,3
 437 171 437 171 412 115 c 128,-1,4
 387 59 387 59 339 27 c 128,-1,5
 291 -5 291 -5 223 -5 c 0,6,7
 134 -5 134 -5 87 42.5 c 128,-1,8
 40 90 40 90 40 162 c 0,9,10
 40 182 40 182 42 193 c 0,11,12
 45 219 45 219 64 236 c 128,-1,13
 83 253 83 253 119 253 c 2,14,-1
 314 253 l 1,15,16
 310 307 310 307 283.5 331.5 c 128,-1,17
 257 356 257 356 208 356 c 256,18,19
 159 356 159 356 112 339 c 0,20,21
 103 335 103 335 92 335 c 0,22,23
 76 335 76 335 68 346 c 128,-1,24
 60 357 60 357 60 375 c 0,25,26
 60 419 60 419 94 439 c 0,27,28
 115 451 115 451 151 459 c 128,-1,29
 187 467 187 467 228 467 c 0,30,0
 332 467 332 467 384.5 407.5 c 128,-1,1
308 173 m 1,32,-1
 157 173 l 1,33,34
 153 128 153 128 173 108 c 128,-1,35
 193 88 193 88 223 88 c 0,36,31
 291 88 291 88 308 173 c 1,32,-1
EndSplineSet
EndChar

StartChar: f
Encoding: 102 102 425
Width: 371
Flags: W
LayerCount: 2
Fore
SplineSet
475 238 m 0,1,2
 475 159 475 159 351 159 c 0,3,4
 327 159 327 159 282 168 c 1,5,6
 295 106 295 106 303.5 30.5 c 128,-1,7
 312 -45 312 -45 312 -94 c 0,8,9
 312 -202 312 -202 277 -259 c 128,-1,10
 242 -316 242 -316 185 -316 c 0,11,12
 113 -316 113 -316 82.5 -214 c 128,-1,13
 52 -112 52 -112 52 94 c 0,14,15
 52 286 52 286 93.5 483.5 c 128,-1,16
 135 681 135 681 207.5 810.5 c 128,-1,17
 280 940 280 940 367 940 c 0,18,19
 414 940 414 940 440.5 898 c 128,-1,20
 467 856 467 856 467 785 c 0,21,22
 467 550 467 550 186 273 c 1,23,24
 176 175 176 175 176 101 c 0,25,26
 176 -2 176 -2 183 -110.5 c 128,-1,27
 190 -219 190 -219 206 -219 c 0,28,29
 236 -219 236 -219 236 -115 c 0,30,31
 236 -37 236 -37 225.5 36 c 128,-1,32
 215 109 215 109 197 190 c 0,33,34
 196 203 196 203 205.5 223 c 128,-1,35
 215 243 215 243 229 258 c 128,-1,36
 243 273 243 273 254 273 c 0,37,38
 274 273 274 273 302 271 c 0,39,40
 311 270 311 270 323 270 c 0,41,42
 363 270 363 270 412 277 c 0,43,44
 420 278 420 278 429 279 c 128,-1,45
 438 280 438 280 447 280 c 0,46,0
 475 280 475 280 475 238 c 0,1,2
301.5 780 m 128,-1,48
 275 719 275 719 249 618.5 c 128,-1,49
 223 518 223 518 204 406 c 1,50,51
 284 497 284 497 327 595.5 c 128,-1,52
 370 694 370 694 371 780 c 0,53,54
 371 841 371 841 346 841 c 0,55,47
 328 841 328 841 301.5 780 c 128,-1,48
EndSplineSet
Substitution2: "'ss01' Style Set 1 in Latin lookup 24 subtable" f.ss01
Substitution2: "'salt' Stylistic Alternatives in Latin lookup 23 subtable" f.ss01
Substitution2: "'aalt' Access All Alternates in Latin lookup 0 subtable" f.ss01
EndChar

StartChar: g
Encoding: 103 103 426
Width: 479
GlyphClass: 2
Flags: W
AnchorPoint: "Anchor-9" 0 0 basechar 0
AnchorPoint: "Anchor-8" 301 460 basechar 0
AnchorPoint: "Anchor-7" 0 0 basechar 0
AnchorPoint: "Anchor-6" 230 0 basechar 0
LayerCount: 2
Fore
SplineSet
580.5 208.5 m 128,-1,1
 588 196 588 196 588 177 c 0,2,3
 588 154 588 154 581 141 c 128,-1,4
 574 128 574 128 559 118 c 0,5,6
 473 60 473 60 433 32 c 2,7,-1
 369 -11 l 1,8,9
 331 -218 331 -218 269.5 -336.5 c 128,-1,10
 208 -455 208 -455 113 -455 c 0,11,12
 62 -455 62 -455 30 -423.5 c 128,-1,13
 -2 -392 -2 -392 -2 -341 c 0,14,15
 -2 -270 -2 -270 54 -188.5 c 128,-1,16
 110 -107 110 -107 264 12 c 1,17,-1
 270 51 l 1,18,19
 253 24 253 24 225.5 9.5 c 128,-1,20
 198 -5 198 -5 171 -5 c 0,21,22
 109 -5 109 -5 72 40 c 128,-1,23
 35 85 35 85 35 158 c 0,24,25
 35 238 35 238 72 309.5 c 128,-1,26
 109 381 109 381 170.5 424.5 c 128,-1,27
 232 468 232 468 301 468 c 0,28,29
 323 468 323 468 330.5 459.5 c 128,-1,30
 338 451 338 451 343 429 c 1,31,32
 362 433 362 433 387 433 c 256,33,34
 412 433 412 433 422.5 425.5 c 128,-1,35
 433 418 433 418 433 396 c 0,36,37
 433 384 433 384 432 377 c 0,38,39
 428 346 428 346 407 220 c 0,40,41
 403 196 403 196 398.5 167.5 c 128,-1,42
 394 139 394 139 389 107 c 1,43,44
 466 167 466 167 537 213 c 0,45,46
 550 221 550 221 560 221 c 0,47,0
 573 221 573 221 580.5 208.5 c 128,-1,1
251 124 m 128,-1,49
 272 152 272 152 281 204 c 2,50,-1
 313 375 l 1,51,52
 272 374 272 374 237 343.5 c 128,-1,53
 202 313 202 313 181 263 c 128,-1,54
 160 213 160 213 160 157 c 0,55,56
 160 126 160 126 172.5 111 c 128,-1,57
 185 96 185 96 207 96 c 0,58,48
 230 96 230 96 251 124 c 128,-1,49
180.5 -298 m 128,-1,60
 212 -238 212 -238 241 -107 c 1,61,62
 164 -173 164 -173 130 -226 c 128,-1,63
 96 -279 96 -279 96 -319 c 0,64,65
 96 -336 96 -336 102.5 -347 c 128,-1,66
 109 -358 109 -358 124 -358 c 0,67,59
 149 -358 149 -358 180.5 -298 c 128,-1,60
EndSplineSet
Substitution2: "Single Substitution lookup 29 subtable" g.fina
Substitution2: "'fina' Terminal Forms in Latin lookup 15 subtable" g.fina
Substitution2: "'aalt' Access All Alternates in Latin lookup 0 subtable" g.fina
EndChar

StartChar: h
Encoding: 104 104 432
Width: 502
GlyphClass: 2
Flags: W
AnchorPoint: "Anchor-9" 0 0 basechar 0
AnchorPoint: "Anchor-8" 328 930 basechar 0
AnchorPoint: "Anchor-7" 0 0 basechar 0
AnchorPoint: "Anchor-6" 223 0 basechar 0
LayerCount: 2
Fore
SplineSet
623.5 211 m 128,-1,1
 631 199 631 199 631 178 c 0,2,3
 631 138 631 138 612 116 c 0,4,5
 566 63 566 63 517.5 29 c 128,-1,6
 469 -5 469 -5 407 -5 c 0,7,8
 356 -5 356 -5 330 24.5 c 128,-1,9
 304 54 304 54 304 110 c 0,10,11
 304 138 304 138 318 210 c 0,12,13
 331 273 331 273 331 297 c 0,14,15
 331 313 331 313 320 313 c 0,16,17
 307 313 307 313 283 279.5 c 128,-1,18
 259 246 259 246 235 191 c 128,-1,19
 211 136 211 136 196 75 c 0,20,21
 177 -5 177 -5 102 -5 c 0,22,23
 72 -5 72 -5 62.5 16.5 c 128,-1,24
 53 38 53 38 53 94 c 0,25,26
 53 126 53 126 54 145 c 2,27,-1
 55 225 l 2,28,29
 55 379 55 379 86.5 546 c 128,-1,30
 118 713 118 713 179.5 826.5 c 128,-1,31
 241 940 241 940 327 940 c 0,32,33
 373 940 373 940 401.5 900.5 c 128,-1,34
 430 861 430 861 430 798 c 0,35,36
 430 697 430 697 371 588.5 c 128,-1,37
 312 480 312 480 179 335 c 1,38,39
 176 283 176 283 176 228 c 1,40,41
 209 313 209 313 249.5 366.5 c 128,-1,42
 290 420 290 420 329.5 443 c 128,-1,43
 369 466 369 466 402 466 c 0,44,45
 467 466 467 466 467 401 c 0,46,47
 467 362 467 362 445 260 c 0,48,49
 426 173 426 173 426 145 c 0,50,51
 426 105 426 105 455 105 c 0,52,53
 475 105 475 105 502.5 129.5 c 128,-1,54
 530 154 530 154 576 209 c 0,55,56
 588 223 588 223 603 223 c 0,57,0
 616 223 616 223 623.5 211 c 128,-1,1
266 789.5 m 128,-1,59
 244 738 244 738 223.5 650.5 c 128,-1,60
 203 563 203 563 190 460 c 1,61,62
 252 533 252 533 292.5 619 c 128,-1,63
 333 705 333 705 333 775 c 0,64,65
 333 807 333 807 326 824 c 128,-1,66
 319 841 319 841 306 841 c 0,67,58
 288 841 288 841 266 789.5 c 128,-1,59
EndSplineSet
Substitution2: "Single Substitution lookup 29 subtable" h.fina
Substitution2: "'fina' Terminal Forms in Latin lookup 15 subtable" h.fina
Substitution2: "'aalt' Access All Alternates in Latin lookup 0 subtable" h.fina
EndChar

StartChar: hbar
Encoding: 295 295 433
Width: 502
Flags: W
LayerCount: 2
Fore
SplineSet
623.5 211 m 128,-1,1
 631 199 631 199 631 178 c 0,2,3
 631 138 631 138 612 116 c 0,4,5
 569 63 569 63 519.5 29 c 128,-1,6
 470 -5 470 -5 407 -5 c 0,7,8
 356 -5 356 -5 330 24.5 c 128,-1,9
 304 54 304 54 304 110 c 0,10,11
 304 138 304 138 318 210 c 0,12,13
 331 273 331 273 331 297 c 0,14,15
 331 313 331 313 320 313 c 0,16,17
 307 313 307 313 283 279.5 c 128,-1,18
 259 246 259 246 235 191 c 128,-1,19
 211 136 211 136 196 75 c 0,20,21
 185 28 185 28 170.5 11.5 c 128,-1,22
 156 -5 156 -5 125 -5 c 0,23,24
 89 -5 89 -5 73 27.5 c 128,-1,25
 57 60 57 60 57 137 c 0,26,27
 57 175 57 175 62 245 c 0,28,29
 71 378 71 378 113 577 c 1,30,31
 81 583 81 583 67 594.5 c 128,-1,32
 53 606 53 606 53 624 c 0,33,34
 53 673 53 673 91 673 c 0,35,36
 123 673 123 673 135 672 c 1,37,38
 144 710 144 710 158 756 c 0,39,40
 170 797 170 797 188.5 812.5 c 128,-1,41
 207 828 207 828 238 828 c 0,42,43
 297 828 297 828 297 786 c 0,44,45
 297 773 297 773 293 760 c 2,46,-1
 268 669 l 1,47,48
 282 669 282 669 314 671 c 0,49,50
 364 673 364 673 395 673 c 0,51,52
 425 673 425 673 435 659 c 128,-1,53
 445 645 445 645 445 622 c 0,54,55
 445 596 445 596 427.5 583.5 c 128,-1,56
 410 571 410 571 379 571 c 2,57,-1
 244 571 l 1,58,59
 206 420 206 420 176 228 c 1,60,61
 209 313 209 313 249.5 366.5 c 128,-1,62
 290 420 290 420 329.5 443 c 128,-1,63
 369 466 369 466 402 466 c 0,64,65
 467 466 467 466 467 401 c 0,66,67
 467 362 467 362 445 260 c 0,68,69
 426 173 426 173 426 145 c 0,70,71
 426 105 426 105 455 105 c 0,72,73
 475 105 475 105 502.5 129.5 c 128,-1,74
 530 154 530 154 576 209 c 0,75,76
 588 223 588 223 603 223 c 0,77,0
 616 223 616 223 623.5 211 c 128,-1,1
EndSplineSet
Substitution2: "Single Substitution lookup 29 subtable" hbar.fina
Substitution2: "'fina' Terminal Forms in Latin lookup 15 subtable" hbar.fina
Substitution2: "'aalt' Access All Alternates in Latin lookup 0 subtable" hbar.fina
EndChar

StartChar: i
Encoding: 105 105 435
Width: 246
GlyphClass: 2
Flags: W
AnchorPoint: "Anchor-9" 0 0 basechar 0
AnchorPoint: "Anchor-8" 0 0 basechar 0
AnchorPoint: "Anchor-7" 0 0 basechar 0
AnchorPoint: "Anchor-6" 114 0 basechar 0
LayerCount: 2
Fore
SplineSet
116 551.5 m 128,-1,1
 95 571 95 571 95 606 c 256,2,3
 95 641 95 641 122.5 664.5 c 128,-1,4
 150 688 150 688 191 688 c 0,5,6
 228 688 228 688 251 670 c 128,-1,7
 274 652 274 652 274 619 c 0,8,9
 274 579 274 579 248 555.5 c 128,-1,10
 222 532 222 532 179 532 c 0,11,0
 137 532 137 532 116 551.5 c 128,-1,1
76.5 41 m 128,-1,13
 47 87 47 87 47 163 c 0,14,15
 47 208 47 208 58.5 278.5 c 128,-1,16
 70 349 70 349 88 410 c 0,17,18
 97 442 97 442 112 454 c 128,-1,19
 127 466 127 466 160 466 c 0,20,21
 211 466 211 466 211 432 c 0,22,23
 211 407 211 407 192 316 c 0,24,25
 168 206 168 206 168 167 c 0,26,27
 168 137 168 137 176 121 c 128,-1,28
 184 105 184 105 203 105 c 0,29,30
 221 105 221 105 248 130 c 128,-1,31
 275 155 275 155 320 209 c 0,32,33
 332 223 332 223 347 223 c 0,34,35
 360 223 360 223 367.5 211 c 128,-1,36
 375 199 375 199 375 178 c 0,37,38
 375 138 375 138 356 116 c 0,39,40
 257 -5 257 -5 171 -5 c 0,41,12
 106 -5 106 -5 76.5 41 c 128,-1,13
EndSplineSet
Substitution2: "Single Substitution lookup 29 subtable" i.fina
Substitution2: "Single Substitution lookup 27 subtable" dotlessi
Substitution2: "'fina' Terminal Forms in Latin lookup 15 subtable" i.fina
Substitution2: "'locl' Localized Forms in Latin lookup 13 subtable" i.loclTRK
Substitution2: "'locl' Localized Forms in Latin lookup 12 subtable" i.loclTRK
Substitution2: "'locl' Localized Forms in Latin lookup 11 subtable" i.loclTRK
Substitution2: "'locl' Localized Forms in Latin lookup 10 subtable" i.loclTRK
Substitution2: "'locl' Localized Forms in Latin lookup 9 subtable" i.loclTRK
AlternateSubs2: "'aalt' Access All Alternates in Latin lookup 1 subtable" dotlessi i.loclTRK i.fina
EndChar

StartChar: dotlessi
Encoding: 305 305 436
Width: 246
GlyphClass: 2
Flags: W
AnchorPoint: "Anchor-9" 0 0 basechar 0
AnchorPoint: "Anchor-8" 160 460 basechar 0
AnchorPoint: "Anchor-7" 232 10 basechar 0
AnchorPoint: "Anchor-6" 124 0 basechar 0
LayerCount: 2
Fore
SplineSet
76.5 41 m 128,-1,1
 47 87 47 87 47 163 c 0,2,3
 47 208 47 208 58.5 278.5 c 128,-1,4
 70 349 70 349 88 410 c 0,5,6
 97 442 97 442 112 454 c 128,-1,7
 127 466 127 466 160 466 c 0,8,9
 211 466 211 466 211 432 c 0,10,11
 211 407 211 407 192 316 c 0,12,13
 168 206 168 206 168 167 c 0,14,15
 168 137 168 137 176 121 c 128,-1,16
 184 105 184 105 203 105 c 0,17,18
 221 105 221 105 248 130 c 128,-1,19
 275 155 275 155 320 209 c 0,20,21
 332 223 332 223 347 223 c 0,22,23
 360 223 360 223 367.5 211 c 128,-1,24
 375 199 375 199 375 178 c 0,25,26
 375 138 375 138 356 116 c 0,27,28
 257 -5 257 -5 171 -5 c 0,29,0
 106 -5 106 -5 76.5 41 c 128,-1,1
EndSplineSet
Substitution2: "Single Substitution lookup 29 subtable" dotlessi.fina
Substitution2: "'fina' Terminal Forms in Latin lookup 15 subtable" dotlessi.fina
Substitution2: "'aalt' Access All Alternates in Latin lookup 0 subtable" dotlessi.fina
EndChar

StartChar: iogonek
Encoding: 303 303 448
Width: 246
Flags: W
LayerCount: 2
Fore
SplineSet
108 551.5 m 128,-1,1
 87 571 87 571 87 606 c 256,2,3
 87 641 87 641 114.5 664.5 c 128,-1,4
 142 688 142 688 183 688 c 0,5,6
 220 688 220 688 243 670 c 128,-1,7
 266 652 266 652 266 619 c 0,8,9
 266 579 266 579 240 555.5 c 128,-1,10
 214 532 214 532 171 532 c 0,11,0
 129 532 129 532 108 551.5 c 128,-1,1
66.5 -214.5 m 128,-1,13
 26 -179 26 -179 26 -118 c 0,14,15
 26 -76 26 -76 47 -38.5 c 128,-1,16
 68 -1 68 -1 97 18 c 1,17,18
 47 58 47 58 47 163 c 0,19,20
 47 208 47 208 58.5 278.5 c 128,-1,21
 70 349 70 349 88 410 c 0,22,23
 97 442 97 442 112 454 c 128,-1,24
 127 466 127 466 160 466 c 0,25,26
 211 466 211 466 211 432 c 0,27,28
 211 407 211 407 192 316 c 0,29,30
 168 206 168 206 168 167 c 0,31,32
 168 137 168 137 176 121 c 128,-1,33
 184 105 184 105 203 105 c 0,34,35
 221 105 221 105 248 130 c 128,-1,36
 275 155 275 155 320 209 c 0,37,38
 332 223 332 223 347 223 c 0,39,40
 360 223 360 223 367.5 211 c 128,-1,41
 375 199 375 199 375 178 c 0,42,43
 375 138 375 138 356 116 c 0,44,45
 303 51 303 51 215 0 c 0,46,47
 169 -26 169 -26 148.5 -50 c 128,-1,48
 128 -74 128 -74 128 -101 c 0,49,50
 128 -130 128 -130 146 -145 c 128,-1,51
 164 -160 164 -160 190 -160 c 256,52,53
 216 -160 216 -160 237 -153 c 0,54,55
 254 -147 254 -147 264 -147 c 0,56,57
 290 -147 290 -147 290 -184 c 0,58,59
 290 -224 290 -224 243 -240 c 0,60,61
 231 -244 231 -244 211.5 -247 c 128,-1,62
 192 -250 192 -250 176 -250 c 0,63,12
 107 -250 107 -250 66.5 -214.5 c 128,-1,13
EndSplineSet
Substitution2: "Single Substitution lookup 29 subtable" iogonek.fina
Substitution2: "'fina' Terminal Forms in Latin lookup 15 subtable" iogonek.fina
Substitution2: "'aalt' Access All Alternates in Latin lookup 0 subtable" iogonek.fina
EndChar

StartChar: j
Encoding: 106 106 450
Width: 254
Flags: W
LayerCount: 2
Fore
SplineSet
92 551.5 m 128,-1,1
 71 571 71 571 71 606 c 256,2,3
 71 641 71 641 98.5 664.5 c 128,-1,4
 126 688 126 688 167 688 c 0,5,6
 204 688 204 688 227 670 c 128,-1,7
 250 652 250 652 250 619 c 0,8,9
 250 579 250 579 224 555.5 c 128,-1,10
 198 532 198 532 155 532 c 0,11,0
 113 532 113 532 92 551.5 c 128,-1,1
355.5 208.5 m 128,-1,13
 363 196 363 196 363 177 c 0,14,15
 363 154 363 154 356 141 c 128,-1,16
 349 128 349 128 334 118 c 0,17,18
 264 72 264 72 147 -9 c 1,19,20
 108 -217 108 -217 46 -336 c 128,-1,21
 -16 -455 -16 -455 -112 -455 c 0,22,23
 -164 -455 -164 -455 -195.5 -423.5 c 128,-1,24
 -227 -392 -227 -392 -227 -341 c 0,25,26
 -227 -270 -227 -270 -172 -189.5 c 128,-1,27
 -117 -109 -117 -109 35 9 c 1,28,-1
 42 60 l 2,29,30
 56 156 56 156 64 249 c 0,31,32
 70 303 70 303 83 410 c 0,33,34
 87 439 87 439 105 452.5 c 128,-1,35
 123 466 123 466 160 466 c 0,36,37
 190 466 190 466 199.5 457 c 128,-1,38
 209 448 209 448 209 432 c 0,39,40
 209 386 209 386 176 178 c 2,41,-1
 166 109 l 1,42,43
 246 169 246 169 312 213 c 0,44,45
 325 221 325 221 335 221 c 0,46,12
 348 221 348 221 355.5 208.5 c 128,-1,13
-44 -299 m 128,-1,48
 -13 -240 -13 -240 14 -109 c 1,49,50
 -62 -174 -62 -174 -95.5 -226.5 c 128,-1,51
 -129 -279 -129 -279 -129 -319 c 0,52,53
 -129 -358 -129 -358 -101 -358 c 0,54,47
 -75 -358 -75 -358 -44 -299 c 128,-1,48
EndSplineSet
Substitution2: "Single Substitution lookup 29 subtable" j.fina
Substitution2: "Single Substitution lookup 27 subtable" uni0237
Substitution2: "'fina' Terminal Forms in Latin lookup 15 subtable" j.fina
AlternateSubs2: "'aalt' Access All Alternates in Latin lookup 1 subtable" uni0237 j.fina
EndChar

StartChar: uni0237
Encoding: 567 567 451
Width: 254
GlyphClass: 2
Flags: W
AnchorPoint: "Anchor-9" 0 0 basechar 0
AnchorPoint: "Anchor-8" 159 460 basechar 0
AnchorPoint: "Anchor-7" 0 0 basechar 0
AnchorPoint: "Anchor-6" 198 0 basechar 0
LayerCount: 2
Fore
SplineSet
355.5 208.5 m 128,-1,1
 363 196 363 196 363 177 c 0,2,3
 363 154 363 154 356 141 c 128,-1,4
 349 128 349 128 334 118 c 0,5,6
 264 72 264 72 147 -9 c 1,7,8
 108 -217 108 -217 46 -336 c 128,-1,9
 -16 -455 -16 -455 -112 -455 c 0,10,11
 -164 -455 -164 -455 -195.5 -423.5 c 128,-1,12
 -227 -392 -227 -392 -227 -341 c 0,13,14
 -227 -270 -227 -270 -172 -189.5 c 128,-1,15
 -117 -109 -117 -109 35 9 c 1,16,-1
 42 60 l 2,17,18
 56 156 56 156 64 249 c 0,19,20
 70 303 70 303 83 410 c 0,21,22
 87 439 87 439 105 452.5 c 128,-1,23
 123 466 123 466 160 466 c 0,24,25
 190 466 190 466 199.5 457 c 128,-1,26
 209 448 209 448 209 432 c 0,27,28
 209 386 209 386 176 178 c 2,29,-1
 166 109 l 1,30,31
 246 169 246 169 312 213 c 0,32,33
 325 221 325 221 335 221 c 0,34,0
 348 221 348 221 355.5 208.5 c 128,-1,1
-44 -299 m 128,-1,36
 -13 -240 -13 -240 14 -109 c 1,37,38
 -62 -174 -62 -174 -95.5 -226.5 c 128,-1,39
 -129 -279 -129 -279 -129 -319 c 0,40,41
 -129 -358 -129 -358 -101 -358 c 0,42,35
 -75 -358 -75 -358 -44 -299 c 128,-1,36
EndSplineSet
Substitution2: "Single Substitution lookup 29 subtable" uni0237.fina
Substitution2: "'fina' Terminal Forms in Latin lookup 15 subtable" uni0237.fina
Substitution2: "'aalt' Access All Alternates in Latin lookup 0 subtable" uni0237.fina
EndChar

StartChar: k
Encoding: 107 107 453
Width: 525
GlyphClass: 2
Flags: W
AnchorPoint: "Anchor-9" 0 0 basechar 0
AnchorPoint: "Anchor-8" 327 930 basechar 0
AnchorPoint: "Anchor-7" 0 0 basechar 0
AnchorPoint: "Anchor-6" 243 0 basechar 0
LayerCount: 2
Fore
SplineSet
646.5 211 m 128,-1,1
 654 199 654 199 654 178 c 0,2,3
 654 138 654 138 635 116 c 0,4,5
 590 61 590 61 544 28 c 128,-1,6
 498 -5 498 -5 435 -5 c 0,7,8
 358 -5 358 -5 311 39 c 128,-1,9
 264 83 264 83 264 156 c 0,10,11
 264 195 264 195 304 212 c 0,12,13
 348 231 348 231 367 252.5 c 128,-1,14
 386 274 386 274 386 305 c 0,15,16
 386 323 386 323 378.5 332 c 128,-1,17
 371 341 371 341 360 341 c 0,18,19
 333 341 333 341 300.5 302 c 128,-1,20
 268 263 268 263 240 201.5 c 128,-1,21
 212 140 212 140 196 75 c 0,22,23
 185 28 185 28 170.5 11.5 c 128,-1,24
 156 -5 156 -5 125 -5 c 256,25,26
 94 -5 94 -5 79.5 17.5 c 128,-1,27
 65 40 65 40 60 87 c 128,-1,28
 55 134 55 134 55 225 c 0,29,30
 55 379 55 379 86.5 546 c 128,-1,31
 118 713 118 713 179.5 826.5 c 128,-1,32
 241 940 241 940 327 940 c 0,33,34
 373 940 373 940 401.5 900.5 c 128,-1,35
 430 861 430 861 430 798 c 0,36,37
 430 697 430 697 371 588.5 c 128,-1,38
 312 480 312 480 179 335 c 1,39,40
 176 283 176 283 176 228 c 1,41,42
 224 353 224 353 286 409.5 c 128,-1,43
 348 466 348 466 402 466 c 0,44,45
 452 466 452 466 482.5 432 c 128,-1,46
 513 398 513 398 513 348 c 0,47,48
 513 293 513 293 485 247 c 128,-1,49
 457 201 457 201 389 165 c 1,50,51
 393 138 393 138 413.5 121.5 c 128,-1,52
 434 105 434 105 463 105 c 0,53,54
 494 105 494 105 523 129 c 128,-1,55
 552 153 552 153 599 209 c 0,56,57
 611 223 611 223 626 223 c 0,58,0
 639 223 639 223 646.5 211 c 128,-1,1
266 789.5 m 128,-1,60
 244 738 244 738 223.5 650.5 c 128,-1,61
 203 563 203 563 190 460 c 1,62,63
 252 533 252 533 292.5 619 c 128,-1,64
 333 705 333 705 333 775 c 0,65,66
 333 807 333 807 326 824 c 128,-1,67
 319 841 319 841 306 841 c 0,68,59
 288 841 288 841 266 789.5 c 128,-1,60
EndSplineSet
Substitution2: "Single Substitution lookup 29 subtable" k.fina
Substitution2: "'fina' Terminal Forms in Latin lookup 15 subtable" k.fina
Substitution2: "'aalt' Access All Alternates in Latin lookup 0 subtable" k.fina
EndChar

StartChar: kgreenlandic
Encoding: 312 312 455
Width: 465
GlyphClass: 2
Flags: W
AnchorPoint: "Anchor-9" 0 0 basechar 0
AnchorPoint: "Anchor-8" 283 460 basechar 0
AnchorPoint: "Anchor-7" 0 0 basechar 0
AnchorPoint: "Anchor-6" 243 0 basechar 0
LayerCount: 2
Fore
SplineSet
65.5 35 m 128,-1,1
 50 75 50 75 50 163 c 0,2,3
 50 293 50 293 87 410 c 0,4,5
 96 439 96 439 116.5 452.5 c 128,-1,6
 137 466 137 466 174 466 c 0,7,8
 194 466 194 466 202 461 c 128,-1,9
 210 456 210 456 210 442 c 0,10,11
 210 426 210 426 195 370 c 0,12,13
 193 363 193 363 186.5 338 c 128,-1,14
 180 313 180 313 174.5 279.5 c 128,-1,15
 169 246 169 246 167 206 c 1,16,17
 203 346 203 346 258 406 c 128,-1,18
 313 466 313 466 391 466 c 0,19,20
 443 466 443 466 472.5 433.5 c 128,-1,21
 502 401 502 401 502 350 c 0,22,23
 502 308 502 308 483.5 279 c 128,-1,24
 465 250 465 250 435 250 c 0,25,26
 416 250 416 250 404.5 259 c 128,-1,27
 393 268 393 268 393 284 c 0,28,29
 393 291 393 291 395 300 c 128,-1,30
 397 309 397 309 398 313 c 0,31,32
 403 328 403 328 403 341 c 0,33,34
 403 368 403 368 377 368 c 0,35,36
 357 368 357 368 338 347.5 c 128,-1,37
 319 327 319 327 307.5 292.5 c 128,-1,38
 296 258 296 258 296 218 c 0,39,40
 296 164 296 164 321 131.5 c 128,-1,41
 346 99 346 99 393 99 c 0,42,43
 430 99 430 99 459 123.5 c 128,-1,44
 488 148 488 148 539 209 c 0,45,46
 551 223 551 223 566 223 c 0,47,48
 579 223 579 223 586.5 211 c 128,-1,49
 594 199 594 199 594 178 c 0,50,51
 594 138 594 138 575 116 c 0,52,53
 530 62 530 62 485 28.5 c 128,-1,54
 440 -5 440 -5 383 -5 c 0,55,56
 336 -5 336 -5 297.5 15.5 c 128,-1,57
 259 36 259 36 235 65 c 128,-1,58
 211 94 211 94 204 121 c 1,59,60
 202 113 202 113 189 65 c 0,61,62
 178 25 178 25 163.5 10 c 128,-1,63
 149 -5 149 -5 119 -5 c 0,64,0
 81 -5 81 -5 65.5 35 c 128,-1,1
EndSplineSet
Substitution2: "Single Substitution lookup 29 subtable" kgreenlandic.fina
Substitution2: "'fina' Terminal Forms in Latin lookup 15 subtable" kgreenlandic.fina
Substitution2: "'aalt' Access All Alternates in Latin lookup 0 subtable" kgreenlandic.fina
EndChar

StartChar: l
Encoding: 108 108 456
Width: 326
GlyphClass: 2
Flags: W
AnchorPoint: "Anchor-9" 466 930 basechar 0
AnchorPoint: "Anchor-8" 326 930 basechar 0
AnchorPoint: "Anchor-7" 0 0 basechar 0
AnchorPoint: "Anchor-6" 188 0 basechar 0
LayerCount: 2
Fore
SplineSet
447.5 211 m 128,-1,1
 455 199 455 199 455 178 c 0,2,3
 455 138 455 138 436 116 c 0,4,5
 393 63 393 63 342.5 29 c 128,-1,6
 292 -5 292 -5 228 -5 c 0,7,8
 140 -5 140 -5 97.5 75 c 128,-1,9
 55 155 55 155 55 282 c 0,10,11
 55 404 55 404 86.5 560 c 128,-1,12
 118 716 118 716 179.5 828 c 128,-1,13
 241 940 241 940 326 940 c 0,14,15
 374 940 374 940 401.5 895.5 c 128,-1,16
 429 851 429 851 429 768 c 0,17,18
 429 649 429 649 363 492 c 128,-1,19
 297 335 297 335 184 181 c 1,20,21
 191 140 191 140 207 122.5 c 128,-1,22
 223 105 223 105 249 105 c 0,23,24
 290 105 290 105 321 128.5 c 128,-1,25
 352 152 352 152 400 209 c 0,26,27
 412 223 412 223 427 223 c 0,28,0
 440 223 440 223 447.5 211 c 128,-1,1
252 758 m 128,-1,30
 223 675 223 675 201 552 c 128,-1,31
 179 429 179 429 177 316 c 1,32,33
 248 433 248 433 290 550.5 c 128,-1,34
 332 668 332 668 332 765 c 0,35,36
 332 841 332 841 304 841 c 0,37,29
 281 841 281 841 252 758 c 128,-1,30
EndSplineSet
Substitution2: "Single Substitution lookup 29 subtable" l.fina
Substitution2: "'ss01' Style Set 1 in Latin lookup 24 subtable" l.ss01
Substitution2: "'salt' Stylistic Alternatives in Latin lookup 23 subtable" l.ss01
Substitution2: "'fina' Terminal Forms in Latin lookup 15 subtable" l.fina
AlternateSubs2: "'aalt' Access All Alternates in Latin lookup 1 subtable" l.fina l.ss01
EndChar

StartChar: ldot
Encoding: 320 320 460
Width: 363
Flags: W
LayerCount: 2
Fore
SplineSet
100 46.5 m 128,-1,1
 49 98 49 98 49 206 c 0,2,3
 49 232 49 232 52 260 c 0,4,5
 62 352 62 352 101 543.5 c 128,-1,6
 140 735 140 735 175 863 c 0,7,8
 186 903 186 903 205 919 c 128,-1,9
 224 935 224 935 255 935 c 0,10,11
 285 935 285 935 299.5 925 c 128,-1,12
 314 915 314 915 314 893 c 0,13,14
 314 880 314 880 310 867 c 0,15,16
 274 730 274 730 234 551 c 128,-1,17
 194 372 194 372 184 313 c 0,18,19
 177 270 177 270 177 230 c 0,20,21
 177 168 177 168 198.5 136.5 c 128,-1,22
 220 105 220 105 266 105 c 0,23,24
 315 105 315 105 353.5 130 c 128,-1,25
 392 155 392 155 437 209 c 0,26,27
 449 223 449 223 464 223 c 0,28,29
 477 223 477 223 484.5 211 c 128,-1,30
 492 199 492 199 492 178 c 0,31,32
 492 138 492 138 473 116 c 0,33,34
 430 65 430 65 372.5 30 c 128,-1,35
 315 -5 315 -5 245 -5 c 0,36,0
 151 -5 151 -5 100 46.5 c 128,-1,1
260 401 m 128,-1,38
 240 421 240 421 240 455 c 0,39,40
 240 490 240 490 266.5 513.5 c 128,-1,41
 293 537 293 537 330 537 c 0,42,43
 362 537 362 537 383.5 519 c 128,-1,44
 405 501 405 501 405 468 c 0,45,46
 405 429 405 429 380 405 c 128,-1,47
 355 381 355 381 318 381 c 0,48,37
 280 381 280 381 260 401 c 128,-1,38
EndSplineSet
Substitution2: "Single Substitution lookup 29 subtable" ldot.fina
Ligature2: "Ligature Substitution lookup 28 subtable" l periodcentered
Substitution2: "'fina' Terminal Forms in Latin lookup 15 subtable" ldot.fina
Substitution2: "'aalt' Access All Alternates in Latin lookup 0 subtable" ldot.fina
EndChar

StartChar: lslash
Encoding: 322 322 462
Width: 326
Flags: W
LayerCount: 2
Fore
SplineSet
556 992 m 128,-1,1
 594 971 594 971 594 942 c 0,2,3
 594 920 594 920 579.5 908 c 128,-1,4
 565 896 565 896 541 896 c 0,5,6
 527 896 527 896 504 901 c 0,7,8
 462 908 462 908 438 908 c 0,9,10
 372 908 372 908 327 896 c 128,-1,11
 282 884 282 884 238 864 c 0,12,13
 233 862 233 862 219 856 c 128,-1,14
 205 850 205 850 194 847.5 c 128,-1,15
 183 845 183 845 174 845 c 0,16,17
 153 845 153 845 141.5 857.5 c 128,-1,18
 130 870 130 870 130 887 c 0,19,20
 130 909 130 909 145 925.5 c 128,-1,21
 160 942 160 942 195 959 c 0,22,23
 244 983 244 983 308.5 998 c 128,-1,24
 373 1013 373 1013 436 1013 c 0,25,0
 518 1013 518 1013 556 992 c 128,-1,1
447.5 211 m 128,-1,27
 455 199 455 199 455 178 c 0,28,29
 455 138 455 138 436 116 c 0,30,31
 393 63 393 63 342.5 29 c 128,-1,32
 292 -5 292 -5 228 -5 c 0,33,34
 140 -5 140 -5 97.5 76.5 c 128,-1,35
 55 158 55 158 55 292 c 0,36,37
 55 405 55 405 86.5 536.5 c 128,-1,38
 118 668 118 668 179 759.5 c 128,-1,39
 240 851 240 851 323 851 c 0,40,41
 372 851 372 851 400.5 810.5 c 128,-1,42
 429 770 429 770 429 688 c 0,43,44
 429 581 429 581 362 448.5 c 128,-1,45
 295 316 295 316 184 183 c 1,46,47
 191 141 191 141 207 123 c 128,-1,48
 223 105 223 105 249 105 c 0,49,50
 290 105 290 105 321 128.5 c 128,-1,51
 352 152 352 152 400 209 c 0,52,53
 412 223 412 223 427 223 c 0,54,26
 440 223 440 223 447.5 211 c 128,-1,27
250.5 688.5 m 128,-1,56
 221 622 221 622 199.5 518 c 128,-1,57
 178 414 178 414 177 308 c 1,58,59
 332 522 332 522 332 685 c 0,60,61
 332 755 332 755 304 755 c 0,62,55
 280 755 280 755 250.5 688.5 c 128,-1,56
EndSplineSet
Substitution2: "Single Substitution lookup 29 subtable" lslash.fina
Substitution2: "'ss01' Style Set 1 in Latin lookup 24 subtable" lslash.ss01
Substitution2: "'salt' Stylistic Alternatives in Latin lookup 23 subtable" lslash.ss01
Substitution2: "'fina' Terminal Forms in Latin lookup 15 subtable" lslash.fina
AlternateSubs2: "'aalt' Access All Alternates in Latin lookup 1 subtable" lslash.fina lslash.ss01
EndChar

StartChar: m
Encoding: 109 109 463
Width: 744
GlyphClass: 2
Flags: W
AnchorPoint: "Anchor-9" 0 0 basechar 0
AnchorPoint: "Anchor-8" 409 460 basechar 0
AnchorPoint: "Anchor-7" 0 0 basechar 0
AnchorPoint: "Anchor-6" 367 0 basechar 0
LayerCount: 2
Fore
SplineSet
65.5 35 m 128,-1,1
 50 75 50 75 50 163 c 0,2,3
 50 293 50 293 87 410 c 0,4,5
 96 439 96 439 116.5 452.5 c 128,-1,6
 137 466 137 466 174 466 c 0,7,8
 194 466 194 466 202 461 c 128,-1,9
 210 456 210 456 210 442 c 0,10,11
 210 426 210 426 195 370 c 0,12,13
 185 330 185 330 179 300.5 c 128,-1,14
 173 271 173 271 169 227 c 1,15,16
 196 305 196 305 233.5 359 c 128,-1,17
 271 413 271 413 310.5 439.5 c 128,-1,18
 350 466 350 466 385 466 c 256,19,20
 420 466 420 466 434.5 450 c 128,-1,21
 449 434 449 434 449 401 c 0,22,23
 449 369 449 369 430 285 c 0,24,25
 422 249 422 249 419 231 c 1,26,27
 469 354 469 354 530 410 c 128,-1,28
 591 466 591 466 644 466 c 0,29,30
 709 466 709 466 709 401 c 0,31,32
 709 362 709 362 687 260 c 0,33,34
 668 173 668 173 668 145 c 0,35,36
 668 105 668 105 697 105 c 0,37,38
 717 105 717 105 744.5 129.5 c 128,-1,39
 772 154 772 154 818 209 c 0,40,41
 830 223 830 223 845 223 c 0,42,43
 858 223 858 223 865.5 211 c 128,-1,44
 873 199 873 199 873 178 c 0,45,46
 873 138 873 138 854 116 c 0,47,48
 811 63 811 63 761.5 29 c 128,-1,49
 712 -5 712 -5 649 -5 c 0,50,51
 598 -5 598 -5 572 24.5 c 128,-1,52
 546 54 546 54 546 110 c 0,53,54
 546 138 546 138 560 210 c 0,55,56
 573 273 573 273 573 297 c 0,57,58
 573 313 573 313 562 313 c 0,59,60
 549 313 549 313 525 279.5 c 128,-1,61
 501 246 501 246 477 191 c 128,-1,62
 453 136 453 136 438 75 c 0,63,64
 427 27 427 27 412.5 11 c 128,-1,65
 398 -5 398 -5 366 -5 c 0,66,67
 333 -5 333 -5 316.5 26.5 c 128,-1,68
 300 58 300 58 300 103 c 0,69,70
 300 141 300 141 310 213 c 0,71,72
 318 277 318 277 318 297 c 0,73,74
 318 313 318 313 307 313 c 0,75,76
 292 313 292 313 269 277 c 128,-1,77
 246 241 246 241 224.5 185 c 128,-1,78
 203 129 203 129 190 75 c 0,79,80
 179 28 179 28 164.5 11.5 c 128,-1,81
 150 -5 150 -5 119 -5 c 0,82,0
 81 -5 81 -5 65.5 35 c 128,-1,1
EndSplineSet
Substitution2: "Single Substitution lookup 29 subtable" m.fina
Substitution2: "'fina' Terminal Forms in Latin lookup 15 subtable" m.fina
Substitution2: "'aalt' Access All Alternates in Latin lookup 0 subtable" m.fina
EndChar

